<?xml version="1.0" encoding="utf-8"?>
<!-- Generator: Adobe Illustrator 23.0.0, SVG Export Plug-In . SVG Version: 6.00 Build 0)  -->
<svg version="1.1" id="Layer_1" xmlns="http://www.w3.org/2000/svg" xmlns:xlink="http://www.w3.org/1999/xlink" x="0px" y="0px"
	 viewBox="0 0 50 50" style="enable-background:new 0 0 50 50;" xml:space="preserve">
<style type="text/css">
	.st0{fill:#29ABE2;}
</style>
<title>icon-phone</title>
<path class="st0" d="M38.8,44c-2.6,1.4-7.9-2.1-13-6.5c-2.4-1.9-4.6-4-6.8-6.2c-2.2-2.1-4.3-4.4-6.3-6.8c-4.4-5.1-7.9-10.5-6.5-13
	c3.2-5.9,5.6-8.5,9.6-4.7s7.7,8.3,1.6,11.9c-1.8,1,1.2,5.2,4.8,9.3c4.1,3.6,8.2,6.6,9.3,4.8c3.6-6.1,8.1-2.5,11.9,1.5
	S44.6,40.8,38.8,44z"/>
</svg>
