<svg id="Layer_1" data-name="Layer 1" xmlns="http://www.w3.org/2000/svg" viewBox="0 0 40 40"><defs><style>.cls-1{fill:#fff;}</style></defs><title>icon-youtube</title><path class="cls-1" d="M36.13,11.9a4.23,4.23,0,0,0-3-3C30.53,8.22,20,8.22,20,8.22s-10.53,0-13.16.69a4.3,4.3,0,0,0-3,3A44.56,44.56,0,0,0,3.18,20a44.53,44.53,0,0,0,.69,8.1,4.23,4.23,0,0,0,3,3c2.66.72,13.16.72,13.16.72s10.53,0,13.16-.69a4.24,4.24,0,0,0,3-3A44.56,44.56,0,0,0,36.82,20,42.12,42.12,0,0,0,36.13,11.9ZM15.8,26V14l10.45,6Z"/></svg>