<svg id="Layer_1" data-name="Layer 1" xmlns="http://www.w3.org/2000/svg" xmlns:xlink="http://www.w3.org/1999/xlink" viewBox="0 0 280 83"><defs><style>.cls-1{fill:url(#linear-gradient);}.cls-2{fill:url(#linear-gradient-2);}.cls-3{fill:url(#linear-gradient-3);}.cls-4{fill:url(#linear-gradient-4);}.cls-5{fill:url(#linear-gradient-5);}.cls-6{fill:url(#linear-gradient-6);}.cls-7{fill:url(#linear-gradient-7);}.cls-8{fill:url(#linear-gradient-8);}.cls-9{fill:url(#linear-gradient-9);}.cls-10{fill:url(#linear-gradient-10);}.cls-11{fill:url(#linear-gradient-11);}.cls-12{fill:url(#linear-gradient-12);}.cls-13{fill:url(#linear-gradient-13);}.cls-14{fill:url(#linear-gradient-14);}.cls-15{fill:url(#linear-gradient-15);}.cls-16{fill:url(#radial-gradient);}.cls-17{fill:url(#radial-gradient-2);}.cls-18{fill:url(#linear-gradient-16);}.cls-19{fill:url(#radial-gradient-3);}.cls-20{fill:url(#radial-gradient-4);}.cls-21{fill:url(#radial-gradient-5);}.cls-22{fill:url(#radial-gradient-6);}.cls-23{fill:url(#radial-gradient-7);}.cls-24{fill:url(#radial-gradient-8);}.cls-25{fill:url(#radial-gradient-9);}.cls-26{fill:url(#radial-gradient-10);}.cls-27{fill:url(#radial-gradient-11);}.cls-28{fill:url(#radial-gradient-12);}.cls-29{fill:url(#radial-gradient-13);}.cls-30{fill:url(#linear-gradient-17);}.cls-31{fill:url(#radial-gradient-14);}.cls-32{fill:url(#radial-gradient-15);}.cls-33{fill:url(#radial-gradient-16);}.cls-34{fill:url(#radial-gradient-17);}.cls-35{fill:url(#linear-gradient-18);}.cls-36{fill:url(#radial-gradient-18);}.cls-37{fill:url(#linear-gradient-19);}.cls-38{fill:url(#radial-gradient-19);}.cls-39{fill:url(#radial-gradient-20);}</style><linearGradient id="linear-gradient" x1="71.57" y1="35.46" x2="193" y2="21.89" gradientUnits="userSpaceOnUse"><stop offset="0.13" stop-color="#0071bc"/><stop offset="0.76" stop-color="#29abe2"/></linearGradient><linearGradient id="linear-gradient-2" x1="71.72" y1="36.81" x2="193.15" y2="23.24" xlink:href="#linear-gradient"/><linearGradient id="linear-gradient-3" x1="71.92" y1="38.59" x2="193.35" y2="25.02" xlink:href="#linear-gradient"/><linearGradient id="linear-gradient-4" x1="72.06" y1="39.86" x2="193.49" y2="26.29" xlink:href="#linear-gradient"/><linearGradient id="linear-gradient-5" x1="54.97" y1="78.36" x2="161.31" y2="69.2" xlink:href="#linear-gradient"/><linearGradient id="linear-gradient-6" x1="55.46" y1="84.03" x2="161.8" y2="74.88" xlink:href="#linear-gradient"/><linearGradient id="linear-gradient-7" x1="55.58" y1="85.51" x2="161.93" y2="76.35" xlink:href="#linear-gradient"/><linearGradient id="linear-gradient-8" x1="39.31" y1="63.04" x2="109.02" y2="15.48" xlink:href="#linear-gradient"/><linearGradient id="linear-gradient-9" x1="74.04" y1="57.56" x2="195.47" y2="43.99" xlink:href="#linear-gradient"/><linearGradient id="linear-gradient-10" x1="74.2" y1="58.99" x2="195.63" y2="45.42" xlink:href="#linear-gradient"/><linearGradient id="linear-gradient-11" x1="74.36" y1="60.39" x2="195.78" y2="46.82" xlink:href="#linear-gradient"/><linearGradient id="linear-gradient-12" x1="74.53" y1="61.93" x2="195.96" y2="48.36" xlink:href="#linear-gradient"/><linearGradient id="linear-gradient-13" x1="74.66" y1="63.1" x2="196.09" y2="49.53" xlink:href="#linear-gradient"/><linearGradient id="linear-gradient-14" x1="73.91" y1="56.4" x2="195.34" y2="42.83" xlink:href="#linear-gradient"/><linearGradient id="linear-gradient-15" x1="72.68" y1="45.37" x2="194.11" y2="31.8" xlink:href="#linear-gradient"/><radialGradient id="radial-gradient" cx="172.99" cy="7.87" r="29.03" gradientUnits="userSpaceOnUse"><stop offset="0" stop-color="#2e3192"/><stop offset="1" stop-color="#29abe2" stop-opacity="0"/></radialGradient><radialGradient id="radial-gradient-2" cx="194.53" cy="20.22" r="14.43" xlink:href="#radial-gradient"/><linearGradient id="linear-gradient-16" x1="99.23" y1="89.56" x2="277.96" y2="69.58" xlink:href="#linear-gradient"/><radialGradient id="radial-gradient-3" cx="280" cy="65.14" r="21.24" xlink:href="#radial-gradient"/><radialGradient id="radial-gradient-4" cx="209.06" cy="27.15" r="11.77" xlink:href="#radial-gradient"/><radialGradient id="radial-gradient-5" cx="197.93" cy="19" r="13.36" xlink:href="#radial-gradient"/><radialGradient id="radial-gradient-6" cx="218.7" cy="11.35" r="18.06" xlink:href="#radial-gradient"/><radialGradient id="radial-gradient-7" cx="187.57" cy="37.27" r="41.94" xlink:href="#radial-gradient"/><radialGradient id="radial-gradient-8" cx="185.3" cy="44.53" r="8.08" xlink:href="#radial-gradient"/><radialGradient id="radial-gradient-9" cx="187.8" cy="41.25" r="11.32" xlink:href="#radial-gradient"/><radialGradient id="radial-gradient-10" cx="215.81" cy="35.4" r="18.03" xlink:href="#radial-gradient"/><radialGradient id="radial-gradient-11" cx="231.39" cy="54.31" r="19.23" xlink:href="#radial-gradient"/><radialGradient id="radial-gradient-12" cx="233.31" cy="32.48" r="20.39" xlink:href="#radial-gradient"/><radialGradient id="radial-gradient-13" cx="229.34" cy="53.77" r="17.86" xlink:href="#radial-gradient"/><linearGradient id="linear-gradient-17" x1="-29.5" y1="101.19" x2="179.92" y2="77.78" xlink:href="#linear-gradient"/><radialGradient id="radial-gradient-14" cx="244.34" cy="50.39" r="35.16" xlink:href="#radial-gradient"/><radialGradient id="radial-gradient-15" cx="237.49" cy="87.12" r="30.81" xlink:href="#radial-gradient"/><radialGradient id="radial-gradient-16" cx="253.8" cy="34.98" r="17.25" xlink:href="#radial-gradient"/><radialGradient id="radial-gradient-17" cx="143.82" cy="65.9" r="17.68" xlink:href="#radial-gradient"/><linearGradient id="linear-gradient-18" x1="-59.98" y1="96.05" x2="148.42" y2="72.75" xlink:href="#linear-gradient"/><radialGradient id="radial-gradient-18" cx="183.06" cy="55.56" r="30.95" xlink:href="#radial-gradient"/><linearGradient id="linear-gradient-19" x1="-33.61" y1="96.05" x2="174.79" y2="72.75" xlink:href="#linear-gradient"/><radialGradient id="radial-gradient-19" cx="209.43" cy="55.56" r="30.95" xlink:href="#radial-gradient"/><radialGradient id="radial-gradient-20" cx="206.71" cy="64.44" r="19.67" xlink:href="#radial-gradient"/></defs><title>logo</title><path class="cls-1" d="M172.61,16.08h3.12V31.91h-3.12Z"/><path class="cls-2" d="M194.22,23.41v1.22a7.36,7.36,0,0,1-2.17,5.5,7.75,7.75,0,0,1-5.62,2.1,8.28,8.28,0,0,1-6.07-2.39A7.86,7.86,0,0,1,178,24a8.18,8.18,0,0,1,8.3-8.26,8.17,8.17,0,0,1,4.05,1,7.37,7.37,0,0,1,2.85,2.68L190.48,21a4.17,4.17,0,0,0-1.7-1.59,5.31,5.31,0,0,0-2.55-.61,5,5,0,0,0-3.72,1.48A5.14,5.14,0,0,0,181.05,24a5,5,0,0,0,1.48,3.7,5.38,5.38,0,0,0,3.93,1.46,5.19,5.19,0,0,0,3-.81,3.92,3.92,0,0,0,1.62-2.2h-4.79V23.41Z"/><path class="cls-3" d="M205.44,16.08h3.1V31.91h-3.1V25.35h-5.88v6.56h-3.13V16.08h3.13v6.29h5.88Z"/><path class="cls-4" d="M222,16.08v3h-4.27V31.91h-3.12V19.06H210.3v-3Z"/><path class="cls-5" d="M151,70.78a7.09,7.09,0,0,0,1.23-4A7.75,7.75,0,0,0,144.43,59H135l-6.44,18.17H50.13l5.08,5.14h76.85l6.58-19h5.79a2.94,2.94,0,0,1,2.23,1,3.42,3.42,0,0,1,.93,2.43,3.52,3.52,0,0,1-.93,2.45,3,3,0,0,1-2.23,1h-3.6l7.06,12.12h5l-5.16-8.79A7.75,7.75,0,0,0,151,70.78Z"/><polygon class="cls-6" points="208.03 82.35 212.63 82.35 212.63 73.36 221.69 73.36 221.69 68.97 212.63 68.97 212.63 63.44 221.95 63.44 221.95 59.04 208.03 59.04 208.03 82.35"/><rect class="cls-7" x="225.32" y="59.04" width="4.6" height="23.31"/><path class="cls-8" d="M148.37,13h5.15l-7.7-11.59a2.23,2.23,0,0,0-2.1-1L77.59,35.14.33,27l5,4.86L33.88,59.36,8.56,32.22l8.94,1L46,59.84,20.75,33.51l8.83.94L58.3,61.61,32.84,34.8l8.88.94L70.29,61.45,45.08,36.1l8.73.92L82.45,62.25,57.24,37.39l8.71.92,32,24.84L69.71,38.71l7.44.79,34.87,27-74.5-2.05L42,69l76.63,2.11v0h0a2.15,2.15,0,0,0,.61-.09,2.28,2.28,0,0,0,1.47-1.37L144.41,7.42Zm-30.7,52.33L82,37.73,94,31.41,90,41.51l6.37-11.38,10-5.29-9.3,21.83,12.17-23.35,9.77-5.17L104.21,51.83,122,16.6l9.68-5.12L111.29,57,134.75,9.86l5.05-2.68Z"/><path class="cls-9" d="M197.14,44.3a4.07,4.07,0,0,0,.71-2.33,4.49,4.49,0,0,0-4.49-4.48H188V51h2.66V46.32h2L195.36,51h2.88l-3-5.1A4.54,4.54,0,0,0,197.14,44.3Zm-2.49-.91a1.7,1.7,0,0,1-1.29.59h-2.75V40h2.75a1.73,1.73,0,0,1,1.29.58,2.12,2.12,0,0,1,0,2.83Z"/><path class="cls-10" d="M206,37.22a7.06,7.06,0,0,0-5,12,7,7,0,0,0,10-10A6.78,6.78,0,0,0,206,37.22Zm3.11,10.21a4.52,4.52,0,0,1-6.22,0,4.67,4.67,0,0,1,0-6.36,4.47,4.47,0,0,1,6.22,0,4.64,4.64,0,0,1,0,6.36Z"/><path class="cls-11" d="M222.4,46.37a2.35,2.35,0,0,1-.61,1.69,3.28,3.28,0,0,1-3.81,0,2.34,2.34,0,0,1-.6-1.69V37.49h-2.65v9.1A4.32,4.32,0,0,0,216.18,50a6.07,6.07,0,0,0,7.43,0,4.32,4.32,0,0,0,1.45-3.42v-9.1H222.4Z"/><polygon class="cls-12" points="235.28 45.73 229.48 37.49 227.46 37.49 227.46 51.01 230.12 51.01 230.12 42.74 235.91 51.01 237.94 51.01 237.94 37.49 235.28 37.49 235.28 45.73"/><path class="cls-13" d="M250.46,39.44a6.15,6.15,0,0,0-4.64-1.95h-5.37V51h5.37a6.15,6.15,0,0,0,4.64-1.95,7.15,7.15,0,0,0,0-9.62Zm-1.78,7.85a3.76,3.76,0,0,1-2.86,1.17h-2.71V40h2.71a3.76,3.76,0,0,1,2.86,1.17,4.75,4.75,0,0,1,0,6.08Z"/><path class="cls-14" d="M178.57,37.49l-2.13,6.07,3.11,5h3.52l.86,2.43h2.71l-4.77-13.52Zm-.18,8.6,1.85-5.53,1.95,5.53Z"/><path class="cls-15" d="M165.06,31a7.81,7.81,0,0,0,3.32-2.83,7.22,7.22,0,0,0,1.26-4.09,7.89,7.89,0,0,0-7.91-7.88h-10.3L154,20.61h7.75a3,3,0,0,1,2.28,1,3.51,3.51,0,0,1,1,2.48,3.57,3.57,0,0,1-1,2.49,3,3,0,0,1-2.28,1h-3.66L171.94,50h-34l-1.32,3.8h42.53Z"/><path class="cls-16" d="M161.73,20.61a3,3,0,0,1,2.28,1,3.51,3.51,0,0,1,1,2.48,3.57,3.57,0,0,1-1,2.49,3,3,0,0,1-2.28,1h-3.66l12.5,20.16c1.9-.09,3.59-.18,4.7-.26L165.06,31a7.81,7.81,0,0,0,3.32-2.83,7.52,7.52,0,0,0,1-2.05C169.75,20.07,161.73,20.61,161.73,20.61Z"/><path class="cls-17" d="M180.36,29.84a8.28,8.28,0,0,0,6.07,2.39,7.75,7.75,0,0,0,5.62-2.1,6.91,6.91,0,0,0,1.65-2.5c-.07-1.79-2.63-1.46-2.63-1.46a3.92,3.92,0,0,1-1.62,2.2,5.19,5.19,0,0,1-3,.81,5.38,5.38,0,0,1-3.93-1.46,4.8,4.8,0,0,1-1.34-2.44l-2.29,2.63A8.05,8.05,0,0,0,180.36,29.84Z"/><path class="cls-18" d="M279.53,69.83v1.8a10.75,10.75,0,0,1-3.19,8.09,11.38,11.38,0,0,1-8.26,3.1,12.17,12.17,0,0,1-8.94-3.51,11.61,11.61,0,0,1-3.55-8.58,12,12,0,0,1,12.22-12.15,12.14,12.14,0,0,1,6,1.48A11,11,0,0,1,278,64L274,66.27a6.21,6.21,0,0,0-2.52-2.33,7.8,7.8,0,0,0-3.74-.9,7.38,7.38,0,0,0-5.48,2.18,7.53,7.53,0,0,0-2.15,5.51,7.35,7.35,0,0,0,2.18,5.45,7.89,7.89,0,0,0,5.78,2.14,7.67,7.67,0,0,0,4.41-1.18,5.85,5.85,0,0,0,2.38-3.25h-7.06V69.83Z"/><path class="cls-19" d="M259.14,79.31a12.17,12.17,0,0,0,8.94,3.51,11.38,11.38,0,0,0,8.26-3.1,10.2,10.2,0,0,0,2.43-3.67c-.1-2.64-3.87-2.16-3.87-2.16a5.85,5.85,0,0,1-2.38,3.25,7.67,7.67,0,0,1-4.41,1.18,7.89,7.89,0,0,1-5.78-2.14,7.15,7.15,0,0,1-2-3.59L257,76.46A12.05,12.05,0,0,0,259.14,79.31Z"/><path class="cls-20" d="M208.54,16.08v4.33a2,2,0,0,1-2,2h-1.14V16.08Z"/><path class="cls-21" d="M198.39,25.35h1.17v6.56h-3.13v-4.6A2,2,0,0,1,198.39,25.35Z"/><path class="cls-22" d="M217.68,21.45V31.91h-3.12V19.06h.73A2.39,2.39,0,0,1,217.68,21.45Z"/><path class="cls-23" d="M171.94,50s2.24,3.8-2.35,3.8h-33l1.32-3.8Z"/><path class="cls-24" d="M183.07,48.58s2.59-.33,3,.84l.56,1.59h-2.71Z"/><path class="cls-25" d="M190.61,46.31V51H188V48.09a1.78,1.78,0,0,1,1.77-1.78Z"/><path class="cls-26" d="M211,49.24A6.93,6.93,0,0,0,212.55,47c.92-7.82-6.51-7.19-6.51-7.19a4.21,4.21,0,0,1,3.11,1.26,4.42,4.42,0,0,1-3.11,7.6,4.22,4.22,0,0,1-3-1.18L201.91,50a7.11,7.11,0,0,0,9.11-.72Z"/><path class="cls-27" d="M219.89,48.67a2.59,2.59,0,0,1-1.91-.61,2.33,2.33,0,0,1-.6-1.68V37.49h-2.65v9.1A4.32,4.32,0,0,0,216.18,50a5.11,5.11,0,0,0,2.53,1.17c4,.18,3.69-4.8,3.69-4.8a2.34,2.34,0,0,1-.61,1.68A2.58,2.58,0,0,1,219.89,48.67Z"/><path class="cls-28" d="M230.12,51V42.75s-2.66-4-2.66-.63V51Z"/><path class="cls-29" d="M235.28,37.49v8.24s2.66,3.56,2.66,1V37.49Z"/><polygon class="cls-30" points="247.73 73.24 237.74 59.04 234.24 59.04 234.24 82.35 238.84 82.35 238.84 68.1 248.83 82.35 252.32 82.35 252.32 59.04 247.73 59.04 247.73 73.24"/><path class="cls-31" d="M238.84,82.35V68.1s-4.6-6.87-4.6-1.07V82.35Z"/><path class="cls-32" d="M247.73,59v14.2s4.59,6.16,4.59,1.69V59Z"/><path class="cls-33" d="M245.82,51a6.15,6.15,0,0,0,4.64-1.95A6.59,6.59,0,0,0,252.29,45c.25-5.1-6.47-4.93-6.47-4.93a3.76,3.76,0,0,1,2.86,1.17,4.75,4.75,0,0,1,0,6.08,3.76,3.76,0,0,1-2.86,1.17h-2.71V51Z"/><path class="cls-34" d="M147.69,73.56s-4.58.59-3.15,3l3.35,5.75h5Z"/><path class="cls-35" d="M166.29,58.69a12.11,12.11,0,0,0-8.53,20.63,12.1,12.1,0,0,0,17.08-17.13A11.67,11.67,0,0,0,166.29,58.69Zm5.34,17.52a7.5,7.5,0,0,1-12.83-5.45A7.39,7.39,0,0,1,161,65.29a7.69,7.69,0,0,1,10.67,0,8,8,0,0,1,0,10.92Z"/><path class="cls-36" d="M174.84,79.32a11.6,11.6,0,0,0,2.61-3.84c1.6-13.42-11.16-12.34-11.16-12.34a7.25,7.25,0,0,1,5.34,2.15,8,8,0,0,1,0,10.92,7.72,7.72,0,0,1-10.56.1l-1.87,4.24a12.2,12.2,0,0,0,15.64-1.23Z"/><path class="cls-37" d="M192.67,58.69a12.12,12.12,0,0,0-8.54,20.63,12.1,12.1,0,0,0,17.08-17.13A11.66,11.66,0,0,0,192.67,58.69ZM198,76.21a7.49,7.49,0,0,1-12.82-5.45,7.38,7.38,0,0,1,2.15-5.47,7.69,7.69,0,0,1,10.67,0,8,8,0,0,1,0,10.92Z"/><path class="cls-38" d="M201.21,79.32a11.78,11.78,0,0,0,2.62-3.84c1.59-13.42-11.16-12.34-11.16-12.34A7.22,7.22,0,0,1,198,65.29a8,8,0,0,1,0,10.92,7.72,7.72,0,0,1-10.56.1l-1.87,4.24a12.2,12.2,0,0,0,15.64-1.23Z"/><path class="cls-39" d="M212.63,73.36v9H208V76.77a3.41,3.41,0,0,1,3.41-3.41Z"/></svg>