<?xml version="1.0" encoding="utf-8"?>
<!-- Generator: Adobe Illustrator 23.0.0, SVG Export Plug-In . SVG Version: 6.00 Build 0)  -->
<svg version="1.1" id="Layer_1" xmlns="http://www.w3.org/2000/svg" xmlns:xlink="http://www.w3.org/1999/xlink" x="0px" y="0px"
	 viewBox="0 0 280 83" style="enable-background:new 0 0 280 83;" xml:space="preserve">
<style type="text/css">
	.st0{fill:#FFFFFF;}
</style>
<title>logo</title>
<path class="st0" d="M172.6,16.1h3.1v15.8h-3.1V16.1z"/>
<path class="st0" d="M194.2,23.4v1.2c0.1,2.1-0.7,4.1-2.2,5.5c-1.5,1.4-3.5,2.2-5.6,2.1c-2.3,0.1-4.5-0.8-6.1-2.4
	c-1.6-1.5-2.4-3.6-2.4-5.8c0-4.5,3.6-8.2,8.1-8.3c0.1,0,0.1,0,0.2,0c1.4,0,2.8,0.3,4.1,1c1.2,0.6,2.2,1.5,2.9,2.7l-2.7,1.6
	c-0.4-0.7-1-1.2-1.7-1.6c-0.8-0.4-1.7-0.6-2.6-0.6c-1.4,0-2.7,0.5-3.7,1.5c-1,1-1.5,2.3-1.5,3.7c0,1.4,0.5,2.7,1.5,3.7
	c1.1,1,2.5,1.5,3.9,1.5c1.1,0,2.1-0.2,3-0.8c0.8-0.5,1.4-1.3,1.6-2.2h-4.8v-2.7H194.2z"/>
<path class="st0" d="M205.4,16.1h3.1v15.8h-3.1v-6.6h-5.9v6.6h-3.1V16.1h3.1v6.3h5.9V16.1z"/>
<path class="st0" d="M222,16.1v3h-4.3v12.8h-3.1V19.1h-4.3v-3L222,16.1z"/>
<path class="st0" d="M151,70.8c0.8-1.2,1.2-2.6,1.2-4c0-4.3-3.4-7.8-7.7-7.8c0,0-0.1,0-0.1,0H135l-6.4,18.2H50.1l5.1,5.1h76.8
	l6.6-19h5.8c0.9,0,1.7,0.4,2.2,1c0.6,0.7,1,1.5,0.9,2.4c0,0.9-0.3,1.8-0.9,2.4c-0.6,0.6-1.4,1-2.2,1h-3.6l7.1,12.1h5l-5.2-8.8
	C149.1,72.9,150.2,72,151,70.8z"/>
<polygon class="st0" points="208,82.3 212.6,82.3 212.6,73.4 221.7,73.4 221.7,69 212.6,69 212.6,63.4 221.9,63.4 221.9,59 208,59 
	"/>
<rect x="225.3" y="59" class="st0" width="4.6" height="23.3"/>
<path class="st0" d="M148.4,13h5.1l-7.7-11.6c-0.5-0.7-1.3-1.1-2.1-1L77.6,35.1L0.3,27l5,4.9l28.6,27.5L8.6,32.2l8.9,1L46,59.8
	L20.8,33.5l8.8,0.9l28.7,27.2L32.8,34.8l8.9,0.9l28.6,25.7L45.1,36.1l8.7,0.9l28.6,25.2L57.2,37.4l8.7,0.9l32,24.8L69.7,38.7
	l7.4,0.8l34.9,27l-74.5-2.1L42,69l76.6,2.1l0,0l0,0c0.2,0,0.4,0,0.6-0.1c0.7-0.2,1.2-0.7,1.5-1.4l23.7-62.2L148.4,13z M117.7,65.3
	L82,37.7l12-6.3l-4,10.1l6.4-11.4l10-5.3l-9.3,21.8l12.2-23.4l9.8-5.2l-14.8,33.7L122,16.6l9.7-5.1L111.3,57l23.5-47.1l5.1-2.7
	L117.7,65.3z"/>
<path class="st0" d="M197.1,44.3c0.5-0.7,0.7-1.5,0.7-2.3c0-2.5-2-4.5-4.5-4.5H188V51h2.7v-4.7h2l2.7,4.7h2.9l-3-5.1
	C196,45.6,196.7,45,197.1,44.3z M194.6,43.4c-0.3,0.4-0.8,0.6-1.3,0.6h-2.8v-4h2.8c0.5,0,1,0.2,1.3,0.6
	C195.4,41.4,195.4,42.6,194.6,43.4L194.6,43.4z"/>
<path class="st0" d="M206,37.2c-3.9,0-7,3.2-7,7.1c0,1.8,0.7,3.6,2,4.9c2.8,2.8,7.2,2.8,10,0s2.8-7.2,0-10
	C209.7,37.9,207.9,37.2,206,37.2z M209.1,47.4c-1.7,1.7-4.5,1.7-6.2,0c-1.7-1.8-1.7-4.6,0-6.4c1.7-1.7,4.5-1.7,6.2,0
	C210.8,42.9,210.8,45.6,209.1,47.4z"/>
<path class="st0" d="M222.4,46.4c0,0.6-0.2,1.2-0.6,1.7c-1.1,0.8-2.7,0.8-3.8,0c-0.4-0.5-0.6-1.1-0.6-1.7v-8.9h-2.6v9.1
	c-0.1,1.3,0.5,2.5,1.4,3.4c2.2,1.7,5.2,1.7,7.4,0c1-0.9,1.5-2.1,1.4-3.4v-9.1h-2.7V46.4z"/>
<polygon class="st0" points="235.3,45.7 229.5,37.5 227.5,37.5 227.5,51 230.1,51 230.1,42.7 235.9,51 237.9,51 237.9,37.5 
	235.3,37.5 "/>
<path class="st0" d="M250.5,39.4c-1.2-1.3-2.9-2-4.6-2h-5.4V51h5.4c1.8,0,3.4-0.7,4.6-2C252.9,46.3,252.9,42.2,250.5,39.4
	L250.5,39.4z M248.7,47.3c-0.7,0.8-1.8,1.2-2.9,1.2h-2.7V40h2.7c1.1,0,2.1,0.4,2.9,1.2C250.1,42.9,250.1,45.5,248.7,47.3L248.7,47.3
	z"/>
<path class="st0" d="M178.6,37.5l-2.1,6.1l3.1,5h3.5l0.9,2.4h2.7l-4.8-13.5L178.6,37.5z M178.4,46.1l1.9-5.5l1.9,5.5H178.4z"/>
<path class="st0" d="M165.1,31c1.4-0.6,2.5-1.6,3.3-2.8c0.8-1.2,1.3-2.6,1.3-4.1c0-4.4-3.5-7.9-7.9-7.9c0,0,0,0,0,0h-10.3l2.6,4.4
	h7.8c0.9,0,1.7,0.4,2.3,1c0.6,0.7,1,1.6,1,2.5c0,0.9-0.4,1.8-1,2.5c-0.6,0.6-1.4,1-2.3,1h-3.7L171.9,50h-34l-1.3,3.8h42.5L165.1,31z
	"/>
<path class="st0" d="M279.5,69.8v1.8c0.1,3-1,6-3.2,8.1c-2.2,2.1-5.2,3.2-8.3,3.1c-3.3,0.1-6.6-1.2-8.9-3.5
	c-2.3-2.2-3.6-5.4-3.6-8.6c-0.1-6.6,5.2-12.1,11.8-12.2c0.1,0,0.2,0,0.4,0c2.1,0,4.2,0.5,6,1.5c1.7,0.9,3.2,2.3,4.2,3.9l-4,2.3
	c-0.6-1-1.5-1.8-2.5-2.3c-1.2-0.6-2.4-0.9-3.7-0.9c-2.1-0.1-4,0.7-5.5,2.2c-1.4,1.5-2.2,3.5-2.1,5.5c-0.1,2,0.7,4,2.2,5.4
	c1.6,1.5,3.6,2.2,5.8,2.1c1.6,0.1,3.1-0.3,4.4-1.2c1.2-0.8,2-1.9,2.4-3.3h-7.1v-4.1H279.5z"/>
<polygon class="st0" points="247.7,73.2 237.7,59 234.2,59 234.2,82.3 238.8,82.3 238.8,68.1 248.8,82.3 252.3,82.3 252.3,59 
	247.7,59 "/>
<path class="st0" d="M166.3,58.7c-6.7,0-12.1,5.5-12,12.2c0,3.2,1.3,6.2,3.5,8.4c4.9,4.6,12.5,4.4,17.1-0.5c4.4-4.7,4.4-12,0-16.6
	C172.6,59.9,169.5,58.6,166.3,58.7z M171.6,76.2c-2.9,2.9-7.7,3-10.6,0.1c-1.5-1.5-2.3-3.4-2.2-5.5c-0.1-2,0.7-4,2.2-5.5
	c3-2.9,7.7-2.9,10.7,0C174.5,68.4,174.5,73.1,171.6,76.2L171.6,76.2z"/>
<path class="st0" d="M192.7,58.7c-6.7,0-12.1,5.5-12,12.2c0,3.2,1.3,6.2,3.5,8.4c4.9,4.6,12.5,4.4,17.1-0.5c4.4-4.7,4.4-12,0-16.6
	C199,59.9,195.9,58.6,192.7,58.7z M198,76.2c-2.9,2.9-7.6,3-10.6,0.1c-1.5-1.5-2.3-3.5-2.2-5.5c-0.1-2,0.7-4,2.1-5.5
	c3-2.9,7.7-2.9,10.7,0C200.9,68.4,200.9,73.1,198,76.2L198,76.2z"/>
</svg>
