<svg id="Layer_1" data-name="Layer 1" xmlns="http://www.w3.org/2000/svg" viewBox="0 0 240 80"><defs><style>.cls-1{fill:#f90;}.cls-1,.cls-2{fill-rule:evenodd;}</style></defs><title>brand-2</title><path id="path8" class="cls-1" d="M139.21,64.55C129.94,71.39,116.5,75,104.92,75A62.06,62.06,0,0,1,63,59.05c-.87-.78-.09-1.85.95-1.24a84.32,84.32,0,0,0,41.91,11.11,83.41,83.41,0,0,0,32-6.53c1.57-.67,2.88,1,1.34,2.16"/><path id="path10" class="cls-1" d="M143.07,60.14c-1.18-1.51-7.84-.71-10.83-.36-.91.11-1-.68-.22-1.25,5.3-3.73,14-2.65,15-1.4s-.26,10-5.25,14.13c-.76.64-1.49.3-1.15-.54,1.12-2.8,3.63-9.06,2.44-10.58"/><path id="path12" class="cls-2" d="M132.45,32.19V28.57a.9.9,0,0,1,.92-.92h16.24a.9.9,0,0,1,.93.92v3.1A5,5,0,0,1,149.32,34l-8.41,12a18,18,0,0,1,9.26,2,1.65,1.65,0,0,1,.86,1.41v3.87c0,.53-.58,1.15-1.19.83a18.72,18.72,0,0,0-17.16,0c-.56.31-1.15-.3-1.15-.83V49.57a4.39,4.39,0,0,1,.6-2.49l9.74-14h-8.48a.9.9,0,0,1-.94-.91"/><path id="path14" class="cls-2" d="M73.23,54.82H68.29A.94.94,0,0,1,67.4,54V28.63a.93.93,0,0,1,1-.91H73a.94.94,0,0,1,.9.85v3.31H74c1.2-3.2,3.46-4.7,6.5-4.7s5,1.5,6.41,4.7A7.3,7.3,0,0,1,99.4,30c1.57,2.14,1.25,5.24,1.25,8v16a.93.93,0,0,1-1,.92H94.76a.94.94,0,0,1-.89-.92V40.47a32.71,32.71,0,0,0-.14-4.76,2.57,2.57,0,0,0-2.91-2.18,3.29,3.29,0,0,0-2.95,2.08,15.29,15.29,0,0,0-.46,4.86V53.9a.93.93,0,0,1-1,.92H81.53a.94.94,0,0,1-.89-.92V40.47c0-2.83.47-7-3-7s-3.41,4.05-3.41,7V53.9a.94.94,0,0,1-1,.92"/><path id="path16" class="cls-2" d="M164.52,27.18c7.33,0,11.3,6.3,11.3,14.3,0,7.73-4.38,13.87-11.3,13.87-7.19,0-11.11-6.3-11.11-14.14s4-14,11.11-14m0,5.18c-3.64,0-3.87,5-3.87,8s0,9.71,3.83,9.71,4-5.33,4-8.58a23.34,23.34,0,0,0-.74-6.73,3.09,3.09,0,0,0-3.23-2.45"/><path id="path18" class="cls-2" d="M185.32,54.82H180.4a.94.94,0,0,1-.88-.92V28.54a.93.93,0,0,1,1-.82H185a.94.94,0,0,1,.88.71V32.3H186c1.38-3.46,3.32-5.12,6.73-5.12a6.48,6.48,0,0,1,5.77,3c1.29,2,1.29,5.44,1.29,7.89V54a.94.94,0,0,1-1,.8H193.9A.94.94,0,0,1,193,54V40.25c0-2.77.32-6.83-3.09-6.83a3.24,3.24,0,0,0-2.86,2,11.29,11.29,0,0,0-.78,4.8V53.9a1,1,0,0,1-1,.92"/><path id="path28" class="cls-2" d="M119.51,42.71c0,1.92,0,3.53-.92,5.24a4,4,0,0,1-3.42,2.24c-1.9,0-3-1.44-3-3.58,0-4.21,3.77-5,7.35-5v1.07m5,12a1,1,0,0,1-1.17.12,12.18,12.18,0,0,1-2.83-3.29c-2.71,2.76-4.63,3.59-8.14,3.59-4.16,0-7.39-2.57-7.39-7.7a8.37,8.37,0,0,1,5.26-8.07c2.68-1.18,6.43-1.39,9.29-1.72V37a6.36,6.36,0,0,0-.6-3.58,3.29,3.29,0,0,0-2.78-1.28,3.75,3.75,0,0,0-4,3,1,1,0,0,1-.86.91l-4.79-.52a.87.87,0,0,1-.74-1c1.1-5.81,6.35-7.56,11-7.56,2.4,0,5.54.64,7.44,2.46,2.4,2.24,2.17,5.24,2.17,8.5v7.69c0,2.32,1,3.33,1.87,4.58a.93.93,0,0,1,0,1.31c-1,.85-2.8,2.41-3.78,3.28h0"/><path id="path30" class="cls-2" d="M54.75,42.71c0,1.92,0,3.53-.92,5.24a4,4,0,0,1-3.42,2.24c-1.9,0-3-1.44-3-3.58,0-4.21,3.77-5,7.34-5v1.07m5,12a1,1,0,0,1-1.16.12,12.42,12.42,0,0,1-2.84-3.29c-2.71,2.76-4.62,3.59-8.14,3.59-4.15,0-7.39-2.57-7.39-7.7a8.38,8.38,0,0,1,5.26-8.07c2.69-1.18,6.43-1.39,9.29-1.72V37a6.44,6.44,0,0,0-.59-3.58,3.32,3.32,0,0,0-2.78-1.28,3.76,3.76,0,0,0-4,3,1,1,0,0,1-.85.91l-4.8-.52a.87.87,0,0,1-.74-1c1.11-5.81,6.35-7.56,11-7.56,2.41,0,5.55.64,7.44,2.46,2.41,2.24,2.18,5.24,2.18,8.5v7.69c0,2.32,1,3.33,1.86,4.58a.92.92,0,0,1,0,1.31c-1,.85-2.8,2.41-3.78,3.28h0"/></svg>