<svg id="Layer_1" data-name="Layer 1" xmlns="http://www.w3.org/2000/svg" viewBox="0 0 240 80"><defs><style>.cls-1{fill:#ff3036;}</style></defs><title>brand-3</title><path class="cls-1" d="M114.4,51.82c0-.25-.23-.14-.34-.15a13.68,13.68,0,0,1-3.85-.74,8.88,8.88,0,0,1-6.07-7.31,11.43,11.43,0,0,1,1-7.53,9.16,9.16,0,0,1,7.27-5,12,12,0,0,1,5.39.54c.35.12.32,0,.32-.28,0-2.49,0-5,0-7.46,0-.39.12-.47.49-.47,1.52,0,3,0,4.55,0,.3,0,.41.07.41.39q0,13.34,0,26.67c0,.27-.08.37-.36.42a41,41,0,0,1-6.53.75,1,1,0,0,0-.29,0c-.06,0-.07.06,0,.11Zm3.74-10.14c0-1.63,0-3.26,0-4.89a.49.49,0,0,0-.33-.53,8.47,8.47,0,0,0-3-.73,4.22,4.22,0,0,0-4.32,2.31,7.44,7.44,0,0,0-.68,4.71A5.1,5.1,0,0,0,114.06,47a13.08,13.08,0,0,0,3.8,0c.26,0,.28-.18.28-.4Z"/><path class="cls-1" d="M134.69,51.82c0-.25-.22-.14-.34-.15a8.75,8.75,0,0,1-4.75-1.84,9.1,9.1,0,0,1-3.3-5.71,11.25,11.25,0,0,1,1.1-7.66,10.21,10.21,0,0,1,7.23-5.17,18,18,0,0,1,6.82.11,23.52,23.52,0,0,1,4,1,.48.48,0,0,1,.37.53q0,8.92,0,17.85c0,.35-.1.43-.44.43q-2,0-4,0c-.32,0-.43-.1-.48-.4s-.17-.83-.26-1.24l-.14-.1a3.28,3.28,0,0,1-.33.47,6.34,6.34,0,0,1-4,1.69c-.29,0-.29,0-.39.16Zm5.61-11.14c0-1.42,0-2.85,0-4.27,0-.26-.07-.38-.35-.44a17,17,0,0,0-2-.27A5.18,5.18,0,0,0,132.86,38a6.68,6.68,0,0,0-.41,6.64c1.47,3.38,5.71,3.15,7.54,1a1.25,1.25,0,0,0,.32-.85C140.29,43.38,140.3,42,140.3,40.68Z"/><path class="cls-1" d="M169.89,51.82c-.07-.28-.29-.14-.44-.15a10.65,10.65,0,0,1-4.69-1.46,9.08,9.08,0,0,1-4-5.05,11.4,11.4,0,0,1,.36-8.51,9.08,9.08,0,0,1,6.48-5.29,11.43,11.43,0,0,1,7.41.55,9.32,9.32,0,0,1,5.63,7.67,11.27,11.27,0,0,1-.77,6.36,9.34,9.34,0,0,1-7.53,5.63c-.33,0-.66.06-1,.11-.08,0-.25-.06-.22.14ZM175,41.26a7.55,7.55,0,0,0-.6-3.07,4.06,4.06,0,0,0-3.63-2.66,3.84,3.84,0,0,0-3.91,2,7.71,7.71,0,0,0,0,7.57,4.23,4.23,0,0,0,7.33-.05A7.61,7.61,0,0,0,175,41.26Z"/><path class="cls-1" d="M90.63,51.82c-.11-.14-.11-.13-.43-.16a10.17,10.17,0,0,1-5.14-1.77,9.22,9.22,0,0,1-3.65-5.17,11.49,11.49,0,0,1,.51-8.08,9.1,9.1,0,0,1,6.49-5.29,11.64,11.64,0,0,1,6.76.32A9.08,9.08,0,0,1,101,37.6a11.34,11.34,0,0,1-.11,7.83,9.35,9.35,0,0,1-7.78,6.14c-.32,0-.65.06-1,.11-.09,0-.25-.06-.23.14ZM95.78,41a7.2,7.2,0,0,0-.6-2.79,4.05,4.05,0,0,0-3.64-2.7,3.84,3.84,0,0,0-3.93,2.07,7.7,7.7,0,0,0,0,7.5,4.24,4.24,0,0,0,7.27.12A8,8,0,0,0,95.78,41Z"/><path class="cls-1" d="M36,60.64c-12,0-21.2-9.25-21.2-20.66a20.64,20.64,0,0,1,41.27,0A20.65,20.65,0,0,1,36,60.64ZM24.19,39.15a13.62,13.62,0,0,0,.27,2.77,11.91,11.91,0,0,0,5.86,8.3,11,11,0,0,0,16.54-8.49A11.43,11.43,0,0,0,46.59,38a9.61,9.61,0,0,0-3.22-5.31A12.49,12.49,0,0,0,38,30.19c-.16,0-.22-.09-.22-.26A7,7,0,0,1,38,28.17a8.32,8.32,0,0,1,3-4.82,8.78,8.78,0,0,1,2.54-1.41c.14-.05.37-.1.36-.25s-.26-.15-.41-.18a6.66,6.66,0,0,0-1.67,0,20.38,20.38,0,0,0-4.18.84A18.87,18.87,0,0,0,26.93,30.2,16.56,16.56,0,0,0,24.19,39.15Z"/><path class="cls-1" d="M217.39,43.19h-6.17c-.48,0-.49,0-.4.49a4.29,4.29,0,0,0,4,3.66A18.46,18.46,0,0,0,221,47c.69-.14,1.37-.32,2.05-.5.24-.07.32,0,.32.22,0,1,0,2,0,3,0,.23-.13.3-.3.38a15.91,15.91,0,0,1-7.95,1.5,12.64,12.64,0,0,1-4.76-1.14A8.14,8.14,0,0,1,206,45.86a12.33,12.33,0,0,1,.24-9.63,8.68,8.68,0,0,1,7.47-5.2,9.19,9.19,0,0,1,6,1.23,9,9,0,0,1,4,5.92,15.36,15.36,0,0,1,.25,4.69c0,.32-.2.32-.44.32Zm-2.41-4h3.64c.52,0,.53,0,.42-.54a3.72,3.72,0,0,0-3.57-3.12c-2.23-.23-4.12.6-4.56,3.24-.06.31,0,.44.35.43C212.5,39.21,213.74,39.22,215,39.22Z"/><path class="cls-1" d="M183.3,41.85c0-2.92,0-5.85,0-8.77a.59.59,0,0,1,.5-.68,28.61,28.61,0,0,1,11-1.27,9.65,9.65,0,0,1,5.19,1.95,7,7,0,0,1,2.74,5.58c.07,4.08,0,8.17,0,12.25v0c0,.22-.07.29-.29.28-1.62,0-3.25,0-4.88,0-.34,0-.3-.2-.3-.4V40.65a8.34,8.34,0,0,0-.12-1.65,3.65,3.65,0,0,0-3.44-3,16.9,16.9,0,0,0-4.65.35c-.33.06-.32.26-.32.51,0,4.62,0,9.24,0,13.87,0,.43-.12.52-.53.51-1.48,0-2.95,0-4.43,0-.4,0-.47-.12-.47-.48C183.31,47.79,183.3,44.82,183.3,41.85Z"/><path class="cls-1" d="M70,44.35c.36-1,.69-1.88,1-2.77q1.78-4.84,3.55-9.7a.49.49,0,0,1,.53-.39c1.78,0,3.56,0,5.34,0,.3,0,.38.05.26.37Q76.8,41.39,73,50.93a.42.42,0,0,1-.46.31q-2.56,0-5.13,0a.41.41,0,0,1-.45-.31q-4-9.52-8-19c-.14-.31-.09-.4.26-.4,1.83,0,3.67,0,5.5,0a.57.57,0,0,1,.63.43c1.5,4,3,8,4.55,12A3.88,3.88,0,0,0,70,44.35Z"/><path class="cls-1" d="M149.25,40c0-3.34,0-6.68,0-10a7.33,7.33,0,0,1,1.28-4.45,6,6,0,0,1,4.27-2.41,16,16,0,0,1,5.34.32c.19,0,.26.11.26.29,0,1.4,0,2.79,0,4.18,0,.29-.15.27-.34.26a25.48,25.48,0,0,0-3-.17,3.82,3.82,0,0,0-1.34.23,1.5,1.5,0,0,0-1,1.23,15.15,15.15,0,0,0-.08,1.78c0,.3.17.29.37.29,1.34,0,2.68,0,4,0,.69,0,.6-.08.6.58,0,1.26,0,2.52,0,3.77,0,.32-.07.42-.41.42-1.39,0-2.79,0-4.18,0-.33,0-.41.1-.41.42,0,4.69,0,9.39,0,14.08,0,.41-.11.5-.51.49q-2.24,0-4.47,0c-.38,0-.44-.12-.44-.46C149.26,47.17,149.25,43.57,149.25,40Z"/></svg>