<svg id="Layer_1" data-name="Layer 1" xmlns="http://www.w3.org/2000/svg" viewBox="0 0 240 80"><defs><style>.cls-1{fill:#6789dd;}.cls-2{fill:#7289da;}</style></defs><title>brand-1</title><path class="cls-1" d="M54.15,39a2.8,2.8,0,1,0,2.59,2.79A2.69,2.69,0,0,0,54.15,39Zm-9.28,0a2.68,2.68,0,0,0-2.59,2.79,2.6,2.6,0,1,0,5.18,0A2.66,2.66,0,0,0,44.87,39Z"/><path class="cls-2" d="M66.5,17.8H32.44A5.22,5.22,0,0,0,27.23,23V57.07a5.22,5.22,0,0,0,5.21,5.21H61.26l-1.34-4.65,3.25,3,3.08,2.82,5.49,4.75V23A5.26,5.26,0,0,0,66.5,17.8ZM56.69,50.71s-.92-1.09-1.68-2a8.05,8.05,0,0,0,4.6-3,14.25,14.25,0,0,1-2.92,1.5,18,18,0,0,1-10.27,1.07,19.73,19.73,0,0,1-3.74-1.09,14.46,14.46,0,0,1-1.85-.87c-.08,0-.15-.07-.23-.13l-.1,0a7.3,7.3,0,0,1-.71-.43,8,8,0,0,0,4.44,3c-.76,1-1.7,2.08-1.7,2.08-5.61-.18-7.75-3.84-7.75-3.84a33.54,33.54,0,0,1,3.66-14.69,12.58,12.58,0,0,1,7.12-2.64l.25.3a16.75,16.75,0,0,0-6.66,3.31s.56-.31,1.5-.71a20.13,20.13,0,0,1,5.77-1.61,3.15,3.15,0,0,1,.43-.05,21.91,21.91,0,0,1,5.14,0,21.09,21.09,0,0,1,7.65,2.42A16.71,16.71,0,0,0,53.31,30l.35-.4a12.51,12.51,0,0,1,7.12,2.64A33.54,33.54,0,0,1,64.44,46.9s-2.13,3.64-7.75,3.81Zm38.38-22H86.63v9.48l5.62,5.06V34h3c1.91,0,2.85.91,2.85,2.38v7c0,1.48-.89,2.47-2.85,2.47H86.6v5.36H95c4.53,0,8.77-2.23,8.77-7.42V36.28C103.84,31,99.59,28.68,95.07,28.68Zm44.22,15.17V36.07c0-2.79,5-3.43,6.56-.63l4.65-1.88a8.37,8.37,0,0,0-7.93-5.19c-4.52,0-9,2.62-9,7.7v7.78c0,5.14,4.48,7.7,8.9,7.7a9.08,9.08,0,0,0,8.13-5.06l-5-2.28c-1.22,3.12-6.33,2.36-6.33-.36Zm-15.38-6.71c-1.75-.38-2.92-1-3-2.11.1-2.62,4.14-2.72,6.5-.2L131.16,32a9.26,9.26,0,0,0-7.7-3.61c-4.15,0-8.16,2.34-8.16,6.76s3.3,6.61,6.94,7.17c1.85.25,3.91,1,3.86,2.26-.15,2.41-5.13,2.29-7.4-.46l-3.61,3.38a9.9,9.9,0,0,0,7.68,4.09c4.14,0,8.74-2.39,8.92-6.76.26-5.51-3.76-6.91-7.78-7.65Zm-17,14.11h5.69V28.68h-5.69Zm96-22.57h-8.44v9.48l5.62,5.06V34h3c1.91,0,2.85.91,2.85,2.38v7c0,1.48-.89,2.47-2.85,2.47h-8.64v5.36h8.46c4.53,0,8.77-2.23,8.77-7.42V36.28C211.65,31,207.41,28.68,202.88,28.68Zm-41.4-.31c-4.68,0-9.33,2.54-9.33,7.75v7.71c0,5.16,4.68,7.75,9.38,7.75s9.33-2.59,9.33-7.75V36.12C170.86,30.94,166.16,28.37,161.48,28.37Zm3.66,15.46c0,1.62-1.83,2.46-3.64,2.46s-3.66-.79-3.66-2.46V36.12c0-1.65,1.78-2.54,3.56-2.54s3.74.79,3.74,2.54Zm26.15-7.71c-.12-5.28-3.73-7.42-8.39-7.42h-9V51.27h5.77V44.11h1l5.23,7.16H193l-6.15-7.75C189.59,42.66,191.29,40.29,191.29,36.12ZM183,39.17h-3.36V34H183A2.58,2.58,0,1,1,183,39.17Z"/></svg>