<?xml version="1.0" encoding="utf-8"?>
<!-- Generator: Adobe Illustrator 23.0.0, SVG Export Plug-In . SVG Version: 6.00 Build 0)  -->
<svg version="1.1" id="Layer_1" xmlns="http://www.w3.org/2000/svg" xmlns:xlink="http://www.w3.org/1999/xlink" x="0px" y="0px"
	 viewBox="0 0 50 50" style="enable-background:new 0 0 50 50;" xml:space="preserve">
<style type="text/css">
	.st0{fill:none;stroke:#4444CF;stroke-width:2;stroke-linecap:round;stroke-linejoin:round;}
	.st1{fill:none;stroke:#FD6341;stroke-width:2;stroke-linecap:round;stroke-linejoin:round;}
</style>
<title>icon-moisture</title>
<path class="st0" d="M8.2,32.4c1.7,2.3,5,2.8,7.3,1.1c0.4-0.3,0.8-0.7,1.1-1.1"/>
<path class="st0" d="M16.6,32.4c1.7,2.3,5,2.8,7.3,1.1c0.4-0.3,0.8-0.7,1.1-1.1"/>
<path class="st0" d="M25,32.4c1.7,2.3,5,2.8,7.3,1.1c0.4-0.3,0.8-0.7,1.1-1.1"/>
<path class="st0" d="M33.4,32.4c1.7,2.3,5,2.8,7.3,1.1c0.4-0.3,0.8-0.7,1.1-1.1"/>
<path class="st0" d="M33.4,32.4L33.4,32.4L33.4,32.4z"/>
<path class="st0" d="M16.6,32.4L16.6,32.4L16.6,32.4z"/>
<path class="st0" d="M25,32.4L25,32.4L25,32.4z"/>
<path class="st0" d="M8.2,39.7c1.7,2.3,5,2.8,7.3,1.1c0.4-0.3,0.8-0.7,1.1-1.1"/>
<path class="st0" d="M16.6,39.7c1.7,2.3,5,2.8,7.3,1.1c0.4-0.3,0.8-0.7,1.1-1.1"/>
<path class="st0" d="M25,39.7c1.7,2.3,5,2.8,7.3,1.1c0.4-0.3,0.8-0.7,1.1-1.1"/>
<path class="st0" d="M33.4,39.7c1.7,2.3,5,2.8,7.3,1.1c0.4-0.3,0.8-0.7,1.1-1.1"/>
<path class="st0" d="M33.4,39.7L33.4,39.7L33.4,39.7z"/>
<path class="st0" d="M16.6,39.7L16.6,39.7L16.6,39.7z"/>
<path class="st0" d="M25,39.7L25,39.7L25,39.7z"/>
<polyline class="st1" points="9.6,14.9 12.4,12.1 15.2,14.9 "/>
<line class="st1" x1="12.4" y1="12.1" x2="12.4" y2="21.3"/>
<polyline class="st1" points="18.9,22.1 21.8,19.3 24.6,22.1 "/>
<line class="st1" x1="21.8" y1="19.3" x2="21.8" y2="29.5"/>
<polyline class="st1" points="26,10.8 28.8,7.9 31.6,10.8 "/>
<line class="st1" x1="28.8" y1="7.9" x2="28.8" y2="20"/>
<line class="st1" x1="12.4" y1="24.8" x2="12.4" y2="26.8"/>
<polyline class="st1" points="36.1,18.4 39,15.6 41.8,18.4 "/>
<line class="st1" x1="39" y1="15.6" x2="39" y2="23.5"/>
<line class="st1" x1="39" y1="26.4" x2="39" y2="28.4"/>
<rect x="0" y="56.7" style="fill:none;" width="146.1" height="21.5"/>
<text transform="matrix(1 0 0 1 -3.600121e-05 65.1719)" style="font-family:'MyriadPro-Regular'; font-size:12px;">Site design by Viacheslav </text>
</svg>
