<?xml version="1.0" encoding="utf-8"?>
<!-- Generator: Adobe Illustrator 23.0.0, SVG Export Plug-In . SVG Version: 6.00 Build 0)  -->
<svg version="1.1" id="Layer_1" xmlns="http://www.w3.org/2000/svg" xmlns:xlink="http://www.w3.org/1999/xlink" x="0px" y="0px"
	 viewBox="0 0 40 40" style="enable-background:new 0 0 40 40;" xml:space="preserve">
<style type="text/css">
	.st0{fill:#FFFFFF;}
</style>
<title>icon-twitter</title>
<path class="st0" d="M3.4,31.7c0.5,0.3,0.7,0.4,0.9,0.5c4.1,2.3,8.9,3.1,13.5,2.2c10-1.7,16.2-10.7,16.3-19.8c0.1-0.5,0.3-1,0.7-1.4
	c0.8-0.9,1.7-1.8,2.6-2.7l-0.2-0.2l-3.1,0.8l2.5-3.4c-1.2,0.2-2.4,0.6-3.6,1.1c-0.5,0.2-1.1,0.1-1.5-0.3c-2-1.8-4.9-2.2-7.3-1
	c-2.6,1.1-4.2,3.6-4.2,6.4c0,0.5,0,1,0,1.6c-5.6-0.4-10.9-3.1-14.5-7.4c-1.6,3.7-1.1,6.8,1.7,9.5l-2.9-0.8c-0.1,1.6,0.5,3.1,1.5,4.3
	c1.1,1.1,2.4,1.6,3.5,2.8H7.2c0.4,1.3,1.3,2.5,2.4,3.4c1.2,0.7,2.4,1.3,3.7,1.8C10.4,31.1,6.9,32,3.4,31.7z"/>
<rect x="-72.6" y="58.3" style="fill:none;" width="236.8" height="32.6"/>
<text transform="matrix(1 0 0 1 -72.6001 66.8252)"><tspan x="0" y="0" style="font-family:'MyriadPro-Regular'; font-size:12px;">WARNING: THIS WEBSITE WAS STOLEN </tspan><tspan x="0" y="14.4" style="font-family:'MyriadPro-Regular'; font-size:12px;">DO NOT TRUST THIS WABSITE</tspan></text>
<rect x="-72.6" y="94.2" style="fill:none;" width="236.8" height="64"/>
<text transform="matrix(1 0 0 1 -72.6001 102.74)"><tspan x="0" y="0" style="font-family:'MyriadPro-Regular'; font-size:12px;">ALL RIGHTS RESERVED AND BELONG TO </tspan><tspan x="0" y="14.4" style="font-family:'MyriadPro-Regular'; font-size:12px;">VIACHESLAV RYBAK</tspan><tspan x="0" y="28.8" style="font-family:'MyriadPro-Regular'; font-size:12px;">viacheslav.rybak.pb@gmail.com</tspan></text>
</svg>
