<svg id="Layer_1" data-name="Layer 1" xmlns="http://www.w3.org/2000/svg" viewBox="0 0 40 40"><defs><style>.cls-1{fill:#fd6341;}.cls-2{fill:#dadaea;}</style></defs><title>icon-star-half</title><path class="cls-1" d="M20,3.44a1,1,0,0,0-.9.51l-4.84,9.8L3.44,15.33a1,1,0,0,0-.81.68,1,1,0,0,0,.26,1l7.83,7.63L8.87,35.44a1,1,0,0,0,.4,1,1,1,0,0,0,1.05.08L20,31.41l4.84-12.12Z"/><path class="cls-2" d="M30.14,36.61a1,1,0,0,0,.59-.19,1,1,0,0,0,.4-1L29.28,24.66,37.11,17a1,1,0,0,0,.26-1,1,1,0,0,0-.81-.68L25.74,13.75,20.9,4a1,1,0,0,0-.9-.51v28l9.68,5.09A1.11,1.11,0,0,0,30.14,36.61Z"/></svg>