<svg id="Layer_1" data-name="Layer 1" xmlns="http://www.w3.org/2000/svg" viewBox="0 0 50 50"><defs><style>.cls-1,.cls-2{fill:none;stroke-linecap:round;stroke-linejoin:round;stroke-width:2px;}.cls-1{stroke:#4444cf;}.cls-2{stroke:#fd6341;}</style></defs><title>icon-mold</title><circle class="cls-1" cx="33.93" cy="10.76" r="3.7"/><circle class="cls-1" cx="42.45" cy="16.46" r="1.89"/><circle class="cls-1" cx="39.52" cy="25.18" r="2.94"/><circle class="cls-1" cx="33.93" cy="38.06" r="2.65"/><circle class="cls-1" cx="18.01" cy="38.82" r="2.13"/><circle class="cls-1" cx="9.2" cy="25.18" r="3.55"/><circle class="cls-1" cx="18.01" cy="12.86" r="1.71"/><path class="cls-2" d="M32.85,27.68a7.8,7.8,0,0,0,0-5L35.42,20a.5.5,0,0,0,.08-.6.52.52,0,0,0-.56-.24l-3.61.9A7.72,7.72,0,0,0,27,17.57L26,14a.51.51,0,0,0-1,0l-1,3.57a7.72,7.72,0,0,0-4.32,2.5l-3.61-.9a.52.52,0,0,0-.56.24.5.5,0,0,0,.08.6l2.57,2.68a7.8,7.8,0,0,0,0,5l-2.57,2.68a.5.5,0,0,0,.48.83l3.61-.89A7.78,7.78,0,0,0,24,32.8l1,3.57a.51.51,0,0,0,1,0l1-3.57a7.78,7.78,0,0,0,4.32-2.5l3.61.89a.5.5,0,0,0,.48-.83Z"/></svg>