<?xml version="1.0" encoding="utf-8"?>
<!-- Generator: Adobe Illustrator 23.0.0, SVG Export Plug-In . SVG Version: 6.00 Build 0)  -->
<svg version="1.1" id="Layer_1" xmlns="http://www.w3.org/2000/svg" xmlns:xlink="http://www.w3.org/1999/xlink" x="0px" y="0px"
	 viewBox="0 0 50 50" style="enable-background:new 0 0 50 50;" xml:space="preserve">
<style type="text/css">
	.st0{fill:none;stroke:#4444CF;stroke-width:2;stroke-linecap:round;stroke-linejoin:round;}
	.st1{fill:none;stroke:#FD6341;stroke-width:2;stroke-linecap:round;stroke-linejoin:round;}
</style>
<title>icon-air-duct</title>
<circle class="st0" cx="5.4" cy="13.4" r="0.4"/>
<circle class="st0" cx="5.4" cy="18.4" r="0.4"/>
<circle class="st0" cx="18.9" cy="23" r="0.4"/>
<circle class="st0" cx="14.7" cy="23.6" r="0.4"/>
<circle class="st0" cx="9.9" cy="22.6" r="0.4"/>
<circle class="st0" cx="4.3" cy="23.6" r="0.4"/>
<circle class="st0" cx="6.6" cy="28.7" r="0.4"/>
<circle class="st0" cx="12.4" cy="27" r="0.4"/>
<circle class="st0" cx="3.6" cy="34" r="0.4"/>
<path class="st1" d="M35,27.3v9.3c0,2.6-2.1,4.6-4.6,4.6h-9.5c-2.6,0-4.6-2.1-4.6-4.6v-9.3"/>
<path class="st1" d="M16.2,19.2v-5.8c0-2.6,2.1-4.6,4.6-4.6h9.6c2.5,0,4.6,2.1,4.6,4.6v5.8"/>
<line class="st0" x1="28.6" y1="23.4" x2="46.1" y2="23.4"/>
<path class="st0" d="M43.7,29.8c-0.9,0-1.7,0.7-1.7,1.6c0,0,0,0,0,0c0,1.1,0.9,2.1,2.1,2.1l0,0c1.4,0,2.6-1.1,2.6-2.6
	c0-1.8-1.4-3.2-3.2-3.2h-5.2"/>
<path class="st0" d="M43.7,17.1c-0.9,0-1.7-0.7-1.7-1.6c0,0,0,0,0,0c0-1.1,0.9-2.1,2.1-2.1l0,0c1.4,0,2.6,1.1,2.6,2.6
	c0,1.8-1.4,3.2-3.2,3.2h-5.2"/>
<rect x="3.2" y="62.7" style="fill:none;" width="195" height="17.7"/>
<text transform="matrix(1 0 0 1 3.18 71.1719)" style="font-family:'MyriadPro-Regular'; font-size:12px;">Site design by Viacheslav Rybak</text>
</svg>
