<svg id="Layer_1" data-name="Layer 1" xmlns="http://www.w3.org/2000/svg" viewBox="0 0 50 50"><defs><style>.cls-1,.cls-2{fill:none;stroke-linecap:round;stroke-linejoin:round;stroke-width:2px;}.cls-1{stroke:#fd6341;}.cls-2{stroke:#4444cf;}</style></defs><title>icon-water-damage</title><polyline class="cls-1" points="25.13 17.05 23.34 21.62 26.55 22.9 25.55 25.54"/><line class="cls-1" x1="39.17" y1="29.03" x2="10.65" y2="29.03"/><polyline class="cls-1" points="10.65 25.03 10.65 17.05 39.17 17.05 39.17 25.03"/><path class="cls-1" d="M10.65,28.32a3.21,3.21,0,0,1-3.2,3.21h0"/><path class="cls-1" d="M7.45,15h0a3.2,3.2,0,0,1,3.2,3.2"/><path class="cls-1" d="M39.17,28.32a3.21,3.21,0,0,0,3.21,3.21h0"/><path class="cls-1" d="M42.38,15h0a3.21,3.21,0,0,0-3.21,3.2"/><path class="cls-2" d="M28.34,39.61a3.43,3.43,0,0,1-6.85,0c0-2.5,3.42-5.75,3.42-5.75S28.34,37.13,28.34,39.61Z"/><line class="cls-2" x1="24.91" y1="8.29" x2="24.91" y2="11.61"/><line class="cls-2" x1="18.09" y1="10.44" x2="20.45" y2="12.79"/><line class="cls-2" x1="31.73" y1="10.44" x2="29.38" y2="12.79"/></svg>