<svg id="Layer_1" data-name="Layer 1" xmlns="http://www.w3.org/2000/svg" viewBox="0 0 50 50"><defs><style>.cls-1,.cls-2{fill:none;stroke-linecap:round;stroke-linejoin:round;stroke-width:2px;}.cls-1{stroke:#2e3192;}.cls-2{stroke:#f68630;}</style></defs><title>icon-air-duct</title><circle class="cls-1" cx="5.45" cy="13.35" r="0.38"/><circle class="cls-1" cx="5.45" cy="18.43" r="0.38"/><circle class="cls-1" cx="18.94" cy="22.96" r="0.38"/><circle class="cls-1" cx="14.74" cy="23.6" r="0.38"/><circle class="cls-1" cx="9.93" cy="22.59" r="0.38"/><circle class="cls-1" cx="4.31" cy="23.6" r="0.38"/><circle class="cls-1" cx="6.62" cy="28.74" r="0.38"/><circle class="cls-1" cx="12.37" cy="26.96" r="0.38"/><circle class="cls-1" cx="3.56" cy="34.03" r="0.38"/><path class="cls-2" d="M35,27.34v9.27a4.65,4.65,0,0,1-4.65,4.64H20.83a4.65,4.65,0,0,1-4.65-4.64V27.34"/><path class="cls-2" d="M16.18,19.22V13.39a4.65,4.65,0,0,1,4.65-4.64h9.56A4.65,4.65,0,0,1,35,13.39v5.83"/><line class="cls-1" x1="28.59" y1="23.41" x2="46.07" y2="23.41"/><path class="cls-1" d="M43.69,29.75A1.65,1.65,0,0,0,42,31.4a2.06,2.06,0,0,0,2.06,2.06,2.58,2.58,0,0,0,2.58-2.57,3.23,3.23,0,0,0-3.22-3.23H38.22"/><path class="cls-1" d="M43.69,17.06A1.65,1.65,0,0,1,42,15.41a2.06,2.06,0,0,1,2.06-2.06,2.58,2.58,0,0,1,2.58,2.57,3.23,3.23,0,0,1-3.22,3.23H38.22"/></svg>