<svg id="Layer_1" data-name="Layer 1" xmlns="http://www.w3.org/2000/svg" viewBox="0 0 40 40"><defs><style>.cls-1{fill:#fff;}</style></defs><title>icon-instagram</title><path class="cls-1" d="M20,3.73c-4.42,0-5,0-6.71.09a12.06,12.06,0,0,0-3.95.76A7.92,7.92,0,0,0,6.46,6.46,7.92,7.92,0,0,0,4.58,9.34a12,12,0,0,0-.76,3.95C3.75,15,3.73,15.58,3.73,20s0,5,.09,6.71a12.06,12.06,0,0,0,.76,3.95,7.92,7.92,0,0,0,1.88,2.88,7.92,7.92,0,0,0,2.88,1.88,12,12,0,0,0,3.95.76c1.74.07,2.29.09,6.71.09s5,0,6.71-.09a12.06,12.06,0,0,0,3.95-.76,8.36,8.36,0,0,0,4.76-4.76,12.32,12.32,0,0,0,.76-3.95c.07-1.74.09-2.29.09-6.71s0-5-.09-6.71a12.27,12.27,0,0,0-.76-3.95,7.92,7.92,0,0,0-1.88-2.88,7.92,7.92,0,0,0-2.88-1.88,12.06,12.06,0,0,0-3.95-.76C25,3.75,24.42,3.73,20,3.73ZM18.6,7.22H20c4.16,0,4.66,0,6.3.09a8.68,8.68,0,0,1,2.89.54A4.68,4.68,0,0,1,31,9a4.68,4.68,0,0,1,1.17,1.79,8.68,8.68,0,0,1,.54,2.89c.07,1.64.09,2.14.09,6.3s0,4.65-.09,6.29a8.62,8.62,0,0,1-.54,2.89,5.22,5.22,0,0,1-3,3,8.68,8.68,0,0,1-2.89.54c-1.64.07-2.14.09-6.3.09s-4.65,0-6.3-.09a8.74,8.74,0,0,1-2.89-.54A4.68,4.68,0,0,1,9,31a4.8,4.8,0,0,1-1.17-1.79,8.49,8.49,0,0,1-.53-2.89c-.08-1.64-.09-2.14-.09-6.3s0-4.65.09-6.29a8.83,8.83,0,0,1,.53-2.9A4.84,4.84,0,0,1,9,9a4.78,4.78,0,0,1,1.79-1.16,8.48,8.48,0,0,1,2.89-.54c1.44-.07,2-.09,4.9-.09Zm9.91,2.15a2.13,2.13,0,1,0,2.13,2.12,2.12,2.12,0,0,0-2.13-2.12ZM20,11.51A8.49,8.49,0,1,0,28.49,20,8.49,8.49,0,0,0,20,11.51ZM20,15a5,5,0,1,1-5,5A5,5,0,0,1,20,15Z"/></svg>