<?xml version="1.0" encoding="utf-8"?>
<!-- Generator: Adobe Illustrator 23.0.0, SVG Export Plug-In . SVG Version: 6.00 Build 0)  -->
<svg version="1.1" id="Layer_1" xmlns="http://www.w3.org/2000/svg" xmlns:xlink="http://www.w3.org/1999/xlink" x="0px" y="0px"
	 viewBox="0 0 50 50" style="enable-background:new 0 0 50 50;" xml:space="preserve">
<style type="text/css">
	.st0{fill:#F68630;}
	.st1{fill:#FFB361;}
	.st2{fill:#FFA04A;}
</style>
<title>icon-virus</title>
<path class="st0" d="M50,22.9c0.2,2.3-1.4,4.4-3.7,4.7c-1.7,0.2-3.3-0.8-4-2.3l-2,0.2l-1.5,0.7c-0.3,0.2-0.6,0.5-0.6,0.9
	c-0.1,1-0.4,2-0.8,3c-0.1,0.3-0.1,0.7,0.1,1L38,32l1.5,1c1.4-0.5,3,0.2,3.5,1.6c0.5,1.4-0.2,3-1.6,3.5c-0.8,0.3-1.6,0.2-2.3-0.2
	c-0.7-0.4-1.2-1.2-1.3-2l-1.7-1.1L35,34.7c-0.4,0-0.7,0.1-1,0.3c-0.9,0.9-1.9,1.6-3,2.2c-0.4,0.2-0.6,0.6-0.6,1l-0.1,2.1l0.7,2.6
	c1.8,0.5,2.8,2.4,2.3,4.2c-0.5,1.8-2.4,2.8-4.2,2.3c-1.8-0.5-2.8-2.4-2.3-4.2c0.2-0.6,0.5-1.1,0.9-1.5L27,41.1l-1-1.7
	c-0.3-0.4-0.8-0.7-1.3-0.7l0,0c-0.9,0-1.8-0.1-2.7-0.3c-0.5-0.1-1,0.1-1.4,0.4l-1.4,1.4l-1.5,3.2c0.7,1.4,0.1,3-1.2,3.7
	s-3,0.1-3.7-1.2s-0.1-3,1.2-3.7c0.2-0.1,0.4-0.2,0.6-0.2l1.5-3.2l0.3-2.1c0-0.4-0.1-0.8-0.4-1c-1.2-1-2.3-2.2-3.1-3.6
	c-0.2-0.4-0.6-0.6-1-0.5H9.9l-2.3,0.7c-0.2,2.1-2.1,3.6-4.2,3.4s-3.6-2.1-3.4-4.2s2.1-3.6,4.2-3.4c0.8,0.1,1.6,0.5,2.2,1l2.5-0.8
	l1.8-1.3c0.3-0.2,0.4-0.5,0.4-0.8c0-0.4,0-0.7,0-1.1c0-2,0.4-3.9,1.2-5.7c0.1-0.3,0.1-0.5,0-0.8l-0.5-1.1l-1.5-1.1
	c-1.4,0.4-3-0.4-3.4-1.8c-0.4-1.4,0.4-3,1.8-3.4c0.8-0.2,1.6-0.1,2.3,0.3c0.7,0.5,1.1,1.2,1.2,2l1.6,1.2l1.6,0.3
	c1.2-1.1,2.6-2,4.1-2.6l0.4-2.3l-0.5-2.4C18,7.6,16.8,6.4,16.5,5c-0.4-2.1,0.9-4.1,3-4.5c0,0,0.1,0,0.1,0c2.1-0.5,4.3,0.9,4.8,3
	c0.3,1.5-0.4,3.1-1.7,3.9l0.5,2.3l1.1,1.8c0.1,0.1,0.2,0.2,0.3,0.2l0,0c2.5,0,4.9,0.7,7,1.9c0.1,0.1,0.3,0.1,0.4,0l1.8-0.8l2-2.2
	C35.5,9,36.6,7.7,38,7.4c0.9-0.1,1.8,0.2,2.4,0.8c1,1.1,1,2.8-0.1,3.8c-0.6,0.5-1.3,0.8-2.1,0.7l-2,2.2l-0.7,1.8
	c-0.1,0.1-0.1,0.3,0,0.4c0.8,1.1,1.5,2.3,1.9,3.7c0.1,0.4,0.4,0.6,0.8,0.8l1.7,0.5l2.2-0.2c0.5-1.6,1.9-2.7,3.5-2.9
	c2.2-0.2,4.2,1.5,4.4,3.7C50,22.8,50,22.9,50,22.9z"/>
<circle class="st1" cx="24.6" cy="25.2" r="10.1"/>
<path class="st2" d="M17.7,25.2c0-5,3.6-9.2,8.5-9.9c-0.5-0.1-1-0.1-1.5-0.1c-5.6,0.2-9.9,4.8-9.7,10.4c0.2,5.3,4.4,9.6,9.7,9.7
	c0.5,0,1,0,1.5-0.1C21.3,34.4,17.7,30.1,17.7,25.2z"/>
<circle class="st0" cx="7.7" cy="4" r="2.9"/>
<circle class="st0" cx="6.9" cy="41.8" r="1.9"/>
<circle class="st0" cx="41.7" cy="44.9" r="2.8"/>
<circle class="st0" cx="21.6" cy="22.4" r="2.6"/>
<circle class="st0" cx="23.6" cy="30.5" r="1.8"/>
<circle class="st0" cx="29.2" cy="25.2" r="1.5"/>
<rect x="-90.6" y="61.3" style="fill:none;" width="236.8" height="32.6"/>
<text transform="matrix(1 0 0 1 -90.6001 69.8252)"><tspan x="0" y="0" style="font-family:'MyriadPro-Regular'; font-size:12px;">WARNING: THIS WEBSITE WAS STOLEN </tspan><tspan x="0" y="14.4" style="font-family:'MyriadPro-Regular'; font-size:12px;">DO NOT TRUST THIS WABSITE</tspan></text>
</svg>
