<svg id="Layer_1" data-name="Layer 1" xmlns="http://www.w3.org/2000/svg" viewBox="0 0 50 50"><defs><style>.cls-1,.cls-2,.cls-4{fill:none;stroke-linecap:round;stroke-linejoin:round;stroke-width:2px;}.cls-1{stroke:#2e3192;}.cls-2{stroke:#4444cf;}.cls-3{fill:#2e3192;}.cls-4{stroke:#f68630;}</style></defs><title>icon-moisture</title><path class="cls-1" d="M8.2,32.42a5.21,5.21,0,0,0,8.37,0"/><path class="cls-1" d="M16.6,32.42a5.21,5.21,0,0,0,8.37,0"/><path class="cls-1" d="M25,32.42a5.2,5.2,0,0,0,8.36,0"/><path class="cls-1" d="M33.4,32.42a5.2,5.2,0,0,0,8.36,0"/><path class="cls-2" d="M33.36,32.42h0l0,0Z"/><path class="cls-2" d="M16.57,32.42h0l0,0Z"/><path class="cls-2" d="M25,32.42h0l0,0Z"/><path class="cls-1" d="M8.2,39.66a5.21,5.21,0,0,0,8.37,0"/><path class="cls-1" d="M16.6,39.66a5.21,5.21,0,0,0,8.37,0"/><path class="cls-1" d="M25,39.66a5.2,5.2,0,0,0,8.36,0"/><path class="cls-1" d="M33.4,39.66a5.2,5.2,0,0,0,8.36,0"/><path class="cls-3" d="M33.38,39.64l0,0h0l0,0Z"/><path class="cls-3" d="M16.58,39.64v0h0l0,0Z"/><path class="cls-3" d="M25,39.64v0h0l0,0Z"/><polyline class="cls-4" points="9.57 14.88 12.38 12.06 15.2 14.88"/><line class="cls-4" x1="12.38" y1="12.06" x2="12.38" y2="21.3"/><polyline class="cls-4" points="18.93 22.08 21.75 19.26 24.56 22.08"/><line class="cls-4" x1="21.75" y1="19.26" x2="21.75" y2="29.5"/><polyline class="cls-4" points="26.02 10.76 28.84 7.94 31.65 10.76"/><line class="cls-4" x1="28.84" y1="7.94" x2="28.84" y2="20.02"/><line class="cls-4" x1="12.38" y1="24.82" x2="12.38" y2="26.8"/><polyline class="cls-4" points="36.13 18.43 38.95 15.62 41.76 18.43"/><line class="cls-4" x1="38.95" y1="15.62" x2="38.95" y2="23.53"/><line class="cls-4" x1="38.95" y1="26.39" x2="38.95" y2="28.37"/></svg>