<svg id="Layer_1" data-name="Layer 1" xmlns="http://www.w3.org/2000/svg" viewBox="0 0 50 50"><defs><style>.cls-1,.cls-3{fill:none;stroke-linecap:round;stroke-linejoin:round;stroke-width:2px;}.cls-1{stroke:#2e3192;}.cls-2{fill:#2e3192;}.cls-3{stroke:#f68630;}</style></defs><title>icon-mold</title><circle class="cls-1" cx="33.93" cy="10.76" r="3.7"/><path class="cls-2" d="M42.45,14.56a1.9,1.9,0,1,0,1.9,1.9,1.9,1.9,0,0,0-1.9-1.9Z"/><path class="cls-2" d="M39.52,24.25a.94.94,0,1,1-.94.93.93.93,0,0,1,.94-.93m0-2a2.94,2.94,0,1,0,2.93,2.93,2.93,2.93,0,0,0-2.93-2.93Z"/><path class="cls-2" d="M33.93,37.41a.65.65,0,1,1,0,1.3.65.65,0,1,1,0-1.3m0-2a2.65,2.65,0,1,0,2.65,2.65,2.65,2.65,0,0,0-2.65-2.65Z"/><path class="cls-2" d="M18,38.69a.13.13,0,0,1,.13.13.13.13,0,0,1-.26,0,.13.13,0,0,1,.13-.13m0-2a2.13,2.13,0,1,0,2.13,2.13A2.13,2.13,0,0,0,18,36.69Z"/><circle class="cls-1" cx="9.2" cy="25.18" r="3.55"/><circle class="cls-1" cx="18.01" cy="12.86" r="1.71"/><path class="cls-3" d="M32.85,27.68a7.8,7.8,0,0,0,0-5L35.42,20a.5.5,0,0,0,.08-.6.52.52,0,0,0-.56-.24l-3.61.9A7.72,7.72,0,0,0,27,17.57L26,14a.51.51,0,0,0-1,0l-1,3.57a7.72,7.72,0,0,0-4.32,2.5l-3.61-.9a.52.52,0,0,0-.56.24.5.5,0,0,0,.08.6l2.57,2.68a7.8,7.8,0,0,0,0,5l-2.57,2.68a.5.5,0,0,0,.48.83l3.61-.89A7.78,7.78,0,0,0,24,32.8l1,3.57a.51.51,0,0,0,1,0l1-3.57a7.78,7.78,0,0,0,4.32-2.5l3.61.89a.5.5,0,0,0,.48-.83Z"/></svg>