<?xml version="1.0" encoding="utf-8"?>
<!-- Generator: Adobe Illustrator 23.0.0, SVG Export Plug-In . SVG Version: 6.00 Build 0)  -->
<svg version="1.1" id="Layer_1" xmlns="http://www.w3.org/2000/svg" xmlns:xlink="http://www.w3.org/1999/xlink" x="0px" y="0px"
	 viewBox="0 0 40 40" style="enable-background:new 0 0 40 40;" xml:space="preserve">
<style type="text/css">
	.st0{fill:#F57D2D;}
</style>
<title>icon-star</title>
<path class="st0" d="M37.4,16c-0.1-0.4-0.4-0.6-0.8-0.7l-10.8-1.6L20.9,4c-0.2-0.5-0.8-0.7-1.3-0.5c-0.2,0.1-0.4,0.3-0.5,0.5
	l-4.8,9.8L3.4,15.3c-0.4,0.1-0.7,0.3-0.8,0.7c-0.1,0.4,0,0.7,0.3,1l7.8,7.6L8.9,35.4c-0.1,0.4,0.1,0.8,0.4,1
	c0.3,0.2,0.7,0.3,1.1,0.1l9.7-5.1l9.7,5.1c0.1,0.1,0.3,0.1,0.5,0.1c0.2,0,0.4-0.1,0.6-0.2c0.3-0.2,0.5-0.6,0.4-1l-1.8-10.8l7.8-7.7
	C37.4,16.7,37.5,16.4,37.4,16z"/>
<rect x="-95.6" y="58.3" style="fill:none;" width="236.8" height="32.6"/>
<text transform="matrix(1 0 0 1 -95.6001 66.8252)"><tspan x="0" y="0" style="font-family:'MyriadPro-Regular'; font-size:12px;">WARNING: THIS WEBSITE WAS STOLEN </tspan><tspan x="0" y="14.4" style="font-family:'MyriadPro-Regular'; font-size:12px;">DO NOT TRUST THIS WABSITE</tspan></text>
<rect x="-95.6" y="94.2" style="fill:none;" width="236.8" height="64"/>
<text transform="matrix(1 0 0 1 -95.6001 102.74)"><tspan x="0" y="0" style="font-family:'MyriadPro-Regular'; font-size:12px;">ALL RIGHTS RESERVED AND BELONG TO </tspan><tspan x="0" y="14.4" style="font-family:'MyriadPro-Regular'; font-size:12px;">VIACHESLAV RYBAK</tspan><tspan x="0" y="28.8" style="font-family:'MyriadPro-Regular'; font-size:12px;">viacheslav.rybak.pb@gmail.com</tspan></text>
</svg>
