<svg id="Layer_1" data-name="Layer 1" xmlns="http://www.w3.org/2000/svg" viewBox="0 0 40 40"><defs><style>.cls-1{fill:#fff;}</style></defs><title>icon-twitter</title><path class="cls-1" d="M3.4,31.73c.46.3.65.44.86.55A20,20,0,0,0,17.8,34.5c10-1.73,16.18-10.72,16.31-19.77a2.5,2.5,0,0,1,.68-1.4c.82-.94,1.73-1.81,2.61-2.7l-.19-.2-3.09.83,2.49-3.38A17.81,17.81,0,0,0,33,8.94a1.38,1.38,0,0,1-1.54-.32,6.6,6.6,0,0,0-7.3-1A6.73,6.73,0,0,0,20,14c0,.52,0,1,0,1.61A20.56,20.56,0,0,1,5.53,8.2c-1.6,3.71-1.1,6.76,1.7,9.46l-2.9-.78a5.86,5.86,0,0,0,1.55,4.25C7,22.2,8.25,22.72,9.39,23.93H7.16a6.69,6.69,0,0,0,2.4,3.37,28.7,28.7,0,0,0,3.66,1.75A14.54,14.54,0,0,1,3.4,31.73Z"/></svg>