<?xml version="1.0" encoding="utf-8"?>
<!-- Generator: Adobe Illustrator 23.0.0, SVG Export Plug-In . SVG Version: 6.00 Build 0)  -->
<svg version="1.1" id="Layer_1" xmlns="http://www.w3.org/2000/svg" xmlns:xlink="http://www.w3.org/1999/xlink" x="0px" y="0px"
	 viewBox="0 0 143 32" style="enable-background:new 0 0 143 32;" xml:space="preserve">
<style type="text/css">
	.st0{fill:#FD6341;}
	.st1{fill:#FFFFFF;}
</style>
<g>
	<path class="st0" d="M31.6,0.8C12.1,3-0.4,11.6,0,19.4c0.4,8.4,12,14.8,34.5,11.9c0.1,0,2.3-0.7,2.4-0.7C20.4,31.4,6.9,27,6.4,20.2
		C5.7,13.1,19.3,6,34.6,4.5c16.1-1.6,31-1.7,48.1,1.1h2.1C72.1,1.6,52.7-1.6,31.6,0.8z"/>
	<g>
		<path class="st1" d="M39.5,8.6c-0.9-0.5-1.9-0.7-3.2-0.7h-5.5h-0.4l-0.1,0.4L27,26.7v0.6h0.6H30h0.4l0.1-0.4l1.2-6.8h3.1
			c0.4,1.1,0.8,2.1,1.2,3.2c0.4,1.2,0.7,2.4,1,3.6l0.1,0.4h0.4H40h0.7l-0.2-0.6c-0.6-2.5-1.4-4.9-2.4-7.2c0.9-0.4,1.6-0.9,2.1-1.6
			c0.7-0.8,1.1-1.8,1.3-2.9l0.2-1.2c0.2-1.1,0.1-2.2-0.3-3.1C41.1,9.8,40.4,9.1,39.5,8.6z M38.1,14.7c-0.1,0.7-0.4,1.2-1,1.6
			c-0.5,0.4-1.2,0.6-2,0.6h-2.8l1-5.9h3c0.8,0,1.3,0.2,1.7,0.6c0.4,0.4,0.5,1.1,0.3,1.9L38.1,14.7z"/>
		<path class="st1" d="M60.6,13.4c-0.6-0.1-1.2-0.2-1.8-0.2c-1.1,0-2.1,0.2-2.8,0.6c-0.8,0.4-1.3,0.9-1.7,1.6
			c-0.4,0.7-0.5,1.4-0.5,2.3s0.2,1.7,0.7,2.3c0.4,0.6,1.1,1.1,1.9,1.4l1.4,0.6c0.5,0.2,0.7,0.4,0.8,0.5s0.2,0.3,0.2,0.5
			c0,0.4-0.1,0.7-0.4,0.9c-0.3,0.2-0.8,0.4-1.6,0.4c-0.5,0-0.9-0.1-1.4-0.2c-0.4-0.1-1-0.3-1.6-0.6l-0.5-0.2L53,23.9l-0.8,2L52,26.3
			l0.4,0.2c0.8,0.4,1.5,0.6,2.1,0.8c0.7,0.2,1.4,0.2,2.1,0.2c1.2,0,2.3-0.2,3.1-0.6s1.4-1,1.8-1.7c0.4-0.7,0.5-1.4,0.5-2.2
			c0-1-0.2-1.8-0.7-2.4c-0.4-0.6-1.1-1.1-1.9-1.4L58,18.6c-0.5-0.2-0.7-0.4-0.8-0.5S57,17.8,57,17.6c0-0.4,0-1.1,1.6-1.1
			c0.4,0,0.7,0.1,1.1,0.2c0.4,0.1,0.8,0.3,1.4,0.5l0.5,0.2l0.2-0.5l0.8-2l0.2-0.5l-0.4-0.2C61.8,13.8,61.2,13.6,60.6,13.4z"/>
		<polygon class="st1" points="73.8,16.6 73.9,16.2 74.3,14 74.4,13.4 73.8,13.4 64.3,13.4 63.9,13.4 63.8,13.8 63.4,16 63.3,16.6 
			63.9,16.6 66.9,16.6 65.1,26.7 65,27.3 65.6,27.3 67.9,27.3 68.3,27.3 68.4,26.9 70.2,16.6 73.4,16.6 		"/>
		<path class="st1" d="M82.8,14c-0.8-0.5-1.7-0.8-2.9-0.8c-1.7,0-3.1,0.5-4.1,1.6c-1,1-1.6,2.5-1.9,4.3l-0.4,2.3
			c-0.2,1.1-0.1,2.2,0.2,3.1c0.3,0.9,0.9,1.7,1.7,2.2c0.8,0.5,1.7,0.8,2.9,0.8c1.7,0,3.1-0.5,4-1.6c0.9-1,1.6-2.5,1.9-4.3l0.4-2.3
			c0.2-1.1,0.1-2.2-0.2-3.1C84.1,15.3,83.5,14.5,82.8,14z M80.9,21.4c-0.2,1-0.5,1.7-0.9,2.2s-0.9,0.7-1.6,0.7
			c-0.9,0-1.2-0.4-1.3-0.6c-0.3-0.5-0.3-1.2-0.2-2.1l0.4-2.3c0.2-0.9,0.5-1.7,0.9-2.2s0.9-0.7,1.6-0.7c0.9,0,1.2,0.4,1.3,0.6
			c0.3,0.5,0.3,1.2,0.2,2.1L80.9,21.4z"/>
		<path class="st1" d="M94.7,14c-0.7-0.4-1.5-0.6-2.5-0.6h-4.1h-0.4l-0.1,0.4l-2.3,12.9l-0.1,0.6h0.6h2.3h0.4l0.1-0.4l0.8-4.3h1.4
			c0.5,1.4,1,2.9,1.3,4.3l0.1,0.4h0.4h2.5h0.6l-0.2-0.6c-0.4-1.6-0.9-3.2-1.5-4.8c1.2-0.6,1.9-1.7,2.2-3.2l0.2-0.9
			c0.2-0.8,0.1-1.6-0.2-2.3C95.9,14.9,95.4,14.4,94.7,14z M92.9,18.4c-0.1,0.3-0.2,0.5-0.5,0.7s-0.6,0.3-1,0.3H90l0.5-3h1.6
			c0.4,0,0.7,0.1,0.8,0.3c0.1,0.2,0.2,0.5,0.1,0.9L92.9,18.4z"/>
		<path class="st1" d="M107.8,14.6c-0.7-0.8-1.8-1.3-3.3-1.3h-4h-0.4l-0.1,0.4l-2.3,12.9l-0.1,0.6h0.6h2.3h0.4l0.1-0.4l0.7-3.9h1.8
			c1.5,0,2.6-0.4,3.4-1.1s1.3-1.7,1.5-2.9l0.2-1.1C108.8,16.6,108.6,15.5,107.8,14.6z M104.7,19.5c-0.3,0.2-0.6,0.3-1.1,0.3h-1.4
			l0.6-3.2h1.5c0.4,0,0.7,0.1,0.8,0.3c0.2,0.2,0.2,0.5,0.1,0.9l-0.2,1C105.1,19.1,104.9,19.3,104.7,19.5z"/>
		<path class="st1" d="M118.1,14c-0.7-0.4-1.5-0.6-2.5-0.6h-4.1h-0.4l-0.1,0.4l-2.3,12.9l-0.1,0.6h0.6h2.3h0.4l0.1-0.4l0.8-4.3h1.4
			c0.5,1.4,1,2.9,1.3,4.3l0.1,0.4h0.4h2.5h0.6l-0.2-0.6c-0.4-1.6-0.9-3.2-1.5-4.8c1.2-0.6,1.9-1.7,2.2-3.2l0.2-0.9
			c0.2-0.8,0.1-1.6-0.2-2.3C119.2,14.9,118.8,14.4,118.1,14z M116.2,18.4c-0.1,0.3-0.2,0.5-0.5,0.7s-0.6,0.3-1,0.3h-1.4l0.5-3h1.6
			c0.4,0,0.7,0.1,0.8,0.3c0.1,0.2,0.2,0.5,0.1,0.9L116.2,18.4z"/>
		<path class="st1" d="M131.7,16.2c-0.3-0.9-0.9-1.7-1.7-2.2s-1.7-0.8-2.9-0.8c-1.7,0-3.1,0.5-4.1,1.6c-1,1-1.6,2.5-1.9,4.3
			l-0.4,2.3c-0.2,1.1-0.1,2.2,0.2,3.1c0.3,0.9,0.9,1.7,1.7,2.2c0.8,0.5,1.7,0.8,2.9,0.8c1.7,0,3.1-0.5,4-1.6c0.9-1,1.6-2.5,1.9-4.3
			l0.4-2.3C132.1,18.1,132,17.1,131.7,16.2z M128.1,21.4c-0.2,1-0.5,1.7-0.9,2.2s-0.9,0.7-1.6,0.7c-0.9,0-1.2-0.4-1.3-0.6
			c-0.3-0.5-0.3-1.2-0.2-2.1l0.4-2.3c0.2-0.9,0.5-1.7,0.9-2.2s0.9-0.7,1.6-0.7c0.9,0,1.2,0.4,1.3,0.6c0.3,0.5,0.3,1.2,0.2,2.1
			L128.1,21.4z"/>
		<path class="st1" d="M138.3,16.3c0.4,0,0.7,0.1,1.1,0.2c0.4,0.1,0.8,0.3,1.4,0.5l0.5,0.2l0.2-0.5l0.8-2l0.2-0.5l-0.4-0.2
			c-0.6-0.3-1.3-0.5-1.8-0.7c-0.6-0.1-1.2-0.2-1.8-0.2c-1.1,0-2.1,0.2-2.8,0.6c-0.8,0.4-1.3,0.9-1.7,1.6c-0.4,0.7-0.5,1.4-0.5,2.3
			s0.2,1.7,0.7,2.3c0.4,0.6,1.1,1.1,1.9,1.4l1.4,0.6c0.5,0.2,0.7,0.4,0.8,0.5s0.2,0.3,0.2,0.5c0,0.4-0.1,0.7-0.4,0.9
			c-0.3,0.2-0.8,0.4-1.6,0.4c-0.5,0-0.9-0.1-1.4-0.2c-0.4-0.1-1-0.3-1.6-0.6l-0.5-0.2l-0.2,0.5l-0.8,2l-0.2,0.4l0.4,0.2
			c0.8,0.4,1.5,0.6,2.1,0.8c0.7,0.2,1.4,0.2,2.1,0.2c1.2,0,2.3-0.2,3.1-0.6s1.4-1,1.8-1.7c0.4-0.7,0.5-1.4,0.5-2.2
			c0-1-0.2-1.8-0.7-2.4c-0.4-0.6-1.1-1.1-1.9-1.4l-1.4-0.6c-0.5-0.2-0.7-0.4-0.8-0.5s-0.2-0.3-0.2-0.5
			C136.7,17.1,136.7,16.3,138.3,16.3z"/>
		<polygon class="st1" points="51.8,16.6 52.3,16.6 52.4,16.2 52.7,14 52.8,13.4 52.2,13.4 44.9,13.4 44.5,13.4 44.4,13.8 
			42.2,26.7 42.1,27.3 42.7,27.3 50.1,27.3 50.6,27.3 50.6,26.9 51,24.7 51.1,24.1 50.5,24.1 45.9,24.1 46.3,21.9 50.3,21.9 
			50.8,21.9 50.9,21.4 51.2,19.2 51.3,18.7 50.7,18.7 46.9,18.7 47.3,16.6 		"/>
	</g>
</g>
</svg>
