<svg id="Layer_1" data-name="Layer 1" xmlns="http://www.w3.org/2000/svg" xmlns:xlink="http://www.w3.org/1999/xlink" viewBox="0 0 280 132"><defs><style>.cls-1{fill:#fff;}.cls-2{fill:url(#radial-gradient);}.cls-3{fill:url(#radial-gradient-2);}.cls-4{fill:url(#radial-gradient-3);}.cls-5{fill:url(#radial-gradient-4);}.cls-6{fill:url(#radial-gradient-5);}.cls-7{fill:url(#radial-gradient-6);}.cls-8{fill:url(#radial-gradient-7);}.cls-9{fill:url(#radial-gradient-8);}.cls-10{fill:url(#radial-gradient-9);}.cls-11{fill:url(#radial-gradient-10);}</style><radialGradient id="radial-gradient" cx="47.09" cy="5.97" r="42.11" gradientUnits="userSpaceOnUse"><stop offset="0" stop-color="#ff1c24"/><stop offset="1" stop-color="#a71c24"/></radialGradient><radialGradient id="radial-gradient-2" cx="38.52" cy="37.11" r="30.26" gradientUnits="userSpaceOnUse"><stop offset="0" stop-color="#fbb03b"/><stop offset="1" stop-color="#f15a24"/></radialGradient><radialGradient id="radial-gradient-3" cx="37.76" cy="-9.66" r="48.45" gradientUnits="userSpaceOnUse"><stop offset="0" stop-color="aqua"/><stop offset="1" stop-color="#29abe2"/></radialGradient><radialGradient id="radial-gradient-4" cx="14.86" cy="36.46" r="28.97" gradientUnits="userSpaceOnUse"><stop offset="0" stop-color="#8cc63f"/><stop offset="1" stop-color="#399f4a"/></radialGradient><radialGradient id="radial-gradient-5" cx="79.14" cy="74.99" r="9.82" gradientUnits="userSpaceOnUse"><stop offset="0" stop-color="#333"/><stop offset="1" stop-color="#ccc" stop-opacity="0"/></radialGradient><radialGradient id="radial-gradient-6" cx="99.97" cy="71.96" r="13.52" xlink:href="#radial-gradient-5"/><radialGradient id="radial-gradient-7" cx="145.01" cy="71.96" r="13.52" xlink:href="#radial-gradient-5"/><radialGradient id="radial-gradient-8" cx="137.41" cy="64.93" r="18.93" xlink:href="#radial-gradient-5"/><radialGradient id="radial-gradient-9" cx="183.8" cy="76.95" r="13.02" xlink:href="#radial-gradient-5"/><radialGradient id="radial-gradient-10" cx="170.97" cy="62.57" r="18.92" xlink:href="#radial-gradient-5"/></defs><title>logo-inverse</title><path class="cls-1" d="M99.39,121.47l-2.32-8.3h1.16l1.9,6.83,2-6.83h1.12l2,6.83,1.9-6.83h1.09l-2.31,8.3h-1.28l-2-6.65-2,6.65Z"/><path class="cls-1" d="M113.6,115.54h1v5.93h-1v-1a2.51,2.51,0,0,1-2.24,1.17,2.82,2.82,0,0,1-2.12-.91,3.2,3.2,0,0,1,0-4.41,2.82,2.82,0,0,1,2.12-.91,2.51,2.51,0,0,1,2.24,1.17Zm-2.11,5.09A2.08,2.08,0,1,0,110,120,2,2,0,0,0,111.49,120.63Z"/><path class="cls-1" d="M119.42,116.54h-1.58v3.21a.92.92,0,0,0,.17.62.71.71,0,0,0,.53.19c.24,0,.53,0,.88,0v.93a3.07,3.07,0,0,1-2-.22,1.65,1.65,0,0,1-.63-1.5v-3.21h-1.17v-1h1.17v-1.35l1-.31v1.66h1.58Z"/><path class="cls-1" d="M121.06,119a1.94,1.94,0,0,0,.73,1.23,2.29,2.29,0,0,0,1.42.44,1.84,1.84,0,0,0,1.7-.87l.88.5a2.91,2.91,0,0,1-2.61,1.34,3.09,3.09,0,0,1-2.29-.88,3,3,0,0,1-.88-2.23,3.08,3.08,0,0,1,.86-2.23,3,3,0,0,1,2.24-.89,2.74,2.74,0,0,1,2.13.92,3.19,3.19,0,0,1,.82,2.21,3.67,3.67,0,0,1,0,.46Zm2-2.62a2,2,0,0,0-1.37.47,2,2,0,0,0-.68,1.25h4a2,2,0,0,0-.66-1.28A1.93,1.93,0,0,0,123.11,116.36Z"/><path class="cls-1" d="M128.28,116.54a1.84,1.84,0,0,1,1.84-1.1v1.07a1.91,1.91,0,0,0-1.3.41,1.71,1.71,0,0,0-.54,1.41v3.14h-1v-5.93h1Z"/><path class="cls-1" d="M134.2,123.84v-10.9h1v10.9Z"/><path class="cls-1" d="M144.74,114.22h-3.67v2.69h3.52v1h-3.52v3.52H140v-8.3h4.77Z"/><path class="cls-1" d="M146.5,114.47a.7.7,0,0,1-.7-.69.68.68,0,0,1,.2-.49.66.66,0,0,1,.5-.21.63.63,0,0,1,.48.21.64.64,0,0,1,.2.49.62.62,0,0,1-.2.48A.63.63,0,0,1,146.5,114.47Zm-.52,7v-5.93h1v5.93Z"/><path class="cls-1" d="M149.61,116.54a1.85,1.85,0,0,1,1.85-1.1v1.07a1.9,1.9,0,0,0-1.3.41,1.68,1.68,0,0,0-.55,1.41v3.14h-1v-5.93h1Z"/><path class="cls-1" d="M152.87,119a1.94,1.94,0,0,0,.73,1.23,2.26,2.26,0,0,0,1.41.44,1.84,1.84,0,0,0,1.71-.87l.88.5a2.91,2.91,0,0,1-2.61,1.34,3.09,3.09,0,0,1-2.29-.88,3.11,3.11,0,0,1,2.22-5.35,2.74,2.74,0,0,1,2.13.92,3.19,3.19,0,0,1,.82,2.21,2.45,2.45,0,0,1,0,.46Zm2-2.62a2,2,0,0,0-1.37.47,2,2,0,0,0-.68,1.25h4a2,2,0,0,0-.67-1.28A1.9,1.9,0,0,0,154.92,116.36Z"/><path class="cls-1" d="M162.12,123.84v-10.9h1v10.9Z"/><path class="cls-1" d="M175.65,113.17v8.3h-1.09V115l-2.71,4.51h-.14L169,115v6.49h-1.1v-8.3h1.25l2.65,4.41,2.63-4.41Z"/><path class="cls-1" d="M182.32,120.72a3,3,0,0,1-2.21.9,3.12,3.12,0,1,1,0-6.23,3,3,0,0,1,2.21.9,3.15,3.15,0,0,1,0,4.43Zm-2.21-.11a2.11,2.11,0,1,0,0-4.21,2.11,2.11,0,1,0,0,4.21Z"/><path class="cls-1" d="M184.45,121.47v-8.65h1v8.65Z"/><path class="cls-1" d="M192,113.17h1v8.3h-1v-1a2.51,2.51,0,0,1-2.23,1.17,2.85,2.85,0,0,1-2.13-.91,3.23,3.23,0,0,1,0-4.41,2.85,2.85,0,0,1,2.13-.91,2.51,2.51,0,0,1,2.23,1.17Zm-2.1,7.46a2,2,0,0,0,1.5-.61,2.21,2.21,0,0,0,0-3,2.15,2.15,0,0,0-3,0,2.21,2.21,0,0,0,0,3A2.06,2.06,0,0,0,189.86,120.63Z"/><path class="cls-1" d="M197.63,123.84v-10.9h1v10.9Z"/><path class="cls-1" d="M208.14,117.17a2.2,2.2,0,0,1,.9.78,2,2,0,0,1,.34,1.17,2.22,2.22,0,0,1-.7,1.67,2.37,2.37,0,0,1-1.71.68H203.4v-8.3h3.31a2.27,2.27,0,0,1,1.65.66,2.14,2.14,0,0,1,.68,1.61A2,2,0,0,1,208.14,117.17Zm-1.43-3H204.5v2.54h2.21a1.16,1.16,0,0,0,.88-.37,1.22,1.22,0,0,0,.36-.9,1.2,1.2,0,0,0-.37-.89A1.17,1.17,0,0,0,206.71,114.2Zm.26,6.24a1.24,1.24,0,0,0,.94-.39,1.37,1.37,0,0,0,.38-1,1.28,1.28,0,0,0-.39-1,1.24,1.24,0,0,0-.93-.39H204.5v2.69Z"/><path class="cls-1" d="M211.1,114.47a.7.7,0,0,1-.7-.69.68.68,0,0,1,.2-.49.66.66,0,0,1,.5-.21.63.63,0,0,1,.48.21.64.64,0,0,1,.2.49.62.62,0,0,1-.2.48A.63.63,0,0,1,211.1,114.47Zm-.52,7v-5.93h1v5.93Z"/><path class="cls-1" d="M218.18,120.72a3,3,0,0,1-2.21.9,3.12,3.12,0,1,1,0-6.23,3,3,0,0,1,2.21.9,3.15,3.15,0,0,1,0,4.43Zm-2.21-.11a2.11,2.11,0,1,0,0-4.21,2.11,2.11,0,1,0,0,4.21Z"/><path class="cls-1" d="M223.26,115.39a2.18,2.18,0,0,1,1.67.66,2.47,2.47,0,0,1,.63,1.78v3.64h-1v-3.58a1.53,1.53,0,0,0-.39-1.12,1.46,1.46,0,0,0-1.08-.4,1.66,1.66,0,0,0-1.24.48,2,2,0,0,0-.48,1.48v3.14h-1v-8.3h1v3.23A2.1,2.1,0,0,1,223.26,115.39Z"/><path class="cls-1" d="M231.9,115.54h1v5.93h-1v-1a2.51,2.51,0,0,1-2.24,1.17,2.82,2.82,0,0,1-2.12-.91,3.2,3.2,0,0,1,0-4.41,2.82,2.82,0,0,1,2.12-.91,2.51,2.51,0,0,1,2.24,1.17Zm-2.11,5.09a2.13,2.13,0,1,0,0-4.25,2,2,0,0,0-1.49.61,2.19,2.19,0,0,0,0,3A2,2,0,0,0,229.79,120.63Z"/><path class="cls-1" d="M235.67,120.48h3.16v1h-4.56v-.7l3-4.24h-2.9v-1h4.31v.68Z"/><path class="cls-1" d="M244.61,115.54h1v5.93h-1v-1a2.51,2.51,0,0,1-2.24,1.17,2.83,2.83,0,0,1-2.12-.91,3.2,3.2,0,0,1,0-4.41,2.83,2.83,0,0,1,2.12-.91,2.51,2.51,0,0,1,2.24,1.17Zm-2.11,5.09a2.13,2.13,0,1,0,0-4.25A2,2,0,0,0,241,117a2.21,2.21,0,0,0,0,3A2,2,0,0,0,242.5,120.63Z"/><path class="cls-1" d="M248.24,116.54a1.84,1.84,0,0,1,1.84-1.1v1.07a1.9,1.9,0,0,0-1.3.41,1.71,1.71,0,0,0-.54,1.41v3.14h-1v-5.93h1Z"/><path class="cls-1" d="M255.68,113.17h1v8.3h-1v-1a2.52,2.52,0,0,1-2.24,1.17,2.82,2.82,0,0,1-2.12-.91,3.2,3.2,0,0,1,0-4.41,2.82,2.82,0,0,1,2.12-.91,2.52,2.52,0,0,1,2.24,1.17Zm-2.11,7.46a2.13,2.13,0,1,0,0-4.25,2.13,2.13,0,1,0,0,4.25Z"/><path class="cls-2" d="M39.44,35.85H66.2A28.63,28.63,0,0,0,39.44,9.09Z"/><path class="cls-3" d="M43,60.72a6.55,6.55,0,0,1,4.74,2A8.18,8.18,0,0,1,48.75,64,28.64,28.64,0,0,0,66.2,39.46H39.44v22A8.75,8.75,0,0,1,43,60.72Z"/><path class="cls-4" d="M35.83,35.85V9.09A28.62,28.62,0,0,0,9.07,35.85Z"/><path class="cls-5" d="M35.83,39.46H9.07A28.62,28.62,0,0,0,35.83,66.22Z"/><path class="cls-1" d="M29.43,22.13c-.44-.54-.89-1.08-1.31-1.64l-3.57-4.73L21,20.48c-.43.57-.88,1.11-1.32,1.65a6.3,6.3,0,1,0,9.77,0ZM24.55,31a4.85,4.85,0,0,1-4.85-4.85.46.46,0,1,1,.91,0A3.93,3.93,0,0,0,24.55,30a.46.46,0,0,1,0,.92Z"/><path class="cls-1" d="M54.16,22.61c-1.16-1.32-.67-3.85-.67-3.85-2.92,2.72-1.09,7-1.09,7-1.78-1.65-.75-3.51-.93-5.07-.43-4-3-5.1-3-5.1.46.58.63,3.06-.69,5.16A6.49,6.49,0,0,0,46.78,25a2.3,2.3,0,0,1-.37-2.42,2.66,2.66,0,0,0-.87-2.71c.4,2.85-1.55,2-1.55,6.62A5.38,5.38,0,0,0,47.85,32s-1.88-.47,1.77-7.93C53.26,31.54,51.39,32,51.39,32h.17C56.66,30.71,56.28,25,54.16,22.61Z"/><path class="cls-1" d="M26.36,54.63c.08.27.14.55.24.81s.35.75.48,1.14a1,1,0,0,1-.66,1.23.94.94,0,0,1-1-.26.89.89,0,0,1-.26-1,4.93,4.93,0,0,0,.18-2.19c0-.3-.17-.48-.41-.53a.51.51,0,0,0-.58.33,4.41,4.41,0,0,0-.48,1.66.93.93,0,0,1-.67.89.89.89,0,0,1-.62-1.65.84.84,0,0,0,.54-1.17,4.29,4.29,0,0,0-.23-.63c-.08-.19-.26-.21-.37,0a1.8,1.8,0,0,0-.25.5.57.57,0,0,1-1.11,0,.59.59,0,0,1,.33-.66,2.22,2.22,0,0,0,.45-.36.39.39,0,0,0-.18-.64,1,1,0,0,0-.83,0,6.3,6.3,0,0,0-2.05,1.23.65.65,0,0,1-.78.07.67.67,0,0,1-.31-.7.63.63,0,0,1,.6-.52,3.17,3.17,0,0,0,2.26-1,3,3,0,0,0,.48-.71.25.25,0,0,0-.22-.38,2,2,0,0,0-.69.09.59.59,0,0,1-.69-.17.66.66,0,0,1,.08-.77.55.55,0,0,1,.76,0l.07,0c.48.45.78.29,1.06-.22a1.64,1.64,0,0,0,0-1.59,2.78,2.78,0,0,0-1-1.12,7.25,7.25,0,0,0-1.95-.81A.65.65,0,0,1,18,44.8a.63.63,0,0,1,.59-.58.82.82,0,0,1,.51.17,17.43,17.43,0,0,0,3.22,2.16.93.93,0,0,0,1.12-.09,1.08,1.08,0,0,0,.39-1.18,4.41,4.41,0,0,0-.32-.78c-.13-.28-.29-.55-.41-.83a1,1,0,0,1,1.44-1.2A.94.94,0,0,1,25,43.55,4.76,4.76,0,0,0,25,45.8a.49.49,0,0,0,.41.44.51.51,0,0,0,.56-.31,4.75,4.75,0,0,0,.42-1.82A.88.88,0,0,1,28.12,44a.87.87,0,0,1-.44.9.82.82,0,0,0-.48,1.16,5,5,0,0,0,.26.64c.1.19.28.21.39,0a2.31,2.31,0,0,0,.22-.51.58.58,0,0,1,.54-.47.56.56,0,0,1,.56.41.58.58,0,0,1-.28.66,2.12,2.12,0,0,0-.45.4.38.38,0,0,0,.21.62,1.15,1.15,0,0,0,.87-.07,6.54,6.54,0,0,0,2-1.33.63.63,0,0,1,.79-.09.68.68,0,0,1,.31.72.66.66,0,0,1-.62.51,3.13,3.13,0,0,0-2.53,1.72c-.18.33,0,.55.34.53a1.57,1.57,0,0,0,.47-.13.61.61,0,0,1,.75.12.6.6,0,0,1,.07.67.61.61,0,0,1-.89.17,1.55,1.55,0,0,0-.58-.24c-.29-.06-.47.17-.39.46a1.25,1.25,0,0,0,.48.71,5.75,5.75,0,0,0,2.17,1.08,1,1,0,1,1-1.1,1.4,3.68,3.68,0,0,0-.92-1.15,1.92,1.92,0,0,0-1.61-.39.43.43,0,0,0-.29.21c0,.08.07.24.15.3a1.35,1.35,0,0,0,.47.22.79.79,0,0,1,.62.88.78.78,0,0,1-.8.66.79.79,0,0,1-.75-.76,1.14,1.14,0,0,0-.16-.48.34.34,0,0,0-.54-.06,1.27,1.27,0,0,0-.51,1.13Zm1-3a.94.94,0,0,0,.94-1,.93.93,0,0,0-1.86,0A.94.94,0,0,0,27.34,51.68Zm-2.59-2.76a.79.79,0,0,0,.75.76.78.78,0,0,0,.77-.77.76.76,0,0,0-1.52,0Zm.76,3.68a.51.51,0,0,0,.5-.51.5.5,0,0,0-.5-.5.5.5,0,0,0-.5.5A.5.5,0,0,0,25.51,52.6Zm-2.13-2.26a.5.5,0,0,0,.47-.42.49.49,0,0,0-.45-.51.48.48,0,0,0-.49.42A.46.46,0,0,0,23.38,50.34Zm0,1a.47.47,0,0,0-.48.45.47.47,0,0,0,.93,0A.47.47,0,0,0,23.39,51.34Zm.4-2.93a.38.38,0,1,0-.37-.39A.37.37,0,0,0,23.79,48.41Zm3.3,0a.25.25,0,0,0,.26-.24.24.24,0,0,0-.24-.26.24.24,0,0,0-.26.24C26.84,48.31,26.94,48.39,27.09,48.41Z"/><path class="cls-1" d="M52.13,50.53l-.31-.19s0-.07,0-.1a1.05,1.05,0,0,0-.56-1,.12.12,0,0,1-.07-.12c0-.11,0-.25,0-.33s.2-.05.3-.08a3.41,3.41,0,0,0,1.73-5.65c-.11-.12-.2-.24-.3-.36l.23-.22a4.79,4.79,0,0,1,2,2.23,4.67,4.67,0,0,1,.31,2.64c0,.09,0,.13.1.16a4.73,4.73,0,0,1,3.1,4.22.76.76,0,0,0,0,.15c0,.17,0,.17-.16.21l-.19.05a3.43,3.43,0,0,0-6.13-1.6Z"/><path class="cls-1" d="M49.35,50.53a3.43,3.43,0,0,0-6.13,1.6l-.31-.08a.13.13,0,0,1,0-.09,4.91,4.91,0,0,1,.51-2.13A4.64,4.64,0,0,1,46,47.5a.11.11,0,0,0,.08-.14A4.69,4.69,0,0,1,48.3,42.5l.06,0,.23.22c-.1.13-.2.25-.31.37a3.42,3.42,0,0,0,1.95,5.7c.07,0,.11,0,.1.1s0,0,0,0a.43.43,0,0,1-.22.46,1,1,0,0,0-.41.92s0,.07,0,.09Z"/><path class="cls-1" d="M56.05,55.78c0,.1.05.2.07.3a.11.11,0,0,1,0,.08,4.53,4.53,0,0,1-1.71.52,4.69,4.69,0,0,1-3.56-1.09l0,0h0a4.79,4.79,0,0,1-5.41.59c0-.07,0-.13,0-.19s0-.11,0-.17a3.43,3.43,0,0,0,4.3-4.6l0,0,.32-.2a1.07,1.07,0,0,0,.54.22,1.05,1.05,0,0,0,.69-.17.11.11,0,0,1,.14,0l.29.18a3.43,3.43,0,0,0,4.3,4.6Z"/><path class="cls-1" d="M52.07,53.7a3.84,3.84,0,0,0,2.42-4.15h.61c.29,0,.29,0,.31.32a4.7,4.7,0,0,1-2.82,4.58.12.12,0,0,1-.1,0A2.66,2.66,0,0,1,52.07,53.7Z"/><path class="cls-1" d="M53.13,47.22a3.81,3.81,0,0,0-4.78,0l-.06-.08L48,46.52c0-.07,0-.11,0-.16a4.68,4.68,0,0,1,5.49,0,.13.13,0,0,1,.05.18A3.65,3.65,0,0,1,53.13,47.22Z"/><path class="cls-1" d="M49,54.47a4.63,4.63,0,0,1-2.87-4.77c0-.09,0-.12.12-.13a2.91,2.91,0,0,1,.78,0,3.85,3.85,0,0,0,2.42,4.13A3.16,3.16,0,0,1,49,54.47Z"/><path class="cls-1" d="M82.73,121.22A8.16,8.16,0,0,1,77.82,124c-2.83.26-9.16-4.75-16-.88,0,0,4.29-4.72,3.61-9.75a16.41,16.41,0,0,1-3.84,2.82,37.74,37.74,0,0,0,5.86-9.4c1.73-4.63-2.59-11.76-4.1-16.13s.48-17.47.48-17.47S68.45,72,70,68s6-9.42,6-9.42.33-11.38-.82-16.78a2,2,0,0,0,.47-1.55c-.28-2.54,0-3.95-.44-4.95-.54-1.33-1-.83-1-.83s.78,1.31.45,1.5-.45-.93-1-2.21S72.8,33,72.8,33s1.08,3.16,1.08,3.16.08.71-.42-.21S72,32.06,71.51,32.35s1.73,3.93,1.59,5.14S71.74,34.86,71,34.21s-.48.21-.48.21c1,3,2.42,6.63.12,5.58s-2.15,0-2.15,0,.72-.64,2.52,1.65l.06.07a2.46,2.46,0,0,0,1.06.76c-.59,3-2.63,11.44-2.48,14.51,0,0-15.81,7.68-17.9,14.13,0,0-3.62.15-3.6-2.58s-2.7-8.25-8.94-4.78c-3.93,2.18-2.7,6.5.28,9.55v2h2.58a9.26,9.26,0,0,0,3.79,1.32s1.1,3.11-1.26,3.12c-5.41-2.57-14.85.82-14.85.82C27.44,75.92,22,70.8,19.85,68.89a2.48,2.48,0,0,0,.28-1.58s0-.06,0-.09c-.51-3,.5-3.06.5-3.06s-.74-.87-1.53,1.61-2.59-1.11-4.21-4c0,0-.51-.76-.5.22s2.11,4.61,1.08,3.86-2.27-5-2.85-4.8,1.06,3,1.42,4-.13.46-.13.46-1.61-2.87-1.67-3c0,0-.7-.27-.05,1.19s1.36,2.19,1,2.31-.84-1.39-.84-1.39-.67,0,0,1.3c.48,1,1.74,1.81,3.51,3.81a2.06,2.06,0,0,0,1.3.7c1.42,2.64,5.42,10,7.06,12.29,2,2.8,6,3,9.47,4s11.24,2.61,11.24,2.61a13.85,13.85,0,0,0,3.8,4.78S33.63,97.3,30.2,101.61s-1.54,6,2.65,10.89,9.49,10.7,9.49,10.7-3.44,1.83-4.43,3.54-3.72,1.5-3.72,1.5a4.12,4.12,0,0,0,5.23.92c3.1-1.72,6.66-2.89,9.22-2.23,0,0,.44-2.26-2.74-5.28s-2.13-12.37-10.78-14.45c4.3.82,21.12,3.57,27.62-2.62a15.64,15.64,0,0,1-9.1,6.36s-2,17.18,6,18.73,16.82-1.35,20.51-2.3,6.4,1,9,3.9A18.75,18.75,0,0,0,82.73,121.22Z"/><path class="cls-1" d="M72.05,30.76l-.16-.05a1.57,1.57,0,0,1-1-1.12,34.13,34.13,0,1,0-60,29.14,1.61,1.61,0,0,1-2.53,2A37.34,37.34,0,1,1,74,28.93,1.54,1.54,0,0,1,72.05,30.76Z"/><path class="cls-1" d="M86.48,62.79a6.69,6.69,0,0,1,4.88,1.95,6.81,6.81,0,0,1,0,9.6,6.7,6.7,0,0,1-4.88,2H82.94v6.6H79V62.79Zm0,9.8a2.73,2.73,0,0,0,2.09-.88,3.24,3.24,0,0,0,0-4.35,2.75,2.75,0,0,0-2.09-.86H82.94v6.09Z"/><path class="cls-1" d="M111.46,62.79h4V82.9h-4Z"/><path class="cls-1" d="M136.08,80.28a10.49,10.49,0,0,1-14.81-14.86,10.49,10.49,0,0,1,14.81,14.86Zm-12-2.71a6.49,6.49,0,0,0,11.12-4.72,6.42,6.42,0,0,0-1.86-4.74,6.67,6.67,0,0,0-9.26,0,6.94,6.94,0,0,0,0,9.46Z"/><path class="cls-1" d="M156.39,62.79h4V82.9h-4Z"/><path class="cls-1" d="M176.83,62.79,179,66.58h-7V82.9h-4V66.58h-5.41V62.79Z"/><path class="cls-1" d="M211.36,62.79v1.9h-6.18V82.9h-2V64.69H197v-1.9Z"/><path class="cls-1" d="M214.23,62.79h2V82.9h-2Z"/><path class="cls-1" d="M233.48,62.79v1.9h-6.17V82.9h-2V64.69h-6.17v-1.9Z"/><path class="cls-1" d="M272.73,83.25A8.35,8.35,0,0,1,268,81.94a6.79,6.79,0,0,1-2.75-3.6l1.73-1a5.24,5.24,0,0,0,2,2.92,6.31,6.31,0,0,0,3.76,1,5.41,5.41,0,0,0,3.49-1,3.16,3.16,0,0,0,1.25-2.63,2.71,2.71,0,0,0-1.15-2.38,15.22,15.22,0,0,0-3.79-1.67A22.57,22.57,0,0,1,268.42,72a4.4,4.4,0,0,1-2.29-4,5,5,0,0,1,1.78-4,6.66,6.66,0,0,1,4.39-1.48,6.84,6.84,0,0,1,4.08,1.23,7.36,7.36,0,0,1,2.56,3.11l-1.69,1a5,5,0,0,0-4.95-3.33,4.68,4.68,0,0,0-3,.92,3.07,3.07,0,0,0-1.15,2.56,2.59,2.59,0,0,0,1,2.24,13.14,13.14,0,0,0,3.42,1.52l1.57.53c.31.11.77.28,1.38.52a9,9,0,0,1,1.33.63,12.44,12.44,0,0,1,1.05.75,3.24,3.24,0,0,1,.89,1,5.67,5.67,0,0,1,.49,1.15,4.84,4.84,0,0,1,.22,1.45,5,5,0,0,1-1.87,4.09A7.49,7.49,0,0,1,272.73,83.25Z"/><path class="cls-1" d="M94.76,66.5h6.57a2.53,2.53,0,0,1,1.93.86,3,3,0,0,1,.8,2.1,3,3,0,0,1-.8,2.11,2.54,2.54,0,0,1-1.93.87h-3.1l3,5.23,3,5.23h4.28l-4.45-7.58a6.69,6.69,0,0,0,2.81-2.4A6.11,6.11,0,0,0,108,69.46a6.67,6.67,0,0,0-6.7-6.67H92.61Z"/><polygon class="cls-1" points="185.75 62.79 181.37 71.16 180.13 68.77 175.88 68.77 179.4 75.06 179.4 82.91 183.34 82.91 183.34 75.06 190.23 62.79 185.75 62.79"/><polygon class="cls-1" points="242.71 62.79 240.64 62.79 232.91 82.91 235.04 82.91 241.67 65.31 248.31 82.91 250.44 82.91 242.71 62.79"/><polygon class="cls-1" points="260.09 62.79 260.09 79.13 248.91 62.79 247.16 62.79 247.16 67.81 249.17 73.05 249.17 66.53 260.38 82.91 262.1 82.91 262.1 62.79 260.09 62.79"/><path class="cls-6" d="M82.94,76.3v6.6H79V79.76a3.46,3.46,0,0,1,3.46-3.46Z"/><path class="cls-7" d="M104.15,75.32s-4,.46-1.91,4l2.08,3.56h4.28Z"/><path class="cls-1" d="M139.8,66.5h6.57a2.5,2.5,0,0,1,1.92.86,2.94,2.94,0,0,1,.81,2.1,3,3,0,0,1-.81,2.11,2.51,2.51,0,0,1-1.92.87h-3.1l3,5.23,3.05,5.23h4.28l-4.45-7.58a6.75,6.75,0,0,0,2.81-2.4,6.1,6.1,0,0,0,1.06-3.46,6.66,6.66,0,0,0-6.69-6.67h-8.73Z"/><path class="cls-8" d="M149.19,75.32s-4,.46-1.91,4l2.08,3.56h4.28Z"/><path class="cls-9" d="M128.67,66.24a6.28,6.28,0,0,1,4.63,1.87,6.94,6.94,0,0,1,0,9.46,6.31,6.31,0,0,1-4.63,1.86,6.42,6.42,0,0,1-3.81-1.17l-.88,4a10.27,10.27,0,0,0,4.69,1.07,10.11,10.11,0,0,0,7.41-3,10,10,0,0,0,2.51-4C137.64,65,128.67,66.24,128.67,66.24Z"/><polygon class="cls-10" points="181.37 71.16 179.4 75.06 175.88 68.77 180.13 68.77 181.37 71.16"/><path class="cls-11" d="M172,70v13h-4V66.58h.6A3.36,3.36,0,0,1,172,70Z"/><path class="cls-1" d="M125.88,106.1l-2.82-4.83H121v4.83h-2.74V92.18h5.57a4.61,4.61,0,0,1,4.63,4.61,4.26,4.26,0,0,1-.73,2.4,4.63,4.63,0,0,1-1.95,1.66l3.08,5.25ZM121,94.74v4.12h2.83a1.72,1.72,0,0,0,1.33-.61,2.08,2.08,0,0,0,.56-1.46,2.06,2.06,0,0,0-.56-1.45,1.74,1.74,0,0,0-1.33-.6Z"/><path class="cls-1" d="M145.75,106.38a6.19,6.19,0,0,1-3.48-.93,5,5,0,0,1-2-2.51l2.35-1.37a3.13,3.13,0,0,0,3.2,2.12,2.8,2.8,0,0,0,1.69-.41,1.29,1.29,0,0,0,.54-1.06,1.27,1.27,0,0,0-.66-1.14,10.15,10.15,0,0,0-2.34-.89,15.11,15.11,0,0,1-1.59-.55,7.17,7.17,0,0,1-1.29-.75,3,3,0,0,1-1-1.18,3.85,3.85,0,0,1-.34-1.68,3.74,3.74,0,0,1,1.34-3,4.87,4.87,0,0,1,3.23-1.12,5.4,5.4,0,0,1,3,.82,5.62,5.62,0,0,1,2,2.3l-2.31,1.33a2.79,2.79,0,0,0-2.67-1.79,2.1,2.1,0,0,0-1.34.39,1.24,1.24,0,0,0-.49,1,1.28,1.28,0,0,0,.55,1.06,7.63,7.63,0,0,0,2.1.88l1,.31.9.34A5.57,5.57,0,0,1,149,99a6.08,6.08,0,0,1,.7.54,2.57,2.57,0,0,1,.61.69,3.93,3.93,0,0,1,.36.87,3.85,3.85,0,0,1,.15,1.1,3.74,3.74,0,0,1-1.41,3.07A5.64,5.64,0,0,1,145.75,106.38Z"/><path class="cls-1" d="M161.31,92.18V94.8h-3.76v11.3H154.8V94.8h-3.74V92.18Z"/><path class="cls-1" d="M173.76,104.28a7.32,7.32,0,1,1,2.11-5.14A7,7,0,0,1,173.76,104.28Zm-8.33-1.87a4.5,4.5,0,0,0,7.7-3.27,4.41,4.41,0,0,0-1.3-3.28,4.59,4.59,0,0,0-6.4,0,4.78,4.78,0,0,0,0,6.55Z"/><path class="cls-1" d="M185.44,106.1l-2.81-4.83h-2.08v4.83H177.8V92.18h5.57A4.63,4.63,0,0,1,188,96.79a4.27,4.27,0,0,1-.74,2.4,4.63,4.63,0,0,1-2,1.66l3.09,5.25Zm-4.89-11.36v4.12h2.82a1.76,1.76,0,0,0,1.34-.61,2.07,2.07,0,0,0,.55-1.46,2,2,0,0,0-.55-1.45,1.78,1.78,0,0,0-1.34-.6Z"/><path class="cls-1" d="M199.17,106.1l-.89-2.51h-5.72l-.83,2.51h-3l4.88-13.92H197L202,106.1ZM193.46,101h3.92l-2-5.69Z"/><path class="cls-1" d="M211.5,92.18V94.8h-3.76v11.3H205V94.8h-3.74V92.18Z"/><path class="cls-1" d="M213,92.18h2.75V106.1H213Z"/><path class="cls-1" d="M237.51,92.18h2.74V106.1h-2.09l-6-8.51v1.55h-2.74v-7h2.08l6,8.48Z"/><path class="cls-1" d="M230.08,94a8.31,8.31,0,0,0-.63-.57v5.71a4.5,4.5,0,1,1-9,0,4.45,4.45,0,0,1,1.3-3.28,4.32,4.32,0,0,1,3.2-1.3,4.38,4.38,0,0,1,2.65.83v-.8A2.66,2.66,0,0,0,225,91.9h0a7.19,7.19,0,1,0,5.13,2.1Z"/><polygon class="cls-1" points="133.2 94.8 138.47 94.8 138.97 94.8 138.97 92.17 130.45 92.17 130.45 94.8 133.2 94.8"/><polygon class="cls-1" points="133.2 103.47 133.2 100.35 138.47 100.35 138.47 97.77 133.2 97.77 130.45 97.77 130.45 106.1 139.07 106.1 139.07 103.47 133.2 103.47"/><path class="cls-1" d="M278.59,100.06h-21a.93.93,0,0,1,0-1.85h21a.93.93,0,1,1,0,1.85Z"/><path class="cls-1" d="M100.86,100.06h-21a.93.93,0,0,1,0-1.85h21a.93.93,0,1,1,0,1.85Z"/></svg>