<svg id="Layer_1" data-name="Layer 1" xmlns="http://www.w3.org/2000/svg" xmlns:xlink="http://www.w3.org/1999/xlink" viewBox="0 0 280 132"><defs><style>.cls-1{fill:#2e3192;}.cls-2{fill:url(#radial-gradient);}.cls-3{fill:url(#radial-gradient-2);}.cls-4{fill:url(#radial-gradient-3);}.cls-5{fill:url(#radial-gradient-4);}.cls-6{fill:#fff;}.cls-7{fill:url(#radial-gradient-5);}.cls-8{fill:url(#radial-gradient-6);}.cls-9{fill:url(#radial-gradient-7);}.cls-10{fill:url(#radial-gradient-8);}.cls-11{fill:url(#radial-gradient-9);}.cls-12{fill:url(#radial-gradient-10);}</style><radialGradient id="radial-gradient" cx="46.96" cy="5.78" r="42.15" gradientUnits="userSpaceOnUse"><stop offset="0" stop-color="#ff1c24"/><stop offset="1" stop-color="#a71c24"/></radialGradient><radialGradient id="radial-gradient-2" cx="38.38" cy="36.95" r="30.28" gradientUnits="userSpaceOnUse"><stop offset="0" stop-color="#fbb03b"/><stop offset="1" stop-color="#f15a24"/></radialGradient><radialGradient id="radial-gradient-3" cx="37.62" cy="-9.86" r="48.49" gradientUnits="userSpaceOnUse"><stop offset="0" stop-color="aqua"/><stop offset="1" stop-color="#29abe2"/></radialGradient><radialGradient id="radial-gradient-4" cx="14.7" cy="36.3" r="29" gradientUnits="userSpaceOnUse"><stop offset="0" stop-color="#8cc63f"/><stop offset="1" stop-color="#399f4a"/></radialGradient><radialGradient id="radial-gradient-5" cx="79.03" cy="74.86" r="9.83" gradientUnits="userSpaceOnUse"><stop offset="0" stop-color="#1b1447"/><stop offset="1" stop-color="#1b1464" stop-opacity="0"/></radialGradient><radialGradient id="radial-gradient-6" cx="99.88" cy="71.83" r="13.53" xlink:href="#radial-gradient-5"/><radialGradient id="radial-gradient-7" cx="144.96" cy="71.83" r="13.53" xlink:href="#radial-gradient-5"/><radialGradient id="radial-gradient-8" cx="137.35" cy="64.79" r="18.95" xlink:href="#radial-gradient-5"/><radialGradient id="radial-gradient-9" cx="183.78" cy="76.82" r="13.03" xlink:href="#radial-gradient-5"/><radialGradient id="radial-gradient-10" cx="170.94" cy="62.43" r="18.94" xlink:href="#radial-gradient-5"/></defs><title>logo</title><path class="cls-1" d="M99.3,121.37,97,113.08h1.16l1.9,6.82,2-6.82h1.11l2,6.83,1.89-6.83h1.1l-2.32,8.29h-1.28l-2-6.64-2,6.64Z"/><path class="cls-1" d="M113.52,115.45h1v5.92h-1v-1a2.51,2.51,0,0,1-2.24,1.17,2.82,2.82,0,0,1-2.12-.91,3.22,3.22,0,0,1,0-4.42,2.82,2.82,0,0,1,2.12-.91,2.5,2.5,0,0,1,2.24,1.18Zm-2.11,5.08a2.07,2.07,0,0,0,2.11-2.12,2.07,2.07,0,0,0-.6-1.51,2,2,0,0,0-1.51-.61,2,2,0,0,0-1.49.61,2.17,2.17,0,0,0,0,3A2,2,0,0,0,111.41,120.53Z"/><path class="cls-1" d="M119.34,116.44h-1.57v3.22a.87.87,0,0,0,.17.62.74.74,0,0,0,.53.19c.23,0,.53,0,.87,0v.92a3.09,3.09,0,0,1-2-.21,1.64,1.64,0,0,1-.62-1.5v-3.22h-1.18v-1h1.18V114.1l1-.31v1.66h1.57Z"/><path class="cls-1" d="M121,118.88a2,2,0,0,0,.73,1.24,2.29,2.29,0,0,0,1.42.44,1.84,1.84,0,0,0,1.7-.87l.88.5a2.89,2.89,0,0,1-2.61,1.34,3.13,3.13,0,0,1-2.29-.88,3.12,3.12,0,0,1,2.22-5.36,2.74,2.74,0,0,1,2.13.92,3.19,3.19,0,0,1,.82,2.21,3.55,3.55,0,0,1,0,.46Zm2.05-2.61A2,2,0,0,0,121,118h4a2,2,0,0,0-.66-1.28A1.92,1.92,0,0,0,123,116.27Z"/><path class="cls-1" d="M128.21,116.44a1.87,1.87,0,0,1,1.85-1.1v1.08a1.84,1.84,0,0,0-1.3.4,1.68,1.68,0,0,0-.55,1.41v3.14h-1v-5.92h1Z"/><path class="cls-1" d="M134.14,123.75V112.84h1v10.91Z"/><path class="cls-1" d="M144.69,114.12H141v2.69h3.52v1H141v3.52h-1.11v-8.29h4.78Z"/><path class="cls-1" d="M146.45,114.37a.69.69,0,0,1-.5-.2.7.7,0,0,1,.5-1.19.63.63,0,0,1,.48.21.69.69,0,0,1-.48,1.18Zm-.53,7v-5.92h1v5.92Z"/><path class="cls-1" d="M149.56,116.44a1.87,1.87,0,0,1,1.85-1.1v1.08a1.84,1.84,0,0,0-1.3.4,1.71,1.71,0,0,0-.55,1.41v3.14h-1v-5.92h1Z"/><path class="cls-1" d="M152.82,118.88a2,2,0,0,0,.73,1.24,2.31,2.31,0,0,0,1.42.44,1.86,1.86,0,0,0,1.71-.87l.88.5a2.91,2.91,0,0,1-2.61,1.34,3.15,3.15,0,0,1-2.3-.88,3.29,3.29,0,0,1,0-4.47,3,3,0,0,1,2.24-.89,2.71,2.71,0,0,1,2.12.92,3.19,3.19,0,0,1,.83,2.21,2.38,2.38,0,0,1,0,.46Zm2.06-2.61a2,2,0,0,0-1.38.46,2.09,2.09,0,0,0-.68,1.25h4a2,2,0,0,0-.67-1.28A1.89,1.89,0,0,0,154.88,116.27Z"/><path class="cls-1" d="M162.08,123.75V112.84h1v10.91Z"/><path class="cls-1" d="M175.62,113.08v8.29h-1.09v-6.48l-2.71,4.52h-.14L169,114.88v6.49h-1.1v-8.29h1.24l2.66,4.4,2.63-4.4Z"/><path class="cls-1" d="M182.3,120.63a3.12,3.12,0,1,1,0-4.44,3.16,3.16,0,0,1,0,4.44Zm-2.22-.11a2.05,2.05,0,0,0,1.5-.6,2.07,2.07,0,0,0,.6-1.51,2.07,2.07,0,0,0-2.1-2.11,2,2,0,0,0-1.48.61,2,2,0,0,0-.6,1.5,2.07,2.07,0,0,0,.6,1.51A2,2,0,0,0,180.08,120.52Z"/><path class="cls-1" d="M184.43,121.37v-8.65h1v8.65Z"/><path class="cls-1" d="M192,113.08h1v8.29h-1v-1a2.51,2.51,0,0,1-2.24,1.17,2.82,2.82,0,0,1-2.12-.91,3.22,3.22,0,0,1,0-4.42,2.82,2.82,0,0,1,2.12-.91,2.5,2.5,0,0,1,2.24,1.18Zm-2.11,7.45a2.07,2.07,0,0,0,2.11-2.12,2.07,2.07,0,0,0-.6-1.51,2,2,0,0,0-1.51-.61,2,2,0,0,0-1.49.61,2.17,2.17,0,0,0,0,3A2,2,0,0,0,189.84,120.53Z"/><path class="cls-1" d="M197.62,123.75V112.84h1v10.91Z"/><path class="cls-1" d="M208.13,117.07a2.16,2.16,0,0,1,.91.78,2,2,0,0,1,.34,1.18,2.22,2.22,0,0,1-.7,1.67,2.38,2.38,0,0,1-1.71.67h-3.58v-8.29h3.32a2.26,2.26,0,0,1,1.65.65,2.14,2.14,0,0,1,.68,1.61A2,2,0,0,1,208.13,117.07Zm-1.42-3h-2.22v2.53h2.22a1.19,1.19,0,0,0,.88-.36,1.32,1.32,0,0,0,0-1.8A1.16,1.16,0,0,0,206.71,114.11Zm.26,6.23a1.26,1.26,0,0,0,.94-.39,1.34,1.34,0,0,0,.38-1,1.3,1.3,0,0,0-.39-.95,1.24,1.24,0,0,0-.93-.39h-2.48v2.69Z"/><path class="cls-1" d="M211.1,114.37a.69.69,0,0,1-.5-.2.7.7,0,0,1,0-1,.66.66,0,0,1,.5-.21.63.63,0,0,1,.48.21.68.68,0,0,1,0,1A.66.66,0,0,1,211.1,114.37Zm-.52,7v-5.92h1v5.92Z"/><path class="cls-1" d="M218.19,120.63a3.12,3.12,0,1,1,0-4.44,3.16,3.16,0,0,1,0,4.44Zm-2.22-.11a2.05,2.05,0,0,0,2.1-2.11,2.07,2.07,0,0,0-2.1-2.11,2,2,0,0,0-1.48.61,2,2,0,0,0-.61,1.5,2.08,2.08,0,0,0,.61,1.51A2,2,0,0,0,216,120.52Z"/><path class="cls-1" d="M223.27,115.29A2.21,2.21,0,0,1,225,116a2.46,2.46,0,0,1,.62,1.78v3.64h-1v-3.58a1.54,1.54,0,0,0-.39-1.12,1.46,1.46,0,0,0-1.08-.39,1.66,1.66,0,0,0-1.24.48,2,2,0,0,0-.48,1.47v3.14h-1v-8.29h1v3.22A2.11,2.11,0,0,1,223.27,115.29Z"/><path class="cls-1" d="M231.92,115.45h1v5.92h-1v-1a2.52,2.52,0,0,1-2.24,1.17,2.85,2.85,0,0,1-2.13-.91,3.24,3.24,0,0,1,0-4.42,2.85,2.85,0,0,1,2.13-.91,2.51,2.51,0,0,1,2.24,1.18Zm-2.11,5.08a2,2,0,0,0,1.5-.61,2.17,2.17,0,0,0,0-3,2.15,2.15,0,0,0-3,0,2.2,2.2,0,0,0,0,3A2,2,0,0,0,229.81,120.53Z"/><path class="cls-1" d="M235.69,120.39h3.16v1h-4.56v-.69l3-4.25h-2.9v-1h4.32v.68Z"/><path class="cls-1" d="M244.64,115.45h1v5.92h-1v-1a2.51,2.51,0,0,1-2.24,1.17,2.82,2.82,0,0,1-2.12-.91,3.22,3.22,0,0,1,0-4.42,2.82,2.82,0,0,1,2.12-.91,2.5,2.5,0,0,1,2.24,1.18Zm-2.11,5.08a2.07,2.07,0,0,0,2.11-2.12,2.07,2.07,0,0,0-.6-1.51,2,2,0,0,0-1.51-.61,2,2,0,0,0-1.49.61,2.17,2.17,0,0,0,0,3A2,2,0,0,0,242.53,120.53Z"/><path class="cls-1" d="M248.27,116.44a1.86,1.86,0,0,1,1.85-1.1v1.08a1.87,1.87,0,0,0-1.31.4,1.71,1.71,0,0,0-.54,1.41v3.14h-1v-5.92h1Z"/><path class="cls-1" d="M255.71,113.08h1v8.29h-1v-1a2.51,2.51,0,0,1-2.24,1.17,2.83,2.83,0,0,1-2.12-.91,3.22,3.22,0,0,1,0-4.42,2.83,2.83,0,0,1,2.12-.91,2.5,2.5,0,0,1,2.24,1.18Zm-2.11,7.45a2,2,0,0,0,1.51-.61,2.2,2.2,0,0,0,0-3,2,2,0,0,0-1.51-.61,2,2,0,0,0-1.49.61,2.17,2.17,0,0,0,0,3A2,2,0,0,0,253.6,120.53Z"/><path class="cls-2" d="M39.3,35.69H66.08A28.64,28.64,0,0,0,39.3,8.91Z"/><path class="cls-3" d="M42.81,60.58a6.56,6.56,0,0,1,4.75,2,8.18,8.18,0,0,1,1.06,1.32A28.65,28.65,0,0,0,66.08,39.3H39.3V61.37A8.75,8.75,0,0,1,42.81,60.58Z"/><path class="cls-4" d="M35.69,35.69V8.91A28.64,28.64,0,0,0,8.91,35.69Z"/><path class="cls-5" d="M35.69,39.3H8.91A28.64,28.64,0,0,0,35.69,66.08Z"/><path class="cls-6" d="M29.29,22c-.45-.55-.89-1.09-1.32-1.65L24.4,15.59l-3.58,4.72c-.42.56-.87,1.1-1.31,1.65a6.31,6.31,0,1,0,9.78,0ZM24.4,30.79a4.87,4.87,0,0,1-4.86-4.85.47.47,0,0,1,.46-.46.46.46,0,0,1,.46.46,3.93,3.93,0,0,0,3.94,3.94.46.46,0,1,1,0,.91Z"/><path class="cls-6" d="M54,22.44c-1.16-1.33-.66-3.86-.66-3.86-2.93,2.73-1.1,7.06-1.1,7.06-1.78-1.65-.75-3.51-.92-5.07-.44-4-3.06-5.1-3.06-5.1.46.57.64,3-.69,5.16a6.42,6.42,0,0,0-1,4.21,2.33,2.33,0,0,1-.38-2.43,2.63,2.63,0,0,0-.86-2.7c.4,2.85-1.56,2-1.56,6.63a5.37,5.37,0,0,0,3.87,5.5s-1.88-.46,1.77-7.93c3.64,7.47,1.77,7.93,1.77,7.93h.17C56.54,30.54,56.16,24.86,54,22.44Z"/><path class="cls-6" d="M26.21,54.49c.08.27.14.54.24.81s.35.75.48,1.13a1,1,0,0,1-.66,1.24,1,1,0,0,1-1-.26.91.91,0,0,1-.26-1,5.06,5.06,0,0,0,.19-2.19c0-.3-.18-.48-.42-.53a.52.52,0,0,0-.58.34,4.36,4.36,0,0,0-.48,1.65.91.91,0,0,1-.67.89A.88.88,0,0,1,22.45,55,.85.85,0,0,0,23,53.77a5.33,5.33,0,0,0-.23-.63c-.08-.19-.26-.21-.37,0a2,2,0,0,0-.25.5.58.58,0,0,1-.58.45.57.57,0,0,1-.53-.43.58.58,0,0,1,.32-.65,1.83,1.83,0,0,0,.46-.37.39.39,0,0,0-.18-.64,1.11,1.11,0,0,0-.84,0,6.71,6.71,0,0,0-2.05,1.23.63.63,0,0,1-.77.07.66.66,0,0,1-.31-.7.62.62,0,0,1,.6-.52,3.13,3.13,0,0,0,2.26-1,2.66,2.66,0,0,0,.47-.71.25.25,0,0,0-.21-.38,2,2,0,0,0-.69.09.59.59,0,0,1-.69-.17.64.64,0,0,1,.08-.77.55.55,0,0,1,.76,0l.06.05c.48.45.79.29,1.07-.22a1.61,1.61,0,0,0,0-1.59,2.74,2.74,0,0,0-1-1.13,7.49,7.49,0,0,0-1.94-.8.65.65,0,0,1-.51-.71.61.61,0,0,1,.58-.58.83.83,0,0,1,.52.16,17.48,17.48,0,0,0,3.22,2.17,1,1,0,0,0,1.12-.09,1.08,1.08,0,0,0,.39-1.18,4.09,4.09,0,0,0-.32-.79c-.13-.28-.29-.54-.41-.83a1,1,0,0,1,1.45-1.19,1,1,0,0,1,.45,1.07,4.67,4.67,0,0,0-.06,2.26.5.5,0,0,0,1,.13A4.79,4.79,0,0,0,26.22,44a.89.89,0,0,1,1.08-.85.85.85,0,0,1,.67.74.83.83,0,0,1-.44.89.83.83,0,0,0-.48,1.17,4,4,0,0,0,.27.64c.09.19.27.21.38,0a2.07,2.07,0,0,0,.22-.51A.57.57,0,0,1,29,46a.6.6,0,0,1-.28.66,1.72,1.72,0,0,0-.45.4.38.38,0,0,0,.2.62,1.14,1.14,0,0,0,.87-.07,6.91,6.91,0,0,0,2-1.33.63.63,0,0,1,.79-.09.66.66,0,0,1,.3.72.65.65,0,0,1-.61.51,3.09,3.09,0,0,0-2.53,1.72c-.18.33-.05.55.33.53a1.63,1.63,0,0,0,.48-.13.59.59,0,0,1,.81.79.6.6,0,0,1-.88.17,1.74,1.74,0,0,0-.58-.24c-.29-.06-.47.17-.4.46a1.25,1.25,0,0,0,.48.71,5.92,5.92,0,0,0,2.17,1.09.89.89,0,0,1,.67,1,.94.94,0,0,1-1.76.42,4,4,0,0,0-.93-1.15,1.9,1.9,0,0,0-1.61-.39.49.49,0,0,0-.29.21.41.41,0,0,0,.16.31,1.28,1.28,0,0,0,.46.21A.79.79,0,0,1,29,54a.77.77,0,0,1-.8.65.8.8,0,0,1-.75-.76,1.05,1.05,0,0,0-.16-.48.34.34,0,0,0-.54-.06,1.29,1.29,0,0,0-.51,1.14Zm1-3a.93.93,0,0,0,.94-1,.9.9,0,0,0-.92-.86.92.92,0,0,0-.94.84A.93.93,0,0,0,27.19,51.53Zm-2.58-2.76a.76.76,0,1,0,1.51,0,.76.76,0,0,0-.77-.75A.75.75,0,0,0,24.61,48.77Zm.75,3.68a.51.51,0,1,0,0-1,.51.51,0,0,0,0,1Zm-2.12-2.26a.5.5,0,0,0,.46-.42.49.49,0,0,0-.45-.51.48.48,0,0,0-.49.42A.46.46,0,0,0,23.24,50.19Zm0,1a.47.47,0,0,0-.48.45.47.47,0,0,0,.93,0A.47.47,0,0,0,23.24,51.19Zm.4-2.93a.38.38,0,1,0,0-.75.37.37,0,0,0-.38.36A.37.37,0,0,0,23.64,48.26Zm3.3,0c.16,0,.26-.09.26-.24a.23.23,0,0,0-.24-.26.24.24,0,0,0-.26.24A.24.24,0,0,0,26.94,48.26Z"/><path class="cls-6" d="M52,50.38l-.3-.19a.14.14,0,0,1-.05-.1,1,1,0,0,0-.55-1A.12.12,0,0,1,51,49c0-.11,0-.25,0-.33s.2-.05.3-.08a3.41,3.41,0,0,0,1.73-5.66c-.1-.11-.2-.24-.29-.35l.23-.22a4.7,4.7,0,0,1,2,2.22,4.63,4.63,0,0,1,.32,2.65c0,.09,0,.13.1.16a4.74,4.74,0,0,1,3.1,4.22.86.86,0,0,0,0,.16c0,.16,0,.16-.16.21l-.19,0A3.44,3.44,0,0,0,52,50.38Z"/><path class="cls-6" d="M49.22,50.38A3.44,3.44,0,0,0,43.08,52a1.67,1.67,0,0,1-.3-.08.11.11,0,0,1-.05-.09,4.91,4.91,0,0,1,.51-2.13,4.65,4.65,0,0,1,2.62-2.33c.08,0,.09-.06.08-.14a4.69,4.69,0,0,1,2.23-4.86l.06,0,.23.22-.31.36a3.42,3.42,0,0,0,2,5.71c.07,0,.1,0,.09.1v0a.42.42,0,0,1-.22.46,1,1,0,0,0-.41.92s0,.07,0,.09Z"/><path class="cls-6" d="M55.92,55.64c0,.1.06.2.08.3a.14.14,0,0,1-.06.08,4.6,4.6,0,0,1-1.71.52,4.71,4.71,0,0,1-3.56-1.1l0,0h0a4.8,4.8,0,0,1-5.41.59,1.62,1.62,0,0,0,0-.19c0-.06,0-.12,0-.17A3.44,3.44,0,0,0,49.6,51l0,0,.32-.2a1.07,1.07,0,0,0,.54.22,1,1,0,0,0,.69-.17.11.11,0,0,1,.14,0l.3.18a3.44,3.44,0,0,0,4.29,4.61Z"/><path class="cls-6" d="M51.94,53.56a3.88,3.88,0,0,0,2.43-4.16H55c.29,0,.29,0,.31.32a4.69,4.69,0,0,1-2.83,4.58.12.12,0,0,1-.1,0A2.82,2.82,0,0,1,51.94,53.56Z"/><path class="cls-6" d="M53,47.06a3.81,3.81,0,0,0-4.78,0L48.16,47l-.34-.62c0-.07,0-.11,0-.16a4.68,4.68,0,0,1,5.49,0c.08,0,.09.09,0,.18A3.11,3.11,0,0,1,53,47.06Z"/><path class="cls-6" d="M48.83,54.33a4.2,4.2,0,0,1-.95-.53A4.63,4.63,0,0,1,46,49.55c0-.09,0-.12.12-.13a2.91,2.91,0,0,1,.78,0,3.85,3.85,0,0,0,2.42,4.13A2.78,2.78,0,0,1,48.83,54.33Z"/><path class="cls-1" d="M82.63,121.13A8.24,8.24,0,0,1,77.72,124c-2.84.25-9.18-4.77-16-.89,0,0,4.3-4.72,3.61-9.76a16.11,16.11,0,0,1-3.84,2.82,37.42,37.42,0,0,0,5.86-9.4c1.74-4.64-2.58-11.77-4.1-16.15s.48-17.48.48-17.48,4.59-1.21,6.12-5.23,6-9.42,6-9.42.33-11.39-.82-16.8a2,2,0,0,0,.47-1.55c-.27-2.54,0-4-.44-5-.54-1.33-.94-.82-.94-.82s.77,1.31.44,1.49-.45-.92-1-2.2-.88-.75-.88-.75S73.77,36,73.77,36s.08.71-.42-.21-1.45-3.92-1.95-3.62,1.73,3.93,1.59,5.14-1.37-2.63-2.07-3.28-.48.21-.48.21c1,3,2.42,6.64.12,5.58s-2.15,0-2.15,0,.72-.65,2.52,1.65l0,.06a2.55,2.55,0,0,0,1.07.76c-.59,3-2.63,11.45-2.48,14.53,0,0-15.83,7.68-17.92,14.14,0,0-3.62.15-3.6-2.58s-2.7-8.26-8.95-4.79c-3.93,2.18-2.69,6.51.29,9.56v2H42a9.43,9.43,0,0,0,3.79,1.33s1.1,3.1-1.27,3.11c-5.4-2.57-14.85.83-14.85.83-2.36-4.72-7.8-9.84-9.95-11.75A2.59,2.59,0,0,0,20,67.17s0,0,0-.08c-.5-3,.5-3.06.5-3.06s-.73-.87-1.53,1.6-2.58-1.11-4.21-4c0,0-.51-.77-.5.22s2.11,4.61,1.08,3.87-2.27-5-2.85-4.81,1.06,3,1.42,4-.13.47-.13.47-1.61-2.88-1.67-3c0,0-.7-.27-.05,1.19s1.37,2.19,1,2.32-.84-1.39-.84-1.39-.67,0,0,1.29c.49,1,1.74,1.82,3.51,3.81a2.05,2.05,0,0,0,1.31.71c1.42,2.64,5.42,10,7.06,12.29,2,2.81,6,3,9.48,4s11.25,2.61,11.25,2.61a13.85,13.85,0,0,0,3.8,4.78s-15.07,3.25-18.5,7.56-1.54,6,2.65,10.9,9.5,10.71,9.5,10.71-3.45,1.83-4.44,3.55-3.72,1.5-3.72,1.5a4.13,4.13,0,0,0,5.23.92c3.11-1.72,6.67-2.89,9.23-2.24,0,0,.44-2.26-2.75-5.28S43.63,109.18,35,107.09c4.3.83,21.13,3.58,27.64-2.62a15.63,15.63,0,0,1-9.1,6.37s-2,17.19,6,18.74,16.83-1.35,20.53-2.3,6.4,1,9.06,3.91A18.81,18.81,0,0,0,82.63,121.13Z"/><path class="cls-1" d="M71.94,30.6l-.16-.05a1.57,1.57,0,0,1-1-1.12A34.16,34.16,0,1,0,10.66,58.59a1.59,1.59,0,0,1,.34,1,1.64,1.64,0,0,1-.15.68,1.6,1.6,0,0,1-2.72.33A37.37,37.37,0,1,1,73.9,28.76,1.55,1.55,0,0,1,71.94,30.6Z"/><path class="cls-1" d="M86.38,62.65a6.7,6.7,0,0,1,4.89,2,6.81,6.81,0,0,1,0,9.6,6.7,6.7,0,0,1-4.89,2H82.84v6.61h-4V62.65Zm0,9.81a2.77,2.77,0,0,0,2.1-.88,3.28,3.28,0,0,0,0-4.36,2.83,2.83,0,0,0-2.1-.86H82.84v6.1Z"/><path class="cls-1" d="M111.38,62.65h4V82.78h-4Z"/><path class="cls-1" d="M136,80.15a10.61,10.61,0,1,1,3-7.43A10.15,10.15,0,0,1,136,80.15Zm-12-2.7a6.72,6.72,0,0,0,9.26,0,7,7,0,0,0,0-9.48A6.67,6.67,0,0,0,124,68a6.94,6.94,0,0,0,0,9.48Z"/><path class="cls-1" d="M156.34,62.65h4V82.78h-4Z"/><path class="cls-1" d="M176.81,62.65l2.15,3.8h-7V82.78h-4V66.45h-5.4v-3.8Z"/><path class="cls-1" d="M211.36,62.65v1.9h-6.18V82.78h-2V64.55H197v-1.9Z"/><path class="cls-1" d="M214.24,62.65h2V82.78h-2Z"/><path class="cls-1" d="M233.5,62.65v1.9h-6.18V82.78h-2V64.55h-6.19v-1.9Z"/><path class="cls-1" d="M272.79,83.13a8.4,8.4,0,0,1-4.74-1.31,6.85,6.85,0,0,1-2.74-3.61l1.72-1a5.31,5.31,0,0,0,2,2.92,6.29,6.29,0,0,0,3.76,1,5.52,5.52,0,0,0,3.5-1,3.2,3.2,0,0,0,1.25-2.63,2.72,2.72,0,0,0-1.15-2.39,15.33,15.33,0,0,0-3.8-1.67,21.67,21.67,0,0,1-4.14-1.67,4.4,4.4,0,0,1-2.3-4,5,5,0,0,1,1.78-4,6.65,6.65,0,0,1,4.4-1.48,6.85,6.85,0,0,1,4.09,1.22A7.4,7.4,0,0,1,279,66.65l-1.7.95a5,5,0,0,0-4.95-3.34,4.73,4.73,0,0,0-3,.92,3.13,3.13,0,0,0-1.15,2.56,2.57,2.57,0,0,0,1,2.24,13.1,13.1,0,0,0,3.42,1.53l1.57.53c.32.11.78.28,1.38.52a9.21,9.21,0,0,1,1.34.63q.42.27,1.05.75a3.24,3.24,0,0,1,.89,1,6.3,6.3,0,0,1,.49,1.15,4.84,4.84,0,0,1,.21,1.45,5,5,0,0,1-1.87,4.1A7.49,7.49,0,0,1,272.79,83.13Z"/><path class="cls-1" d="M94.67,66.36h6.57a2.57,2.57,0,0,1,1.93.86,3,3,0,0,1,.81,2.1,3,3,0,0,1-.81,2.12,2.54,2.54,0,0,1-1.93.87h-3.1l3,5.24,3,5.23h4.28l-4.46-7.59a6.71,6.71,0,0,0,2.82-2.4,6.13,6.13,0,0,0,1.06-3.47,6.67,6.67,0,0,0-6.7-6.67H92.51Z"/><polygon class="cls-1" points="185.73 62.65 181.35 71.03 180.1 68.63 175.85 68.63 179.38 74.93 179.38 82.78 183.31 82.78 183.31 74.93 190.22 62.65 185.73 62.65"/><polygon class="cls-1" points="242.74 62.65 240.66 62.65 232.93 82.78 235.06 82.78 241.7 65.17 248.34 82.78 250.47 82.78 242.74 62.65"/><polygon class="cls-1" points="260.13 62.65 260.13 79 248.94 62.65 247.19 62.65 247.19 67.68 249.2 72.92 249.2 66.39 260.42 82.78 262.14 82.78 262.14 62.65 260.13 62.65"/><path class="cls-7" d="M82.84,76.17v6.61h-4V79.63a3.46,3.46,0,0,1,3.46-3.46Z"/><path class="cls-8" d="M104.06,75.19s-4,.46-1.9,4l2.08,3.56h4.28Z"/><path class="cls-1" d="M139.75,66.36h6.57a2.53,2.53,0,0,1,1.92.86,3,3,0,0,1,.81,2.1,3,3,0,0,1-.81,2.12,2.51,2.51,0,0,1-1.92.87h-3.11l3,5.24,3.05,5.23h4.28l-4.45-7.59a6.71,6.71,0,0,0,2.82-2.4A6.21,6.21,0,0,0,153,69.32a6.69,6.69,0,0,0-6.7-6.67h-8.73Z"/><path class="cls-9" d="M149.14,75.19s-4,.46-1.91,4l2.08,3.56h4.28Z"/><path class="cls-10" d="M128.61,66.1A6.28,6.28,0,0,1,133.24,68a7,7,0,0,1,0,9.48,6.75,6.75,0,0,1-8.44.68l-.89,4a10.44,10.44,0,0,0,4.7,1.06,10.39,10.39,0,0,0,9.92-7C137.59,64.9,128.61,66.1,128.61,66.1Z"/><polygon class="cls-11" points="181.35 71.03 179.38 74.93 175.85 68.63 180.1 68.63 181.35 71.03"/><path class="cls-12" d="M171.93,69.81v13h-4V66.45h.61A3.36,3.36,0,0,1,171.93,69.81Z"/><path class="cls-1" d="M125.81,106,123,101.16h-2.08V106h-2.74V92.06h5.57a4.61,4.61,0,0,1,4.64,4.62,4.27,4.27,0,0,1-.74,2.4,4.63,4.63,0,0,1-2,1.66l3.09,5.26Zm-4.9-11.37v4.12h2.83a1.72,1.72,0,0,0,1.33-.61,2,2,0,0,0,.56-1.46,2,2,0,0,0-.56-1.45,1.74,1.74,0,0,0-1.33-.6Z"/><path class="cls-1" d="M145.7,106.28a6.19,6.19,0,0,1-3.48-.93,4.91,4.91,0,0,1-2-2.52l2.35-1.37a3.12,3.12,0,0,0,3.2,2.13,2.74,2.74,0,0,0,1.69-.42,1.29,1.29,0,0,0,.54-1.06,1.27,1.27,0,0,0-.66-1.14,10.08,10.08,0,0,0-2.35-.89,14.85,14.85,0,0,1-1.58-.55,7.17,7.17,0,0,1-1.29-.75,3.09,3.09,0,0,1-1-1.19,3.92,3.92,0,0,1-.34-1.67,3.71,3.71,0,0,1,1.35-3,4.86,4.86,0,0,1,3.23-1.13,5.41,5.41,0,0,1,3,.83,5.49,5.49,0,0,1,2,2.3l-2.31,1.33a2.79,2.79,0,0,0-2.67-1.79,2.08,2.08,0,0,0-1.34.39,1.21,1.21,0,0,0-.49,1,1.26,1.26,0,0,0,.55,1.07,7.35,7.35,0,0,0,2.1.88l1,.31.9.34a5.57,5.57,0,0,1,.88.43,6.08,6.08,0,0,1,.7.54,2.57,2.57,0,0,1,.61.69,4,4,0,0,1,.51,2,3.74,3.74,0,0,1-1.41,3.07A5.59,5.59,0,0,1,145.7,106.28Z"/><path class="cls-1" d="M161.27,92.06v2.63h-3.76V106h-2.75V94.69H151V92.06Z"/><path class="cls-1" d="M173.74,104.17A7.33,7.33,0,1,1,175.85,99,7,7,0,0,1,173.74,104.17Zm-8.35-1.87A4.51,4.51,0,0,0,173.1,99a4.45,4.45,0,0,0-1.3-3.29,4.63,4.63,0,0,0-6.41,0A4.48,4.48,0,0,0,164.1,99,4.4,4.4,0,0,0,165.39,102.3Z"/><path class="cls-1" d="M185.42,106l-2.82-4.84h-2.08V106h-2.74V92.06h5.57A4.61,4.61,0,0,1,188,96.68a4.27,4.27,0,0,1-.74,2.4,4.63,4.63,0,0,1-1.95,1.66l3.09,5.26Zm-4.9-11.37v4.12h2.83a1.76,1.76,0,0,0,1.34-.61,2.07,2.07,0,0,0,.55-1.46,2,2,0,0,0-.55-1.45,1.78,1.78,0,0,0-1.34-.6Z"/><path class="cls-1" d="M199.16,106l-.88-2.51h-5.73l-.84,2.51h-3l4.88-13.94H197L202,106Zm-5.71-5.08h3.92l-2-5.69Z"/><path class="cls-1" d="M211.5,92.06v2.63h-3.76V106H205V94.69h-3.74V92.06Z"/><path class="cls-1" d="M213,92.06h2.74V106H213Z"/><path class="cls-1" d="M237.53,92.06h2.75V106h-2.09l-6-8.52V99h-2.75v-7h2.09l6,8.49Z"/><path class="cls-1" d="M230.1,93.88a8.27,8.27,0,0,0-.64-.56V99a4.41,4.41,0,0,1-4.5,4.56,4.43,4.43,0,0,1-4.5-4.56,4.45,4.45,0,0,1,1.3-3.29,4.35,4.35,0,0,1,3.2-1.29,4.41,4.41,0,0,1,2.65.82v-.79a2.68,2.68,0,0,0-2.62-2.7h0a7.19,7.19,0,1,0,5.14,2.1Z"/><polygon class="cls-1" points="133.14 94.69 138.41 94.69 138.91 94.69 138.91 92.06 130.39 92.06 130.39 94.69 133.14 94.69"/><polygon class="cls-1" points="133.14 103.37 133.14 100.24 138.41 100.24 138.41 97.66 133.14 97.66 130.39 97.66 130.39 106 139.01 106 139.01 103.37 133.14 103.37"/><path class="cls-1" d="M278.65,100h-21a.93.93,0,0,1,0-1.85h21a.93.93,0,0,1,0,1.85Z"/><path class="cls-1" d="M100.77,100h-21a.93.93,0,1,1,0-1.85h21a.93.93,0,1,1,0,1.85Z"/></svg>