<?xml version="1.0" encoding="utf-8"?>
<!-- Generator: Adobe Illustrator 23.0.0, SVG Export Plug-In . SVG Version: 6.00 Build 0)  -->
<svg version="1.1" id="Layer_1" xmlns="http://www.w3.org/2000/svg" xmlns:xlink="http://www.w3.org/1999/xlink" x="0px" y="0px"
	 viewBox="0 0 280 132" style="enable-background:new 0 0 280 132;" xml:space="preserve">
<style type="text/css">
	.st0{fill:#FFFFFF;}
	.st1{fill:url(#SVGID_1_);}
	.st2{fill:url(#SVGID_2_);}
	.st3{fill:url(#SVGID_3_);}
	.st4{fill:url(#SVGID_4_);}
	.st5{fill:url(#SVGID_5_);}
	.st6{fill:url(#SVGID_6_);}
	.st7{fill:url(#SVGID_7_);}
	.st8{fill:url(#SVGID_8_);}
	.st9{fill:url(#SVGID_9_);}
	.st10{fill:url(#SVGID_10_);}
</style>
<title>logo-inverse</title>
<path class="st0" d="M99.4,121.5l-2.3-8.3h1.2l1.9,6.8l2-6.8h1.1l2,6.8l1.9-6.8h1.1l-2.3,8.3h-1.3l-2-6.7l-2,6.7H99.4z"/>
<path class="st0" d="M113.6,115.5h1v5.9h-1v-1c-0.5,0.8-1.3,1.2-2.2,1.2c-0.8,0-1.6-0.3-2.1-0.9c-1.2-1.2-1.2-3.2,0-4.4
	c0.5-0.6,1.3-0.9,2.1-0.9c0.9,0,1.8,0.4,2.2,1.2V115.5z M111.5,120.6c1.1,0,2.1-0.9,2.1-2.1c0-1.1-0.9-2.1-2.1-2.1
	c-1.1,0-2.1,0.9-2.1,2.1c0,0.5,0.2,1.1,0.6,1.5C110.4,120.4,110.9,120.6,111.5,120.6z"/>
<path class="st0" d="M119.4,116.5h-1.6v3.2c0,0.2,0,0.4,0.2,0.6c0.1,0.1,0.3,0.2,0.5,0.2c0.2,0,0.5,0,0.9,0v0.9
	c-0.7,0.2-1.4,0.1-2-0.2c-0.5-0.4-0.7-0.9-0.6-1.5v-3.2h-1.2v-1h1.2v-1.3l1-0.3v1.7h1.6L119.4,116.5z"/>
<path class="st0" d="M121.1,119c0.1,0.5,0.3,0.9,0.7,1.2c0.4,0.3,0.9,0.5,1.4,0.4c0.7,0,1.3-0.3,1.7-0.9l0.9,0.5
	c-0.6,0.9-1.6,1.4-2.6,1.3c-0.9,0-1.7-0.3-2.3-0.9c-0.6-0.6-0.9-1.4-0.9-2.2c0-0.8,0.3-1.6,0.9-2.2c0.6-0.6,1.4-0.9,2.2-0.9
	c0.8,0,1.6,0.3,2.1,0.9c0.5,0.6,0.8,1.4,0.8,2.2c0,0.2,0,0.3,0,0.5L121.1,119z M123.1,116.4c-0.5,0-1,0.1-1.4,0.5
	c-0.4,0.3-0.6,0.8-0.7,1.3h4c-0.1-0.5-0.3-1-0.7-1.3C124,116.5,123.6,116.4,123.1,116.4L123.1,116.4z"/>
<path class="st0" d="M128.3,116.5c0.3-0.7,1.1-1.2,1.8-1.1v1.1c-0.5,0-0.9,0.1-1.3,0.4c-0.4,0.4-0.6,0.9-0.5,1.4v3.1h-1v-5.9h1
	V116.5z"/>
<path class="st0" d="M134.2,123.8v-10.9h1v10.9H134.2z"/>
<path class="st0" d="M144.7,114.2h-3.7v2.7h3.5v1h-3.5v3.5H140v-8.3h4.8L144.7,114.2z"/>
<path class="st0" d="M146.5,114.5c-0.4,0-0.7-0.3-0.7-0.7c0-0.2,0.1-0.4,0.2-0.5c0.1-0.1,0.3-0.2,0.5-0.2c0.2,0,0.4,0.1,0.5,0.2
	c0.1,0.1,0.2,0.3,0.2,0.5c0,0.2-0.1,0.4-0.2,0.5C146.9,114.4,146.7,114.5,146.5,114.5z M146,121.5v-5.9h1v5.9H146z"/>
<path class="st0" d="M149.6,116.5c0.3-0.7,1.1-1.2,1.9-1.1v1.1c-0.5,0-0.9,0.1-1.3,0.4c-0.4,0.4-0.6,0.9-0.6,1.4v3.1h-1v-5.9h1
	V116.5z"/>
<path class="st0" d="M152.9,119c0.1,0.5,0.3,0.9,0.7,1.2c0.4,0.3,0.9,0.5,1.4,0.4c0.7,0.1,1.3-0.3,1.7-0.9l0.9,0.5
	c-0.6,0.9-1.6,1.4-2.6,1.3c-0.9,0-1.7-0.3-2.3-0.9c-1.2-1.2-1.3-3.2-0.1-4.4c0.6-0.6,1.4-1,2.3-1c0.8,0,1.6,0.3,2.1,0.9
	c0.5,0.6,0.8,1.4,0.8,2.2c0,0.2,0,0.3,0,0.5H152.9z M154.9,116.4c-0.5,0-1,0.1-1.4,0.5c-0.4,0.3-0.6,0.8-0.7,1.3h4
	c-0.1-0.5-0.3-1-0.7-1.3C155.8,116.5,155.4,116.4,154.9,116.4L154.9,116.4z"/>
<path class="st0" d="M162.1,123.8v-10.9h1v10.9H162.1z"/>
<path class="st0" d="M175.6,113.2v8.3h-1.1V115l-2.7,4.5h-0.1L169,115v6.5h-1.1v-8.3h1.3l2.6,4.4l2.6-4.4L175.6,113.2z"/>
<path class="st0" d="M182.3,120.7c-0.6,0.6-1.4,0.9-2.2,0.9c-1.7,0.1-3.2-1.2-3.3-2.9c-0.1-1.7,1.2-3.2,2.9-3.3c0.1,0,0.2,0,0.4,0
	c0.8,0,1.6,0.3,2.2,0.9C183.5,117.5,183.5,119.5,182.3,120.7z M180.1,120.6c1.2,0.1,2.2-0.8,2.3-2c0.1-1.2-0.8-2.2-2-2.3
	c-0.1,0-0.2,0-0.3,0c-1.2-0.1-2.2,0.8-2.3,2c-0.1,1.2,0.8,2.2,2,2.3C179.9,120.6,180,120.6,180.1,120.6z"/>
<path class="st0" d="M184.4,121.5v-8.7h1v8.7H184.4z"/>
<path class="st0" d="M192,113.2h1v8.3h-1v-1c-0.5,0.8-1.3,1.2-2.2,1.2c-0.8,0-1.6-0.3-2.1-0.9c-1.2-1.2-1.2-3.2,0-4.4
	c0.5-0.6,1.3-0.9,2.1-0.9c0.9,0,1.8,0.4,2.2,1.2V113.2z M189.9,120.6c0.6,0,1.1-0.2,1.5-0.6c0.8-0.8,0.8-2.2,0-3
	c-0.8-0.8-2.2-0.8-3,0c-0.8,0.8-0.8,2.2,0,3C188.8,120.4,189.3,120.6,189.9,120.6L189.9,120.6z"/>
<path class="st0" d="M197.6,123.8v-10.9h1v10.9H197.6z"/>
<path class="st0" d="M208.1,117.2c0.4,0.2,0.7,0.4,0.9,0.8c0.2,0.3,0.4,0.8,0.3,1.2c0,0.6-0.2,1.2-0.7,1.7c-0.5,0.4-1.1,0.7-1.7,0.7
	h-3.6v-8.3h3.3c0.6,0,1.2,0.2,1.6,0.7c0.4,0.4,0.7,1,0.7,1.6C209.1,116.1,208.7,116.8,208.1,117.2z M206.7,114.2h-2.2v2.5h2.2
	c0.3,0,0.7-0.1,0.9-0.4c0.2-0.2,0.4-0.6,0.4-0.9c0-0.3-0.1-0.7-0.4-0.9C207.4,114.3,207,114.2,206.7,114.2L206.7,114.2z M207,120.4
	c0.4,0,0.7-0.1,0.9-0.4c0.3-0.3,0.4-0.6,0.4-1c0-0.4-0.1-0.7-0.4-1c-0.2-0.3-0.6-0.4-0.9-0.4h-2.5v2.7L207,120.4z"/>
<path class="st0" d="M211.1,114.5c-0.4,0-0.7-0.3-0.7-0.7c0-0.2,0.1-0.4,0.2-0.5c0.1-0.1,0.3-0.2,0.5-0.2c0.2,0,0.4,0.1,0.5,0.2
	c0.1,0.1,0.2,0.3,0.2,0.5c0,0.2-0.1,0.4-0.2,0.5C211.5,114.4,211.3,114.5,211.1,114.5z M210.6,121.5v-5.9h1v5.9H210.6z"/>
<path class="st0" d="M218.2,120.7c-0.6,0.6-1.4,0.9-2.2,0.9c-1.7,0.1-3.2-1.2-3.3-2.9c-0.1-1.7,1.2-3.2,2.9-3.3c0.1,0,0.2,0,0.4,0
	c0.8,0,1.6,0.3,2.2,0.9C219.4,117.5,219.4,119.5,218.2,120.7z M216,120.6c1.2,0.1,2.2-0.8,2.3-2c0.1-1.2-0.8-2.2-2-2.3
	c-0.1,0-0.2,0-0.3,0c-1.2-0.1-2.2,0.8-2.3,2c-0.1,1.2,0.8,2.2,2,2.3C215.8,120.6,215.9,120.6,216,120.6z"/>
<path class="st0" d="M223.3,115.4c0.6,0,1.2,0.2,1.7,0.7c0.4,0.5,0.7,1.1,0.6,1.8v3.6h-1v-3.6c0-0.4-0.1-0.8-0.4-1.1
	c-0.3-0.3-0.7-0.4-1.1-0.4c-0.5,0-0.9,0.2-1.2,0.5c-0.4,0.4-0.5,0.9-0.5,1.5v3.1h-1v-8.3h1v3.2C221.8,115.7,222.5,115.4,223.3,115.4
	z"/>
<path class="st0" d="M231.9,115.5h1v5.9h-1v-1c-0.5,0.8-1.3,1.2-2.2,1.2c-0.8,0-1.6-0.3-2.1-0.9c-1.2-1.2-1.2-3.2,0-4.4
	c0.5-0.6,1.3-0.9,2.1-0.9c0.9,0,1.8,0.4,2.2,1.2V115.5z M229.8,120.6c1.2,0.1,2.2-0.8,2.3-2c0.1-1.2-0.8-2.2-2-2.3
	c-0.1,0-0.2,0-0.3,0c-0.6,0-1.1,0.2-1.5,0.6c-0.8,0.8-0.8,2.2,0,3C228.7,120.4,229.2,120.6,229.8,120.6z"/>
<path class="st0" d="M235.7,120.5h3.2v1h-4.6v-0.7l3-4.2h-2.9v-1h4.3v0.7L235.7,120.5z"/>
<path class="st0" d="M244.6,115.5h1v5.9h-1v-1c-0.5,0.8-1.3,1.2-2.2,1.2c-0.8,0-1.6-0.3-2.1-0.9c-1.2-1.2-1.2-3.2,0-4.4
	c0.5-0.6,1.3-0.9,2.1-0.9c0.9,0,1.8,0.4,2.2,1.2V115.5z M242.5,120.6c1.2,0.1,2.2-0.8,2.3-2c0.1-1.2-0.8-2.2-2-2.3
	c-0.1,0-0.2,0-0.3,0c-0.6,0-1.1,0.2-1.5,0.6c-0.8,0.8-0.8,2.2,0,3C241.4,120.4,241.9,120.6,242.5,120.6z"/>
<path class="st0" d="M248.2,116.5c0.3-0.7,1.1-1.2,1.8-1.1v1.1c-0.5,0-0.9,0.1-1.3,0.4c-0.4,0.4-0.6,0.9-0.5,1.4v3.1h-1v-5.9h1
	V116.5z"/>
<path class="st0" d="M255.7,113.2h1v8.3h-1v-1c-0.5,0.8-1.3,1.2-2.2,1.2c-0.8,0-1.6-0.3-2.1-0.9c-1.2-1.2-1.2-3.2,0-4.4
	c0.5-0.6,1.3-0.9,2.1-0.9c0.9,0,1.8,0.4,2.2,1.2V113.2z M253.6,120.6c1.2,0.1,2.2-0.8,2.3-2c0.1-1.2-0.8-2.2-2-2.3
	c-0.1,0-0.2,0-0.3,0c-1.2-0.1-2.2,0.8-2.3,2c-0.1,1.2,0.8,2.2,2,2.3C253.4,120.6,253.5,120.6,253.6,120.6z"/>
<radialGradient id="SVGID_1_" cx="47.09" cy="128.03" r="42.11" gradientTransform="matrix(1 0 0 -1 0 134)" gradientUnits="userSpaceOnUse">
	<stop  offset="0" style="stop-color:#FF1C24"/>
	<stop  offset="1" style="stop-color:#A71C24"/>
</radialGradient>
<path class="st1" d="M39.4,35.8h26.8C65.3,21.5,53.8,10,39.4,9.1V35.8z"/>
<radialGradient id="SVGID_2_" cx="38.52" cy="96.89" r="30.26" gradientTransform="matrix(1 0 0 -1 0 134)" gradientUnits="userSpaceOnUse">
	<stop  offset="0" style="stop-color:#FBB03B"/>
	<stop  offset="1" style="stop-color:#F15A24"/>
</radialGradient>
<path class="st2" d="M43,60.7c1.8,0,3.5,0.7,4.7,2c0.4,0.4,0.7,0.8,1,1.3c10-4.2,16.7-13.7,17.4-24.5H39.4v22
	C40.6,61,41.8,60.7,43,60.7z"/>
<radialGradient id="SVGID_3_" cx="37.76" cy="143.66" r="48.45" gradientTransform="matrix(1 0 0 -1 0 134)" gradientUnits="userSpaceOnUse">
	<stop  offset="0" style="stop-color:#00FFFF"/>
	<stop  offset="1" style="stop-color:#29ABE2"/>
</radialGradient>
<path class="st3" d="M35.8,35.8V9.1C21.4,10,10,21.5,9.1,35.8H35.8z"/>
<radialGradient id="SVGID_4_" cx="14.86" cy="97.54" r="28.97" gradientTransform="matrix(1 0 0 -1 0 134)" gradientUnits="userSpaceOnUse">
	<stop  offset="0" style="stop-color:#8CC63F"/>
	<stop  offset="1" style="stop-color:#399F4A"/>
</radialGradient>
<path class="st4" d="M35.8,39.5H9.1C10,53.8,21.4,65.3,35.8,66.2V39.5z"/>
<path class="st0" d="M29.4,22.1c-0.4-0.5-0.9-1.1-1.3-1.6l-3.6-4.7L21,20.5c-0.4,0.6-0.9,1.1-1.3,1.6c-2.2,2.7-1.8,6.7,0.9,8.9
	c2.7,2.2,6.7,1.8,8.9-0.9C31.3,27.8,31.3,24.4,29.4,22.1L29.4,22.1z M24.5,31c-2.7,0-4.9-2.2-4.9-4.9l0,0c0-0.3,0.1-0.5,0.4-0.5
	c0.3,0,0.5,0.1,0.5,0.4c0,0,0,0.1,0,0.1c0,2.1,1.8,3.9,3.9,3.9c0.3,0,0.5,0.2,0.5,0.5C25,30.7,24.8,30.9,24.5,31L24.5,31z"/>
<path class="st0" d="M54.2,22.6c-1.2-1.3-0.7-3.9-0.7-3.9c-2.9,2.7-1.1,7-1.1,7c-1.8-1.6-0.8-3.5-0.9-5.1c-0.4-4-3-5.1-3-5.1
	c0.5,0.6,0.6,3.1-0.7,5.2c-0.8,1.3-1.2,2.8-1,4.3c-0.6-0.7-0.7-1.6-0.4-2.4c0.3-1-0.1-2.1-0.9-2.7c0.4,2.9-1.5,2-1.5,6.6
	c-0.2,2.5,1.4,4.8,3.9,5.5c0,0-1.9-0.5,1.8-7.9c3.6,7.5,1.8,7.9,1.8,7.9h0.2C56.7,30.7,56.3,25,54.2,22.6z"/>
<path class="st0" d="M26.4,54.6c0.1,0.3,0.1,0.5,0.2,0.8s0.4,0.8,0.5,1.1c0.1,0.5-0.1,1.1-0.7,1.2c-0.4,0.1-0.7,0-1-0.3
	c-0.3-0.2-0.4-0.6-0.3-1c0.2-0.7,0.3-1.5,0.2-2.2c0-0.3-0.2-0.5-0.4-0.5c-0.2,0-0.5,0.1-0.6,0.3c-0.3,0.5-0.4,1.1-0.5,1.7
	c0,0.4-0.3,0.8-0.7,0.9c-0.5,0.1-1-0.2-1.1-0.7c-0.1-0.4,0.1-0.8,0.4-1c0.4-0.1,0.7-0.6,0.6-1c0,0,0-0.1-0.1-0.1
	c-0.1-0.2-0.1-0.4-0.2-0.6c-0.1-0.2-0.3-0.2-0.4,0c-0.1,0.2-0.2,0.3-0.3,0.5c-0.1,0.3-0.4,0.5-0.7,0.4c-0.2,0-0.4-0.2-0.4-0.4
	c-0.1-0.3,0.1-0.5,0.3-0.7c0.2-0.1,0.3-0.2,0.5-0.4c0.1-0.2,0.1-0.4,0-0.6c0,0-0.1-0.1-0.2-0.1c-0.3-0.1-0.6-0.1-0.8,0
	c-0.8,0.3-1.5,0.7-2,1.2c-0.2,0.2-0.5,0.2-0.8,0.1c-0.2-0.1-0.4-0.4-0.3-0.7c0.1-0.3,0.3-0.5,0.6-0.5c0.9,0,1.7-0.4,2.3-1
	c0.2-0.2,0.4-0.5,0.5-0.7c0.1-0.1,0-0.3-0.1-0.3c0,0-0.1,0-0.1,0c-0.2,0-0.5,0-0.7,0.1c-0.2,0.1-0.5,0-0.7-0.2
	c-0.1-0.2-0.1-0.6,0.1-0.8c0.2-0.2,0.5-0.2,0.8,0h0.1c0.5,0.5,0.8,0.3,1.1-0.2c0.3-0.5,0.3-1.1,0-1.6c-0.2-0.5-0.6-0.8-1-1.1
	c-0.6-0.4-1.3-0.6-2-0.8c-0.3-0.1-0.6-0.4-0.5-0.7c0-0.3,0.3-0.6,0.6-0.6c0.2,0,0.4,0.1,0.5,0.2c1,0.8,2.1,1.6,3.2,2.2
	c0.4,0.2,0.8,0.2,1.1-0.1c0.4-0.3,0.5-0.7,0.4-1.2c-0.1-0.3-0.2-0.5-0.3-0.8c-0.1-0.3-0.3-0.5-0.4-0.8c-0.2-0.5,0.1-1.1,0.6-1.3
	c0.3-0.1,0.6-0.1,0.8,0.1c0.4,0.2,0.6,0.7,0.5,1.1c-0.2,0.7-0.2,1.5,0,2.3c0,0.2,0.2,0.4,0.4,0.4c0.2,0,0.5-0.1,0.6-0.3
	c0.3-0.6,0.4-1.2,0.4-1.8c0.1-0.5,0.5-0.8,1-0.8c0.4,0,0.7,0.3,0.8,0.7c0.1,0.4-0.1,0.7-0.4,0.9c-0.4,0.1-0.7,0.6-0.5,1
	c0,0,0,0.1,0.1,0.1c0.1,0.2,0.2,0.4,0.3,0.6c0.1,0.2,0.3,0.2,0.4,0c0.1-0.2,0.2-0.3,0.2-0.5c0.1-0.3,0.3-0.5,0.5-0.5
	c0.3,0,0.5,0.2,0.6,0.4c0.1,0.3,0,0.5-0.3,0.7c-0.2,0.1-0.3,0.2-0.5,0.4c-0.1,0.2-0.1,0.4,0,0.5c0,0,0.1,0.1,0.2,0.1
	c0.3,0.1,0.6,0.1,0.9-0.1c0.7-0.3,1.4-0.8,2-1.3c0.2-0.2,0.5-0.3,0.8-0.1c0.2,0.2,0.4,0.4,0.3,0.7c-0.1,0.3-0.3,0.5-0.6,0.5
	c-1.1,0.1-2,0.7-2.5,1.7c-0.2,0.3,0,0.5,0.3,0.5c0.2,0,0.3-0.1,0.5-0.1c0.2-0.1,0.6-0.1,0.8,0.1c0.2,0.2,0.2,0.5,0.1,0.7
	c-0.2,0.3-0.5,0.4-0.8,0.2c0,0,0,0-0.1,0c-0.2-0.1-0.4-0.2-0.6-0.2c-0.3-0.1-0.5,0.2-0.4,0.5c0.1,0.3,0.2,0.5,0.5,0.7
	c0.6,0.5,1.4,0.9,2.2,1.1c0.5,0.1,0.9,0.6,0.8,1.2c-0.1,0.5-0.6,0.9-1.2,0.8c-0.3-0.1-0.6-0.3-0.7-0.6c-0.2-0.4-0.5-0.8-0.9-1.2
	c-0.5-0.4-1-0.5-1.6-0.4c-0.1,0-0.2,0.1-0.3,0.2c0,0.1,0.1,0.2,0.1,0.3c0.1,0.1,0.3,0.2,0.5,0.2c0.4,0.1,0.7,0.5,0.6,0.9
	c-0.1,0.4-0.4,0.7-0.8,0.7c-0.4,0-0.7-0.4-0.8-0.8c0-0.2-0.1-0.3-0.2-0.5c-0.1-0.2-0.3-0.2-0.5-0.1c0,0-0.1,0-0.1,0.1
	C26.6,53.7,26.4,54.2,26.4,54.6L26.4,54.6z M27.4,51.6c0.5,0,0.9-0.4,0.9-0.9c0,0,0,0,0-0.1c0-0.5-0.4-0.9-0.9-0.9s-0.9,0.4-0.9,0.9
	C26.4,51.1,26.7,51.6,27.4,51.6C27.3,51.7,27.3,51.7,27.4,51.6L27.4,51.6z M24.8,48.9c0,0.4,0.3,0.7,0.8,0.8c0.4,0,0.8-0.3,0.8-0.8
	c0-0.4-0.3-0.8-0.8-0.8S24.8,48.4,24.8,48.9L24.8,48.9z M25.5,52.6c0.3,0,0.5-0.2,0.5-0.5c0-0.3-0.2-0.5-0.5-0.5S25,51.8,25,52
	C25,52.3,25.2,52.6,25.5,52.6C25.5,52.6,25.5,52.6,25.5,52.6L25.5,52.6z M23.4,50.3c0.2,0,0.4-0.2,0.5-0.4c0-0.3-0.2-0.5-0.5-0.5
	c-0.2,0-0.5,0.2-0.5,0.4c-0.1,0.2,0.1,0.5,0.3,0.5C23.3,50.3,23.3,50.3,23.4,50.3L23.4,50.3z M23.4,51.3c-0.3,0-0.5,0.2-0.5,0.5
	c0,0.3,0.3,0.4,0.5,0.4c0.2,0,0.4-0.2,0.4-0.4C23.8,51.5,23.6,51.3,23.4,51.3L23.4,51.3z M23.8,48.4c0.2,0,0.4-0.2,0.4-0.4
	s-0.2-0.4-0.4-0.4c-0.2,0-0.4,0.2-0.4,0.4C23.4,48.2,23.5,48.4,23.8,48.4C23.7,48.4,23.8,48.4,23.8,48.4L23.8,48.4z M27.1,48.4
	c0.1,0,0.3-0.1,0.3-0.2c0,0,0,0,0,0c0-0.1-0.1-0.2-0.2-0.3c0,0,0,0,0,0c-0.1,0-0.2,0.1-0.3,0.2c0,0,0,0,0,0
	C26.8,48.3,26.9,48.4,27.1,48.4L27.1,48.4z"/>
<path class="st0" d="M52.1,50.5l-0.3-0.2c0,0,0-0.1,0-0.1c0-0.4-0.2-0.8-0.6-1c0,0-0.1-0.1-0.1-0.1c0-0.1,0-0.3,0-0.3s0.2,0,0.3-0.1
	c1.8-0.4,3-2.3,2.6-4.1c-0.1-0.6-0.4-1.1-0.8-1.6c-0.1-0.1-0.2-0.2-0.3-0.4l0.2-0.2c0.9,0.5,1.6,1.3,2,2.2c0.4,0.8,0.5,1.7,0.3,2.6
	c0,0.1,0,0.1,0.1,0.2c1.8,0.7,3,2.3,3.1,4.2c0,0,0,0.1,0,0.2c0,0.2,0,0.2-0.2,0.2l-0.2,0c-0.3-1.9-2-3.2-3.9-2.9
	C53.5,49.3,52.7,49.8,52.1,50.5L52.1,50.5z"/>
<path class="st0" d="M49.3,50.5c-1.1-1.5-3.3-1.8-4.8-0.7c-0.7,0.5-1.2,1.4-1.3,2.3L42.9,52c0,0,0-0.1,0-0.1c0-0.7,0.2-1.5,0.5-2.1
	c0.5-1.1,1.5-1.9,2.6-2.3c0.1,0,0.1-0.1,0.1-0.1c0,0,0,0,0,0c-0.3-1.9,0.5-3.9,2.2-4.9h0.1l0.2,0.2c-0.1,0.1-0.2,0.3-0.3,0.4
	c-1.3,1.4-1.2,3.5,0.2,4.8c0.5,0.5,1.1,0.8,1.8,0.9c0.1,0,0.1,0,0.1,0.1s0,0,0,0c0,0.2-0.1,0.4-0.2,0.5c-0.3,0.2-0.4,0.6-0.4,0.9
	c0,0,0,0.1,0,0.1L49.3,50.5z"/>
<path class="st0" d="M56,55.8c0,0.1,0,0.2,0.1,0.3c0,0,0,0.1,0,0.1c-0.5,0.3-1.1,0.5-1.7,0.5c-1.3,0.1-2.6-0.3-3.6-1.1l0,0l0,0
	c-1.5,1.3-3.7,1.5-5.4,0.6c0-0.1,0-0.1,0-0.2s0-0.1,0-0.2c1.8,0.6,3.7-0.3,4.4-2.1c0.3-0.8,0.3-1.7-0.1-2.5l0,0l0.3-0.2
	c0.2,0.1,0.3,0.2,0.5,0.2c0.2,0,0.5,0,0.7-0.2c0,0,0.1,0,0.1,0l0.3,0.2c-0.8,1.7,0,3.8,1.8,4.5C54.3,56.1,55.2,56.1,56,55.8L56,55.8
	z"/>
<path class="st0" d="M52.1,53.7c1.7-0.6,2.7-2.4,2.4-4.2h0.6c0.3,0,0.3,0,0.3,0.3c0.1,2-1,3.8-2.8,4.6c0,0-0.1,0-0.1,0
	C52.3,54.2,52.2,54,52.1,53.7z"/>
<path class="st0" d="M53.1,47.2c-1.4-1.1-3.4-1.1-4.8,0l-0.1-0.1L48,46.5c0-0.1,0-0.1,0-0.2c1.6-1.2,3.9-1.2,5.5,0
	c0.1,0,0.1,0.1,0.1,0.2c0,0,0,0,0,0C53.4,46.8,53.3,47,53.1,47.2z"/>
<path class="st0" d="M49,54.5c-1.9-0.8-3.1-2.7-2.9-4.8c0-0.1,0-0.1,0.1-0.1c0.3,0,0.5,0,0.8,0c-0.3,1.8,0.8,3.5,2.4,4.1
	C49.3,54,49.2,54.2,49,54.5z"/>
<path class="st0" d="M82.7,121.2c-1.3,1.5-3,2.5-4.9,2.8c-2.8,0.3-9.2-4.8-16-0.9c0,0,4.3-4.7,3.6-9.8c-1.1,1.1-2.4,2.1-3.8,2.8
	c2.4-2.8,4.4-6,5.9-9.4c1.7-4.6-2.6-11.8-4.1-16.1s0.5-17.5,0.5-17.5S68.4,72,70,68s6-9.4,6-9.4s0.3-11.4-0.8-16.8
	c0.4-0.4,0.5-1,0.5-1.5c-0.3-2.5,0-4-0.4-5c-0.5-1.3-1-0.8-1-0.8s0.8,1.3,0.4,1.5s-0.4-0.9-1-2.2S72.8,33,72.8,33l1.1,3.2
	c0,0,0.1,0.7-0.4-0.2s-1.5-3.9-2-3.6s1.7,3.9,1.6,5.1s-1.4-2.6-2.1-3.3s-0.5,0.2-0.5,0.2c1,3,2.4,6.6,0.1,5.6s-2.2,0-2.2,0
	s0.7-0.6,2.5,1.7l0.1,0.1c0.3,0.3,0.6,0.6,1.1,0.8c-0.6,3-2.6,11.4-2.5,14.5c0,0-15.8,7.7-17.9,14.1c0,0-3.6,0.2-3.6-2.6
	s-2.7-8.3-8.9-4.8c-3.9,2.2-2.7,6.5,0.3,9.6v2h2.6c1.2,0.7,2.4,1.2,3.8,1.3c0,0,1.1,3.1-1.3,3.1c-5.4-2.6-14.9,0.8-14.9,0.8
	c-2.3-4.7-7.7-9.8-9.9-11.7c0.3-0.5,0.4-1,0.3-1.6c0,0,0-0.1,0-0.1c-0.5-3,0.5-3.1,0.5-3.1s-0.7-0.9-1.5,1.6c-0.8,2.5-2.6-1.1-4.2-4
	c0,0-0.5-0.8-0.5,0.2s2.1,4.6,1.1,3.9s-2.3-5-2.8-4.8s1.1,3,1.4,4s-0.1,0.5-0.1,0.5s-1.6-2.9-1.7-3c0,0-0.7-0.3-0.1,1.2
	c0.6,1.5,1.4,2.2,1,2.3s-0.8-1.4-0.8-1.4s-0.7,0,0,1.3c0.5,1,1.7,1.8,3.5,3.8c0.3,0.4,0.8,0.6,1.3,0.7c1.4,2.6,5.4,10,7.1,12.3
	c2,2.8,6,3,9.5,4s11.2,2.6,11.2,2.6c0.9,1.9,2.2,3.5,3.8,4.8c0,0-15.1,3.2-18.5,7.5s-1.5,6,2.7,10.9s9.5,10.7,9.5,10.7
	s-3.4,1.8-4.4,3.5s-3.7,1.5-3.7,1.5c1.3,1.5,3.5,1.9,5.2,0.9c3.1-1.7,6.7-2.9,9.2-2.2c0,0,0.4-2.3-2.7-5.3s-2.1-12.4-10.8-14.4
	c4.3,0.8,21.1,3.6,27.6-2.6c-2.2,3.2-5.4,5.4-9.1,6.4c0,0-2,17.2,6,18.7s16.8-1.4,20.5-2.3s6.4,1,9,3.9
	C88.2,127.3,85.9,123.8,82.7,121.2z"/>
<path class="st0" d="M72.1,30.8l-0.2,0c-0.5-0.2-0.9-0.6-1-1.1C66.4,11.3,48,0,29.7,4.5S0.1,27.4,4.6,45.7c1.2,4.8,3.3,9.2,6.3,13
	c0.6,0.7,0.4,1.7-0.3,2.3c-0.7,0.6-1.7,0.4-2.3-0.3c-12.8-16.2-10-39.7,6.2-52.4s39.7-10,52.4,6.2c3.3,4.2,5.7,9.2,7,14.4
	c0.2,0.8-0.3,1.7-1.1,1.9C72.6,30.8,72.3,30.8,72.1,30.8z"/>
<path class="st0" d="M86.5,62.8c1.8,0,3.6,0.7,4.9,1.9c2.6,2.7,2.6,6.9,0,9.6c-1.3,1.3-3,2-4.9,2h-3.5v6.6H79V62.8H86.5z M86.5,72.6
	c0.8,0,1.6-0.3,2.1-0.9c1.1-1.2,1.1-3.1,0-4.3c-0.5-0.6-1.3-0.9-2.1-0.9h-3.5v6.1L86.5,72.6z"/>
<path class="st0" d="M111.5,62.8h4v20.1h-4V62.8z"/>
<path class="st0" d="M136.1,80.3c-4.1,4.1-10.8,4-14.8-0.1c-4.1-4.1-4-10.7,0-14.8c4.1-4.1,10.8-4,14.8,0.1
	C140.2,69.6,140.2,76.2,136.1,80.3z M124.1,77.6c2.5,2.6,6.6,2.6,9.2,0.1c1.3-1.3,2-3,1.9-4.8c0.1-1.8-0.6-3.5-1.9-4.7
	c-2.6-2.5-6.7-2.5-9.3,0C121.6,70.8,121.6,74.9,124.1,77.6z"/>
<path class="st0" d="M156.4,62.8h4v20.1h-4V62.8z"/>
<path class="st0" d="M176.8,62.8l2.2,3.8h-7v16.3h-4V66.6h-5.4v-3.8H176.8z"/>
<path class="st0" d="M211.4,62.8v1.9h-6.2v18.2h-2V64.7H197v-1.9H211.4z"/>
<path class="st0" d="M214.2,62.8h2v20.1h-2V62.8z"/>
<path class="st0" d="M233.5,62.8v1.9h-6.2v18.2h-2V64.7h-6.2v-1.9H233.5z"/>
<path class="st0" d="M272.7,83.3c-1.7,0-3.3-0.4-4.7-1.3c-1.3-0.8-2.3-2.1-2.8-3.6l1.7-1c0.3,1.2,1,2.2,2,2.9c1.1,0.7,2.4,1.1,3.8,1
	c1.2,0.1,2.5-0.3,3.5-1c0.8-0.6,1.3-1.6,1.3-2.6c0.1-0.9-0.4-1.8-1.1-2.4c-1.2-0.7-2.5-1.3-3.8-1.7c-1.4-0.4-2.8-0.9-4.1-1.6
	c-1.5-0.8-2.3-2.3-2.3-4c-0.1-1.5,0.6-3,1.8-4c1.2-1,2.8-1.5,4.4-1.5c1.5,0,2.9,0.4,4.1,1.2c1.1,0.8,2,1.9,2.6,3.1l-1.7,1
	c-0.7-2.1-2.7-3.4-5-3.3c-1.1,0-2.1,0.3-3,0.9c-0.8,0.6-1.2,1.6-1.1,2.6c-0.1,0.9,0.3,1.7,1,2.2c1.1,0.7,2.2,1.2,3.4,1.5l1.6,0.5
	c0.3,0.1,0.8,0.3,1.4,0.5c0.5,0.2,0.9,0.4,1.3,0.6c0.4,0.2,0.7,0.5,1,0.8c0.4,0.3,0.7,0.6,0.9,1c0.2,0.4,0.4,0.7,0.5,1.2
	c0.1,0.5,0.2,1,0.2,1.4c0.1,1.6-0.6,3.1-1.9,4.1C276.2,82.9,274.5,83.4,272.7,83.3z"/>
<path class="st0" d="M94.8,66.5h6.6c0.7,0,1.4,0.3,1.9,0.9c0.5,0.6,0.8,1.3,0.8,2.1c0,0.8-0.3,1.5-0.8,2.1c-0.5,0.6-1.2,0.9-1.9,0.9
	h-3.1l3,5.2l3,5.2h4.3l-4.4-7.6c1.1-0.5,2.1-1.4,2.8-2.4c0.7-1,1.1-2.2,1.1-3.5c0-3.7-3-6.7-6.7-6.7c0,0,0,0,0,0h-8.7L94.8,66.5z"/>
<polygon class="st0" points="185.8,62.8 181.4,71.2 180.1,68.8 175.9,68.8 179.4,75.1 179.4,82.9 183.3,82.9 183.3,75.1 190.2,62.8 
	"/>
<polygon class="st0" points="242.7,62.8 240.6,62.8 232.9,82.9 235,82.9 241.7,65.3 248.3,82.9 250.4,82.9 "/>
<polygon class="st0" points="260.1,62.8 260.1,79.1 248.9,62.8 247.2,62.8 247.2,67.8 249.2,73.1 249.2,66.5 260.4,82.9 262.1,82.9 
	262.1,62.8 "/>
<radialGradient id="SVGID_5_" cx="79.14" cy="59.01" r="9.82" gradientTransform="matrix(1 0 0 -1 0 134)" gradientUnits="userSpaceOnUse">
	<stop  offset="0" style="stop-color:#333333"/>
	<stop  offset="1" style="stop-color:#CCCCCC;stop-opacity:0"/>
</radialGradient>
<path class="st5" d="M82.9,76.3v6.6H79v-3.1c0-1.9,1.5-3.5,3.5-3.5H82.9z"/>
<radialGradient id="SVGID_6_" cx="99.97" cy="62.04" r="13.52" gradientTransform="matrix(1 0 0 -1 0 134)" gradientUnits="userSpaceOnUse">
	<stop  offset="0" style="stop-color:#333333"/>
	<stop  offset="1" style="stop-color:#CCCCCC;stop-opacity:0"/>
</radialGradient>
<path class="st6" d="M104.2,75.3c0,0-4,0.5-1.9,4l2.1,3.6h4.3L104.2,75.3z"/>
<path class="st0" d="M139.8,66.5h6.6c0.7,0,1.4,0.3,1.9,0.9c0.5,0.6,0.8,1.3,0.8,2.1c0,0.8-0.3,1.5-0.8,2.1
	c-0.5,0.6-1.2,0.9-1.9,0.9h-3.1l3,5.2l3.1,5.2h4.3l-4.4-7.6c1.1-0.5,2.1-1.4,2.8-2.4c0.7-1,1.1-2.2,1.1-3.5c0-3.7-3-6.7-6.6-6.7
	c0,0,0,0,0,0h-8.7L139.8,66.5z"/>
<radialGradient id="SVGID_7_" cx="145.01" cy="62.04" r="13.52" gradientTransform="matrix(1 0 0 -1 0 134)" gradientUnits="userSpaceOnUse">
	<stop  offset="0" style="stop-color:#333333"/>
	<stop  offset="1" style="stop-color:#CCCCCC;stop-opacity:0"/>
</radialGradient>
<path class="st7" d="M149.2,75.3c0,0-4,0.5-1.9,4l2.1,3.6h4.3L149.2,75.3z"/>
<radialGradient id="SVGID_8_" cx="137.41" cy="69.07" r="18.93" gradientTransform="matrix(1 0 0 -1 0 134)" gradientUnits="userSpaceOnUse">
	<stop  offset="0" style="stop-color:#333333"/>
	<stop  offset="1" style="stop-color:#CCCCCC;stop-opacity:0"/>
</radialGradient>
<path class="st8" d="M128.7,66.2c1.7,0,3.4,0.6,4.6,1.9c2.5,2.7,2.5,6.8,0,9.5c-1.2,1.2-2.9,1.9-4.6,1.9c-1.4,0-2.7-0.4-3.8-1.2
	l-0.9,4c1.5,0.7,3.1,1.1,4.7,1.1c2.8,0.1,5.5-1,7.4-3c1.1-1.1,2-2.5,2.5-4C137.6,65,128.7,66.2,128.7,66.2z"/>
<radialGradient id="SVGID_9_" cx="183.8" cy="57.05" r="13.02" gradientTransform="matrix(1 0 0 -1 0 134)" gradientUnits="userSpaceOnUse">
	<stop  offset="0" style="stop-color:#333333"/>
	<stop  offset="1" style="stop-color:#CCCCCC;stop-opacity:0"/>
</radialGradient>
<polygon class="st9" points="181.4,71.2 179.4,75.1 175.9,68.8 180.1,68.8 "/>
<radialGradient id="SVGID_10_" cx="170.97" cy="71.43" r="18.92" gradientTransform="matrix(1 0 0 -1 0 134)" gradientUnits="userSpaceOnUse">
	<stop  offset="0" style="stop-color:#333333"/>
	<stop  offset="1" style="stop-color:#CCCCCC;stop-opacity:0"/>
</radialGradient>
<path class="st10" d="M172,70v13h-4V66.6h0.6c1.9,0,3.4,1.5,3.4,3.3C172,69.9,172,70,172,70z"/>
<path class="st0" d="M125.9,106.1l-2.8-4.8H121v4.8h-2.7V92.2h5.6c2.5,0,4.6,2,4.6,4.6c0,0,0,0,0,0c0,0.9-0.3,1.7-0.7,2.4
	c-0.5,0.7-1.2,1.3-1.9,1.7l3.1,5.3L125.9,106.1z M121,94.7v4.1h2.8c0.5,0,1-0.2,1.3-0.6c0.4-0.4,0.6-0.9,0.6-1.5
	c0-0.5-0.2-1.1-0.6-1.4c-0.3-0.4-0.8-0.6-1.3-0.6L121,94.7z"/>
<path class="st0" d="M145.8,106.4c-1.2,0-2.4-0.3-3.5-0.9c-0.9-0.6-1.6-1.5-2-2.5l2.4-1.4c0.5,1.4,1.8,2.2,3.2,2.1
	c0.6,0,1.2-0.1,1.7-0.4c0.3-0.2,0.5-0.6,0.5-1.1c0-0.5-0.2-0.9-0.7-1.1c-0.7-0.4-1.5-0.7-2.3-0.9c-0.5-0.2-1.1-0.3-1.6-0.6
	c-0.5-0.2-0.9-0.5-1.3-0.8c-0.4-0.3-0.8-0.7-1-1.2c-0.2-0.5-0.4-1.1-0.3-1.7c0-1.2,0.5-2.3,1.3-3c0.9-0.8,2.1-1.1,3.2-1.1
	c1.1,0,2.1,0.3,3,0.8c0.9,0.6,1.6,1.4,2,2.3l-2.3,1.3c-0.4-1.1-1.5-1.8-2.7-1.8c-0.5,0-1,0.1-1.3,0.4c-0.3,0.2-0.5,0.6-0.5,1
	c0,0.4,0.2,0.8,0.6,1.1c0.7,0.4,1.4,0.7,2.1,0.9l1,0.3l0.9,0.3c0.3,0.1,0.6,0.3,0.9,0.5c0.2,0.2,0.5,0.3,0.7,0.5
	c0.2,0.2,0.4,0.4,0.6,0.7c0.2,0.3,0.3,0.6,0.4,0.9c0.1,0.4,0.2,0.7,0.1,1.1c0,1.2-0.5,2.3-1.4,3.1
	C148.4,106.1,147.1,106.4,145.8,106.4z"/>
<path class="st0" d="M161.3,92.2v2.6h-3.8v11.3h-2.8V94.8h-3.7v-2.6H161.3z"/>
<path class="st0" d="M173.8,104.3c-2.8,2.9-7.5,2.9-10.4,0.1c-2.9-2.8-2.9-7.5-0.1-10.4s7.5-2.9,10.4-0.1c1.4,1.4,2.2,3.3,2.2,5.2
	C175.9,101.1,175.1,102.9,173.8,104.3z M165.4,102.4c1.7,1.8,4.6,1.8,6.4,0c0.9-0.9,1.4-2.1,1.3-3.3c0-1.2-0.4-2.4-1.3-3.3
	c-1.8-1.7-4.6-1.7-6.4,0C163.7,97.7,163.7,100.6,165.4,102.4z"/>
<path class="st0" d="M185.4,106.1l-2.8-4.8h-2.1v4.8h-2.8V92.2h5.6c2.5,0,4.6,2.1,4.6,4.6c0,0.9-0.3,1.7-0.7,2.4
	c-0.5,0.7-1.2,1.3-2,1.7l3.1,5.3L185.4,106.1z M180.6,94.7v4.1h2.8c0.5,0,1-0.2,1.3-0.6c0.4-0.4,0.6-0.9,0.6-1.5
	c0-0.5-0.2-1.1-0.6-1.4c-0.3-0.4-0.8-0.6-1.3-0.6L180.6,94.7z"/>
<path class="st0" d="M199.2,106.1l-0.9-2.5h-5.7l-0.8,2.5h-3l4.9-13.9h3.4l5,13.9H199.2z M193.5,101h3.9l-2-5.7L193.5,101z"/>
<path class="st0" d="M211.5,92.2v2.6h-3.8v11.3H205V94.8h-3.7v-2.6H211.5z"/>
<path class="st0" d="M213,92.2h2.8v13.9H213V92.2z"/>
<path class="st0" d="M237.5,92.2h2.7v13.9h-2.1l-6-8.5v1.6h-2.7v-7h2.1l6,8.5L237.5,92.2z"/>
<path class="st0" d="M230.1,94c-0.2-0.2-0.4-0.4-0.6-0.6v5.7c0,2.5-2,4.5-4.5,4.5s-4.5-2-4.5-4.5l0,0c0-1.2,0.4-2.4,1.3-3.3
	c0.8-0.9,2-1.3,3.2-1.3c0.9,0,1.9,0.3,2.6,0.8v-0.8c0-1.5-1.1-2.7-2.6-2.7l0,0c-4,0-7.2,3.3-7.1,7.2s3.3,7.2,7.2,7.1
	c4,0,7.2-3.3,7.1-7.2C232.2,97.1,231.5,95.3,230.1,94L230.1,94z"/>
<polygon class="st0" points="133.2,94.8 138.5,94.8 139,94.8 139,92.2 130.4,92.2 130.4,94.8 "/>
<polygon class="st0" points="133.2,103.5 133.2,100.3 138.5,100.3 138.5,97.8 133.2,97.8 130.4,97.8 130.4,106.1 139.1,106.1 
	139.1,103.5 "/>
<path class="st0" d="M278.6,100.1h-21c-0.5-0.1-0.9-0.5-0.8-1c0-0.4,0.4-0.8,0.8-0.8h21c0.5-0.1,1,0.3,1,0.8c0.1,0.5-0.3,1-0.8,1
	C278.7,100.1,278.7,100.1,278.6,100.1z"/>
<path class="st0" d="M100.9,100.1h-21c-0.5-0.1-0.9-0.5-0.8-1c0-0.4,0.4-0.8,0.8-0.8h21c0.5-0.1,1,0.3,1,0.8c0.1,0.5-0.3,1-0.8,1
	C101,100.1,100.9,100.1,100.9,100.1z"/>
<rect x="24.4" y="150.9" style="fill:none;" width="236.8" height="32.6"/>
<text transform="matrix(1 0 0 1 24.3999 159.4052)"><tspan x="0" y="0" style="font-family:'MyriadPro-Regular'; font-size:12px;">WARNING: THIS WEBSITE WAS STOLEN </tspan><tspan x="0" y="14.4" style="font-family:'MyriadPro-Regular'; font-size:12px;">DO NOT TRUST THIS WABSITE</tspan></text>
<rect x="24.4" y="185" style="fill:none;" width="236.8" height="64"/>
<text transform="matrix(1 0 0 1 24.3999 193.5095)"><tspan x="0" y="0" style="font-family:'MyriadPro-Regular'; font-size:12px;">ALL RIGHTS RESERVED AND BELONG TO </tspan><tspan x="0" y="14.4" style="font-family:'MyriadPro-Regular'; font-size:12px;">VIACHESLAV RYBAK</tspan><tspan x="0" y="28.8" style="font-family:'MyriadPro-Regular'; font-size:12px;">viacheslav.rybak.pb@gmail.com</tspan></text>
<rect x="21.8" y="-995.7" style="fill:none;" width="236.8" height="64"/>
<text transform="matrix(1 0 0 1 21.8489 -987.1747)"><tspan x="0" y="0" style="font-family:'MyriadPro-Regular'; font-size:12px;">ALL RIGHTS RESERVED AND BELONG TO </tspan><tspan x="0" y="14.4" style="font-family:'MyriadPro-Regular'; font-size:12px;">VIACHESLAV RYBAK</tspan><tspan x="0" y="28.8" style="font-family:'MyriadPro-Regular'; font-size:12px;">viacheslav.rybak.pb@gmail.com</tspan></text>
</svg>
