<?xml version="1.0" encoding="utf-8"?>
<!-- Generator: Adobe Illustrator 23.0.0, SVG Export Plug-In . SVG Version: 6.00 Build 0)  -->
<svg version="1.1" id="Layer_1" xmlns="http://www.w3.org/2000/svg" xmlns:xlink="http://www.w3.org/1999/xlink" x="0px" y="0px"
	 viewBox="0 0 280 132" style="enable-background:new 0 0 280 132;" xml:space="preserve">
<style type="text/css">
	.st0{fill:#2E3192;}
	.st1{fill:url(#SVGID_1_);}
	.st2{fill:url(#SVGID_2_);}
	.st3{fill:url(#SVGID_3_);}
	.st4{fill:url(#SVGID_4_);}
	.st5{fill:#FFFFFF;}
	.st6{fill:url(#SVGID_5_);}
	.st7{fill:url(#SVGID_6_);}
	.st8{fill:url(#SVGID_7_);}
	.st9{fill:url(#SVGID_8_);}
	.st10{fill:url(#SVGID_9_);}
	.st11{fill:url(#SVGID_10_);}
</style>
<title>logo</title>
<path class="st0" d="M99.3,121.4l-2.3-8.3h1.2l1.9,6.8l2-6.8h1.1l2,6.8l1.9-6.8h1.1l-2.3,8.3h-1.3l-2-6.6l-2,6.6H99.3z"/>
<path class="st0" d="M113.5,115.4h1v5.9h-1v-1c-0.5,0.8-1.3,1.2-2.2,1.2c-0.8,0-1.6-0.3-2.1-0.9c-1.2-1.2-1.2-3.2,0-4.4
	c0.5-0.6,1.3-0.9,2.1-0.9c0.9,0,1.8,0.4,2.2,1.2V115.4z M111.4,120.5c1.1,0,2.1-0.9,2.1-2c0,0,0-0.1,0-0.1c0-0.6-0.2-1.1-0.6-1.5
	c-0.4-0.4-0.9-0.6-1.5-0.6c-0.6,0-1.1,0.2-1.5,0.6c-0.8,0.8-0.8,2.2,0,3C110.3,120.3,110.8,120.5,111.4,120.5z"/>
<path class="st0" d="M119.3,116.4h-1.6v3.2c0,0.2,0,0.4,0.2,0.6c0.1,0.1,0.3,0.2,0.5,0.2c0.2,0,0.5,0,0.9,0v0.9
	c-0.7,0.2-1.4,0.1-2-0.2c-0.5-0.4-0.7-0.9-0.6-1.5v-3.2h-1.2v-1h1.2v-1.4l1-0.3v1.7h1.6L119.3,116.4z"/>
<path class="st0" d="M121,118.9c0.1,0.5,0.3,0.9,0.7,1.2c0.4,0.3,0.9,0.5,1.4,0.4c0.7,0,1.3-0.3,1.7-0.9l0.9,0.5
	c-0.6,0.9-1.6,1.4-2.6,1.3c-0.9,0-1.7-0.3-2.3-0.9c-1.2-1.2-1.3-3.2-0.1-4.4c0.6-0.6,1.4-1,2.3-0.9c0.8,0,1.6,0.3,2.1,0.9
	c0.5,0.6,0.8,1.4,0.8,2.2c0,0.2,0,0.3,0,0.5L121,118.9z M123.1,116.3c-1,0-1.9,0.7-2.1,1.7h4c-0.1-0.5-0.3-1-0.7-1.3
	C124,116.4,123.5,116.2,123.1,116.3L123.1,116.3z"/>
<path class="st0" d="M128.2,116.4c0.3-0.7,1.1-1.2,1.9-1.1v1.1c-0.5,0-0.9,0.1-1.3,0.4c-0.4,0.4-0.6,0.9-0.6,1.4v3.1h-1v-5.9h1
	V116.4z"/>
<path class="st0" d="M134.1,123.8v-10.9h1v10.9H134.1z"/>
<path class="st0" d="M144.7,114.1H141v2.7h3.5v1H141v3.5h-1.1V113h4.8L144.7,114.1z"/>
<path class="st0" d="M146.4,114.4c-0.2,0-0.4-0.1-0.5-0.2c-0.3-0.3-0.3-0.7,0-1c0.1-0.1,0.3-0.2,0.5-0.2c0.2,0,0.4,0.1,0.5,0.2
	c0.3,0.3,0.3,0.7,0,1C146.8,114.3,146.6,114.4,146.4,114.4z M145.9,121.4v-5.9h1v5.9H145.9z"/>
<path class="st0" d="M149.6,116.4c0.3-0.7,1.1-1.2,1.9-1.1v1.1c-0.5,0-0.9,0.1-1.3,0.4c-0.4,0.4-0.6,0.9-0.6,1.4v3.1h-1v-5.9h1
	V116.4z"/>
<path class="st0" d="M152.8,118.9c0.1,0.5,0.3,0.9,0.7,1.2c0.4,0.3,0.9,0.5,1.4,0.4c0.7,0,1.3-0.3,1.7-0.9l0.9,0.5
	c-0.6,0.9-1.6,1.4-2.6,1.3c-0.9,0-1.7-0.3-2.3-0.9c-1.2-1.3-1.2-3.2,0-4.5c0.6-0.6,1.4-0.9,2.2-0.9c0.8,0,1.6,0.3,2.1,0.9
	c0.5,0.6,0.8,1.4,0.8,2.2c0,0.2,0,0.3,0,0.5L152.8,118.9z M154.9,116.3c-0.5,0-1,0.1-1.4,0.5c-0.4,0.3-0.6,0.8-0.7,1.3h4
	c-0.1-0.5-0.3-1-0.7-1.3C155.8,116.4,155.3,116.3,154.9,116.3z"/>
<path class="st0" d="M162.1,123.8v-10.9h1v10.9H162.1z"/>
<path class="st0" d="M175.6,113.1v8.3h-1.1v-6.5l-2.7,4.5h-0.1l-2.7-4.5v6.5h-1.1v-8.3h1.2l2.7,4.4l2.6-4.4L175.6,113.1z"/>
<path class="st0" d="M182.3,120.6c-1.2,1.2-3.2,1.2-4.4,0c-1.2-1.2-1.2-3.2,0-4.4c1.2-1.2,3.2-1.2,4.4,0
	C183.5,117.4,183.5,119.4,182.3,120.6z M180.1,120.5c0.6,0,1.1-0.2,1.5-0.6c0.4-0.4,0.6-0.9,0.6-1.5c0-1.1-0.9-2.1-2-2.1
	c0,0,0,0-0.1,0c-0.6,0-1.1,0.2-1.5,0.6c-0.4,0.4-0.6,0.9-0.6,1.5c0,0.6,0.2,1.1,0.6,1.5C179,120.3,179.5,120.5,180.1,120.5z"/>
<path class="st0" d="M184.4,121.4v-8.7h1v8.7H184.4z"/>
<path class="st0" d="M192,113.1h1v8.3h-1v-1c-0.5,0.8-1.3,1.2-2.2,1.2c-0.8,0-1.6-0.3-2.1-0.9c-1.2-1.2-1.2-3.2,0-4.4
	c0.5-0.6,1.3-0.9,2.1-0.9c0.9,0,1.8,0.4,2.2,1.2V113.1z M189.9,120.5c1.1,0,2.1-0.9,2.1-2c0,0,0-0.1,0-0.1c0-0.6-0.2-1.1-0.6-1.5
	c-0.4-0.4-0.9-0.6-1.5-0.6c-0.6,0-1.1,0.2-1.5,0.6c-0.8,0.8-0.8,2.2,0,3C188.8,120.3,189.3,120.5,189.9,120.5L189.9,120.5z"/>
<path class="st0" d="M197.6,123.8v-10.9h1v10.9H197.6z"/>
<path class="st0" d="M208.1,117.1c0.4,0.2,0.7,0.4,0.9,0.8c0.2,0.3,0.4,0.8,0.3,1.2c0,0.6-0.2,1.2-0.7,1.7c-0.5,0.4-1.1,0.7-1.7,0.7
	h-3.6v-8.3h3.3c0.6,0,1.2,0.2,1.6,0.7c0.4,0.4,0.7,1,0.7,1.6C209.1,116,208.7,116.7,208.1,117.1z M206.7,114.1h-2.2v2.5h2.2
	c0.3,0,0.6-0.1,0.9-0.4c0.5-0.5,0.5-1.3,0-1.8C207.4,114.2,207,114.1,206.7,114.1L206.7,114.1z M207,120.3c0.4,0,0.7-0.1,0.9-0.4
	c0.3-0.3,0.4-0.6,0.4-1c0-0.4-0.1-0.7-0.4-0.9c-0.2-0.3-0.6-0.4-0.9-0.4h-2.5v2.7L207,120.3z"/>
<path class="st0" d="M211.1,114.4c-0.2,0-0.4-0.1-0.5-0.2c-0.3-0.3-0.3-0.7,0-1c0,0,0,0,0,0c0.1-0.1,0.3-0.2,0.5-0.2
	c0.2,0,0.4,0.1,0.5,0.2c0.3,0.3,0.3,0.7,0,1c0,0,0,0,0,0C211.5,114.3,211.3,114.4,211.1,114.4z M210.6,121.4v-5.9h1v5.9H210.6z"/>
<path class="st0" d="M218.2,120.6c-1.2,1.2-3.2,1.2-4.4,0c-1.2-1.2-1.2-3.2,0-4.4c1.2-1.2,3.2-1.2,4.4,0
	C219.4,117.4,219.4,119.4,218.2,120.6z M216,120.5c1.1,0,2.1-0.9,2.1-2c0,0,0-0.1,0-0.1c0-1.1-0.9-2.1-2-2.1c0,0,0,0-0.1,0
	c-0.6,0-1.1,0.2-1.5,0.6c-0.4,0.4-0.6,0.9-0.6,1.5c0,0.6,0.2,1.1,0.6,1.5C214.9,120.3,215.4,120.5,216,120.5L216,120.5z"/>
<path class="st0" d="M223.3,115.3c0.7,0,1.3,0.2,1.7,0.7c0.4,0.5,0.7,1.1,0.6,1.8v3.6h-1v-3.6c0-0.4-0.1-0.8-0.4-1.1
	c-0.3-0.3-0.7-0.4-1.1-0.4c-0.5,0-0.9,0.2-1.2,0.5c-0.4,0.4-0.5,0.9-0.5,1.5v3.1h-1v-8.3h1v3.2C221.8,115.7,222.5,115.3,223.3,115.3
	z"/>
<path class="st0" d="M231.9,115.4h1v5.9h-1v-1c-0.5,0.8-1.3,1.2-2.2,1.2c-0.8,0-1.6-0.3-2.1-0.9c-1.2-1.2-1.2-3.2,0-4.4
	c0.5-0.6,1.3-0.9,2.1-0.9c0.9,0,1.8,0.4,2.2,1.2V115.4z M229.8,120.5c0.6,0,1.1-0.2,1.5-0.6c0.8-0.8,0.8-2.2,0-3
	c-0.8-0.8-2.2-0.8-3,0c-0.8,0.8-0.8,2.2,0,3C228.7,120.3,229.2,120.5,229.8,120.5z"/>
<path class="st0" d="M235.7,120.4h3.2v1h-4.6v-0.7l3-4.3h-2.9v-1h4.3v0.7L235.7,120.4z"/>
<path class="st0" d="M244.6,115.4h1v5.9h-1v-1c-0.5,0.8-1.3,1.2-2.2,1.2c-0.8,0-1.6-0.3-2.1-0.9c-1.2-1.2-1.2-3.2,0-4.4
	c0.5-0.6,1.3-0.9,2.1-0.9c0.9,0,1.8,0.4,2.2,1.2V115.4z M242.5,120.5c1.1,0,2.1-0.9,2.1-2c0,0,0-0.1,0-0.1c0-0.6-0.2-1.1-0.6-1.5
	c-0.4-0.4-0.9-0.6-1.5-0.6c-0.6,0-1.1,0.2-1.5,0.6c-0.8,0.8-0.8,2.2,0,3C241.4,120.3,242,120.5,242.5,120.5z"/>
<path class="st0" d="M248.3,116.4c0.3-0.7,1.1-1.2,1.9-1.1v1.1c-0.5,0-0.9,0.1-1.3,0.4c-0.4,0.4-0.6,0.9-0.5,1.4v3.1h-1v-5.9h1
	L248.3,116.4z"/>
<path class="st0" d="M255.7,113.1h1v8.3h-1v-1c-0.5,0.8-1.3,1.2-2.2,1.2c-0.8,0-1.6-0.3-2.1-0.9c-1.2-1.2-1.2-3.2,0-4.4
	c0.5-0.6,1.3-0.9,2.1-0.9c0.9,0,1.8,0.4,2.2,1.2L255.7,113.1z M253.6,120.5c0.6,0,1.1-0.2,1.5-0.6c0.8-0.8,0.8-2.2,0-3
	c-0.4-0.4-0.9-0.6-1.5-0.6c-0.6,0-1.1,0.2-1.5,0.6c-0.8,0.8-0.8,2.2,0,3C252.5,120.3,253,120.5,253.6,120.5z"/>
<radialGradient id="SVGID_1_" cx="46.96" cy="128.22" r="42.15" gradientTransform="matrix(1 0 0 -1 0 134)" gradientUnits="userSpaceOnUse">
	<stop  offset="0" style="stop-color:#FF1C24"/>
	<stop  offset="1" style="stop-color:#A71C24"/>
</radialGradient>
<path class="st1" d="M39.3,35.7h26.8C65.2,21.3,53.7,9.8,39.3,8.9V35.7z"/>
<radialGradient id="SVGID_2_" cx="38.38" cy="97.05" r="30.28" gradientTransform="matrix(1 0 0 -1 0 134)" gradientUnits="userSpaceOnUse">
	<stop  offset="0" style="stop-color:#FBB03B"/>
	<stop  offset="1" style="stop-color:#F15A24"/>
</radialGradient>
<path class="st2" d="M42.8,60.6c1.8,0,3.5,0.7,4.8,2c0.4,0.4,0.8,0.8,1.1,1.3c10-4.2,16.8-13.8,17.5-24.6H39.3v22.1
	C40.4,60.9,41.6,60.6,42.8,60.6z"/>
<radialGradient id="SVGID_3_" cx="37.62" cy="143.86" r="48.49" gradientTransform="matrix(1 0 0 -1 0 134)" gradientUnits="userSpaceOnUse">
	<stop  offset="0" style="stop-color:#00FFFF"/>
	<stop  offset="1" style="stop-color:#29ABE2"/>
</radialGradient>
<path class="st3" d="M35.7,35.7V8.9C21.3,9.8,9.8,21.3,8.9,35.7H35.7z"/>
<radialGradient id="SVGID_4_" cx="14.7" cy="97.7" r="29" gradientTransform="matrix(1 0 0 -1 0 134)" gradientUnits="userSpaceOnUse">
	<stop  offset="0" style="stop-color:#8CC63F"/>
	<stop  offset="1" style="stop-color:#399F4A"/>
</radialGradient>
<path class="st4" d="M35.7,39.3H8.9c0.9,14.4,12.4,25.9,26.8,26.8V39.3z"/>
<path class="st5" d="M29.3,22c-0.5-0.5-0.9-1.1-1.3-1.6l-3.6-4.8l-3.6,4.7c-0.4,0.6-0.9,1.1-1.3,1.6c-2.2,2.7-1.8,6.7,0.9,8.9
	s6.7,1.8,8.9-0.9C31.2,27.6,31.2,24.3,29.3,22L29.3,22z M24.4,30.8c-2.7,0-4.8-2.2-4.9-4.9c0-0.3,0.2-0.5,0.5-0.5
	c0.3,0,0.5,0.2,0.5,0.5c0,2.2,1.7,3.9,3.9,3.9c0,0,0,0,0,0c0.3,0,0.5,0.1,0.5,0.4c0,0.3-0.1,0.5-0.4,0.5
	C24.5,30.8,24.4,30.8,24.4,30.8z"/>
<path class="st5" d="M54,22.4c-1.2-1.3-0.7-3.9-0.7-3.9c-2.9,2.7-1.1,7.1-1.1,7.1c-1.8-1.6-0.8-3.5-0.9-5.1c-0.4-4-3.1-5.1-3.1-5.1
	c0.5,0.6,0.6,3-0.7,5.2c-0.8,1.2-1.2,2.7-1,4.2c-0.6-0.7-0.7-1.6-0.4-2.4c0.3-1-0.1-2-0.9-2.7c0.4,2.9-1.6,2-1.6,6.6
	c-0.2,2.5,1.4,4.8,3.9,5.5c0,0-1.9-0.5,1.8-7.9c3.6,7.5,1.8,7.9,1.8,7.9h0.2C56.5,30.5,56.2,24.9,54,22.4z"/>
<path class="st5" d="M26.2,54.5c0.1,0.3,0.1,0.5,0.2,0.8s0.4,0.8,0.5,1.1c0.2,0.5-0.1,1.1-0.7,1.2c-0.4,0.1-0.7,0-1-0.3
	c-0.3-0.2-0.4-0.6-0.3-1c0.2-0.7,0.3-1.5,0.2-2.2c0-0.3-0.2-0.5-0.4-0.5c-0.3,0-0.5,0.1-0.6,0.3c-0.3,0.5-0.4,1.1-0.5,1.7
	c0,0.4-0.3,0.8-0.7,0.9c-0.5,0-0.9-0.3-0.9-0.8c0-0.3,0.1-0.6,0.3-0.7c0.5-0.1,0.7-0.6,0.6-1c0-0.1,0-0.1-0.1-0.2
	c-0.1-0.2-0.1-0.4-0.2-0.6c-0.1-0.2-0.3-0.2-0.4,0c-0.1,0.2-0.2,0.3-0.3,0.5c-0.1,0.3-0.3,0.5-0.6,0.5c-0.3,0-0.5-0.2-0.5-0.4
	c-0.1-0.3,0.1-0.5,0.3-0.7c0.2-0.1,0.3-0.2,0.5-0.4c0.1-0.2,0.1-0.4,0-0.6c0,0-0.1-0.1-0.2-0.1c-0.3-0.1-0.6-0.1-0.8,0
	c-0.8,0.3-1.4,0.7-2,1.2c-0.2,0.2-0.5,0.2-0.8,0.1c-0.2-0.1-0.4-0.4-0.3-0.7c0-0.3,0.3-0.5,0.6-0.5c0.9,0,1.7-0.4,2.3-1
	c0.2-0.2,0.4-0.4,0.5-0.7c0.1-0.1,0-0.3-0.1-0.3c0,0-0.1,0-0.1,0c-0.2,0-0.5,0-0.7,0.1c-0.2,0.1-0.5,0-0.7-0.2
	c-0.1-0.2-0.1-0.6,0.1-0.8c0.2-0.2,0.5-0.2,0.8,0l0.1,0c0.5,0.5,0.8,0.3,1.1-0.2c0.3-0.5,0.3-1.1,0-1.6c-0.2-0.5-0.6-0.9-1-1.1
	c-0.6-0.4-1.3-0.6-1.9-0.8c-0.3-0.1-0.5-0.4-0.5-0.7c0-0.3,0.3-0.6,0.6-0.6c0.2,0,0.4,0,0.5,0.2c1,0.8,2.1,1.6,3.2,2.2
	c0.4,0.2,0.8,0.2,1.1-0.1c0.4-0.3,0.5-0.7,0.4-1.2c-0.1-0.3-0.2-0.5-0.3-0.8c-0.1-0.3-0.3-0.5-0.4-0.8c-0.2-0.5,0.1-1.1,0.6-1.3
	c0.3-0.1,0.6-0.1,0.8,0.1c0.4,0.2,0.5,0.7,0.5,1.1c-0.2,0.7-0.2,1.5-0.1,2.3c0,0.3,0.2,0.5,0.4,0.6c0.3,0,0.5-0.2,0.6-0.4
	c0.2-0.6,0.4-1.2,0.4-1.9c0-0.5,0.4-0.9,0.9-0.9c0.1,0,0.1,0,0.2,0c0.4,0.1,0.6,0.4,0.7,0.7c0.1,0.4-0.1,0.7-0.4,0.9
	c-0.4,0.1-0.7,0.6-0.5,1c0,0,0,0.1,0.1,0.1c0.1,0.2,0.2,0.4,0.3,0.6c0.1,0.2,0.3,0.2,0.4,0c0.1-0.2,0.2-0.3,0.2-0.5
	c0.1-0.3,0.4-0.5,0.7-0.4c0.2,0,0.3,0.2,0.4,0.3c0.1,0.3-0.1,0.5-0.3,0.7c-0.2,0.1-0.3,0.2-0.5,0.4c-0.1,0.2-0.1,0.4,0,0.5
	c0,0,0.1,0.1,0.2,0.1c0.3,0.1,0.6,0.1,0.9-0.1c0.7-0.3,1.4-0.8,2-1.3c0.2-0.2,0.5-0.3,0.8-0.1c0.2,0.1,0.4,0.4,0.3,0.7
	c-0.1,0.3-0.3,0.5-0.6,0.5c-1.1,0.1-2,0.7-2.5,1.7c-0.2,0.3,0,0.5,0.3,0.5c0.2,0,0.3-0.1,0.5-0.1c0.3-0.2,0.6-0.1,0.8,0.2
	c0.1,0.2,0.1,0.4,0,0.6c-0.2,0.3-0.5,0.4-0.8,0.2c0,0,0,0-0.1,0c-0.2-0.1-0.4-0.2-0.6-0.2c-0.3-0.1-0.5,0.2-0.4,0.5
	c0.1,0.3,0.2,0.5,0.5,0.7c0.6,0.5,1.4,0.9,2.2,1.1c0.4,0.1,0.7,0.5,0.7,1c0,0.5-0.5,0.9-1,0.9c-0.3,0-0.6-0.2-0.8-0.5
	c-0.2-0.4-0.6-0.8-0.9-1.2c-0.4-0.4-1-0.5-1.6-0.4c-0.1,0-0.2,0.1-0.3,0.2c0,0.1,0.1,0.2,0.2,0.3c0.1,0.1,0.3,0.2,0.5,0.2
	c0.4,0.1,0.7,0.5,0.6,0.9c-0.1,0.4-0.4,0.7-0.8,0.7c-0.4,0-0.7-0.4-0.8-0.8c0-0.2-0.1-0.3-0.2-0.5c-0.1-0.2-0.3-0.2-0.5-0.1
	c0,0-0.1,0-0.1,0.1C26.4,53.6,26.2,54,26.2,54.5L26.2,54.5z M27.2,51.5c0.5,0,0.9-0.4,0.9-0.9c0,0,0-0.1,0-0.1
	c0-0.5-0.4-0.9-0.9-0.9c-0.5,0-0.9,0.4-0.9,0.8c-0.1,0.5,0.3,1,0.8,1.1C27.1,51.5,27.2,51.5,27.2,51.5L27.2,51.5z M24.6,48.7
	c0,0.4,0.3,0.8,0.7,0.8c0.4,0,0.8-0.3,0.8-0.7c0-0.1,0-0.1,0-0.2c0-0.4-0.4-0.8-0.8-0.8c0,0,0,0,0,0C25,48,24.6,48.3,24.6,48.7
	C24.6,48.7,24.6,48.8,24.6,48.7L24.6,48.7z M25.4,52.4c0.3,0.1,0.5-0.1,0.6-0.4s-0.1-0.5-0.4-0.6c-0.1,0-0.1,0-0.2,0
	c-0.3,0.1-0.5,0.3-0.4,0.6C25,52.2,25.2,52.4,25.4,52.4z M23.3,50.2c0.2,0,0.4-0.2,0.5-0.4c0-0.3-0.2-0.5-0.5-0.5
	c-0.2,0-0.5,0.2-0.5,0.4c0,0.2,0.1,0.5,0.4,0.5C23.2,50.2,23.2,50.2,23.3,50.2L23.3,50.2z M23.3,51.2c-0.3,0-0.5,0.2-0.5,0.5
	c0,0.3,0.3,0.4,0.5,0.4c0.2,0,0.4-0.2,0.4-0.4C23.7,51.4,23.5,51.2,23.3,51.2L23.3,51.2z M23.7,48.2c0.2,0,0.4-0.1,0.4-0.3
	c0-0.2-0.1-0.4-0.3-0.4c0,0-0.1,0-0.1,0c-0.2,0-0.4,0.2-0.4,0.4c0,0,0,0,0,0C23.2,48,23.4,48.2,23.7,48.2
	C23.6,48.3,23.6,48.3,23.7,48.2L23.7,48.2z M27,48.2c0.2,0,0.3-0.1,0.3-0.2c0-0.1-0.1-0.2-0.2-0.3c0,0,0,0,0,0
	c-0.1,0-0.2,0.1-0.3,0.2c0,0,0,0,0,0C26.7,48.1,26.8,48.2,27,48.2C26.9,48.3,26.9,48.3,27,48.2L27,48.2z"/>
<path class="st5" d="M52,50.4l-0.3-0.2c0,0,0-0.1,0-0.1c0-0.4-0.2-0.8-0.5-1c0,0-0.1,0-0.1-0.1c0-0.1,0-0.3,0-0.3s0.2,0,0.3-0.1
	c1.8-0.4,3-2.2,2.6-4.1c-0.1-0.6-0.4-1.1-0.8-1.6c-0.1-0.1-0.2-0.2-0.3-0.3l0.2-0.2c0.9,0.5,1.6,1.3,2,2.2c0.4,0.8,0.5,1.8,0.3,2.7
	c0,0.1,0,0.1,0.1,0.2c1.8,0.7,3,2.3,3.1,4.2c0,0.1,0,0.1,0,0.2c0,0.2,0,0.2-0.2,0.2h-0.2c-0.3-1.9-2-3.2-3.9-2.9
	C53.4,49.2,52.5,49.7,52,50.4z"/>
<path class="st5" d="M49.2,50.4c-1.2-1.5-3.3-1.8-4.8-0.6c-0.7,0.6-1.2,1.4-1.3,2.3c-0.1,0-0.2,0-0.3-0.1c0,0,0-0.1,0-0.1
	c0-0.7,0.2-1.5,0.5-2.1c0.5-1.1,1.5-1.9,2.6-2.3c0.1,0,0.1-0.1,0.1-0.1c-0.3-1.9,0.5-3.9,2.2-4.9h0.1l0.2,0.2l-0.3,0.4
	c-1.3,1.4-1.2,3.5,0.2,4.8c0.5,0.5,1.1,0.8,1.8,0.9c0.1,0,0.1,0,0.1,0.1l0,0c0,0.2-0.1,0.4-0.2,0.5c-0.3,0.2-0.4,0.6-0.4,0.9
	c0,0,0,0.1,0,0.1L49.2,50.4z"/>
<path class="st5" d="M55.9,55.6c0,0.1,0.1,0.2,0.1,0.3c0,0,0,0.1-0.1,0.1c-0.5,0.3-1.1,0.5-1.7,0.5c-1.3,0.1-2.6-0.3-3.6-1.1l0,0
	l0,0C49.2,56.7,47,57,45.3,56c0-0.1,0-0.1,0-0.2c0-0.1,0-0.1,0-0.2c1.8,0.7,3.8-0.2,4.4-2c0.3-0.9,0.3-1.8-0.1-2.7l0,0l0.3-0.2
	c0.2,0.1,0.3,0.2,0.5,0.2c0.2,0,0.5,0,0.7-0.2c0,0,0.1,0,0.1,0l0.3,0.2c-0.8,1.7,0.1,3.8,1.8,4.5C54.2,55.9,55.1,55.9,55.9,55.6
	L55.9,55.6z"/>
<path class="st5" d="M51.9,53.6c1.7-0.7,2.7-2.4,2.4-4.2H55c0.3,0,0.3,0,0.3,0.3c0.1,2-1,3.8-2.8,4.6c0,0-0.1,0-0.1,0
	C52.2,54.1,52,53.8,51.9,53.6z"/>
<path class="st5" d="M53,47.1c-1.4-1.1-3.4-1.1-4.8,0L48.2,47l-0.3-0.6c0-0.1,0-0.1,0-0.2c1.6-1.2,3.9-1.2,5.5,0
	c0.1,0,0.1,0.1,0,0.2C53.2,46.6,53.1,46.9,53,47.1z"/>
<path class="st5" d="M48.8,54.3c-0.3-0.1-0.7-0.3-1-0.5c-1.3-1-2.1-2.6-1.9-4.3c0-0.1,0-0.1,0.1-0.1c0.3,0,0.5,0,0.8,0
	c-0.3,1.8,0.8,3.5,2.4,4.1C49.2,53.8,49,54.1,48.8,54.3z"/>
<path class="st0" d="M82.6,121.1c-1.2,1.5-3,2.5-4.9,2.9c-2.8,0.3-9.2-4.8-16-0.9c0,0,4.3-4.7,3.6-9.8c-1.1,1.1-2.4,2.1-3.8,2.8
	c2.4-2.8,4.4-6,5.9-9.4c1.7-4.6-2.6-11.8-4.1-16.2s0.5-17.5,0.5-17.5s4.6-1.2,6.1-5.2s6-9.4,6-9.4s0.3-11.4-0.8-16.8
	c0.4-0.4,0.5-1,0.5-1.5c-0.3-2.5,0-4-0.4-5c-0.5-1.3-0.9-0.8-0.9-0.8s0.8,1.3,0.4,1.5s-0.4-0.9-1-2.2s-0.9-0.8-0.9-0.8l1.1,3.1
	c0,0,0.1,0.7-0.4-0.2s-1.4-3.9-1.9-3.6c-0.5,0.3,1.7,3.9,1.6,5.1s-1.4-2.6-2.1-3.3s-0.5,0.2-0.5,0.2c1,3,2.4,6.6,0.1,5.6
	s-2.2,0-2.2,0s0.7-0.7,2.5,1.7v0.1c0.3,0.3,0.7,0.6,1.1,0.8c-0.6,3-2.6,11.5-2.5,14.5c0,0-15.8,7.7-17.9,14.1c0,0-3.6,0.2-3.6-2.6
	s-2.7-8.3-9-4.8c-3.9,2.2-2.7,6.5,0.3,9.6v2H42c1.2,0.7,2.4,1.2,3.8,1.3c0,0,1.1,3.1-1.3,3.1c-5.4-2.6-14.9,0.8-14.9,0.8
	c-2.4-4.7-7.8-9.8-9.9-11.8c0.2-0.5,0.3-1,0.3-1.5c0,0,0,0,0-0.1c-0.5-3,0.5-3.1,0.5-3.1s-0.7-0.9-1.5,1.6c-0.8,2.5-2.6-1.1-4.2-4
	c0,0-0.5-0.8-0.5,0.2s2.1,4.6,1.1,3.9s-2.3-5-2.8-4.8s1.1,3,1.4,4c0.4,1-0.1,0.5-0.1,0.5s-1.6-2.9-1.7-3c0,0-0.7-0.3-0.1,1.2
	c0.6,1.5,1.4,2.2,1,2.3s-0.8-1.4-0.8-1.4s-0.7,0,0,1.3c0.5,1,1.7,1.8,3.5,3.8c0.3,0.4,0.8,0.6,1.3,0.7c1.4,2.6,5.4,10,7.1,12.3
	c2,2.8,6,3,9.5,4s11.3,2.6,11.3,2.6c0.9,1.9,2.2,3.5,3.8,4.8c0,0-15.1,3.3-18.5,7.6s-1.5,6,2.7,10.9s9.5,10.7,9.5,10.7
	s-3.5,1.8-4.4,3.6s-3.7,1.5-3.7,1.5c1.3,1.5,3.5,1.9,5.2,0.9c3.1-1.7,6.7-2.9,9.2-2.2c0,0,0.4-2.3-2.8-5.3s-2.2-12.4-10.8-14.5
	c4.3,0.8,21.1,3.6,27.6-2.6c-2.2,3.2-5.4,5.4-9.1,6.4c0,0-2,17.2,6,18.7s16.8-1.4,20.5-2.3s6.4,1,9.1,3.9
	C88.1,127.2,85.8,123.7,82.6,121.1z"/>
<path class="st0" d="M71.9,30.6l-0.2,0c-0.5-0.2-0.9-0.6-1-1.1c-4.5-18.3-23-29.5-41.3-25s-29.5,23-25,41.3c1.1,4.7,3.3,9,6.2,12.8
	c0.2,0.3,0.3,0.6,0.3,1c0,0.2-0.1,0.5-0.1,0.7c-0.4,0.8-1.3,1.2-2.1,0.8c-0.2-0.1-0.4-0.3-0.6-0.5C-4.6,44.3-1.7,20.8,14.6,8.1
	s39.8-9.8,52.5,6.5c3.3,4.2,5.6,9,6.8,14.1c0.2,0.8-0.3,1.7-1.2,1.9C72.5,30.7,72.2,30.7,71.9,30.6z"/>
<path class="st0" d="M86.4,62.7c1.8,0,3.6,0.7,4.9,2c2.6,2.7,2.6,6.9,0,9.6c-1.3,1.3-3.1,2-4.9,2h-3.5v6.6h-4V62.7H86.4z M86.4,72.5
	c0.8,0,1.6-0.3,2.1-0.9c1.1-1.2,1.1-3.1,0-4.4c-0.5-0.6-1.3-0.9-2.1-0.9h-3.5v6.1H86.4z"/>
<path class="st0" d="M111.4,62.7h4v20.1h-4V62.7z"/>
<path class="st0" d="M136,80.2c-4.1,4.2-10.8,4.3-15,0.2c-4.2-4.1-4.3-10.8-0.2-15c4.1-4.2,10.8-4.3,15-0.2c2,2,3.2,4.7,3.2,7.6
	C139.1,75.5,138,78.2,136,80.2z M124,77.5c2.6,2.5,6.7,2.5,9.3,0c2.5-2.7,2.5-6.8,0-9.5c-2.6-2.5-6.7-2.5-9.3,0
	C121.5,70.7,121.5,74.8,124,77.5L124,77.5z"/>
<path class="st0" d="M156.3,62.7h4v20.1h-4V62.7z"/>
<path class="st0" d="M176.8,62.7l2.1,3.8h-7v16.3h-4V66.4h-5.4v-3.8L176.8,62.7z"/>
<path class="st0" d="M211.4,62.7v1.9h-6.2v18.2h-2V64.6H197v-1.9H211.4z"/>
<path class="st0" d="M214.2,62.7h2v20.1h-2V62.7z"/>
<path class="st0" d="M233.5,62.7v1.9h-6.2v18.2h-2V64.6h-6.2v-1.9H233.5z"/>
<path class="st0" d="M272.8,83.1c-1.7,0-3.3-0.4-4.7-1.3c-1.3-0.9-2.3-2.1-2.7-3.6l1.7-1c0.3,1.2,1,2.2,2,2.9c1.1,0.7,2.4,1.1,3.8,1
	c1.2,0.1,2.5-0.3,3.5-1c0.8-0.6,1.3-1.6,1.3-2.6c0.1-0.9-0.4-1.8-1.1-2.4c-1.2-0.7-2.5-1.3-3.8-1.7c-1.4-0.4-2.8-1-4.1-1.7
	c-1.5-0.8-2.3-2.3-2.3-4c-0.1-1.5,0.6-3,1.8-4c1.2-1,2.8-1.5,4.4-1.5c1.5,0,2.9,0.4,4.1,1.2c1.1,0.8,2,1.9,2.6,3.1l-1.7,0.9
	c-0.7-2.1-2.7-3.4-5-3.3c-1.1,0-2.1,0.3-3,0.9c-0.8,0.6-1.2,1.6-1.1,2.6c-0.1,0.9,0.3,1.7,1,2.2c1.1,0.7,2.2,1.2,3.4,1.5l1.6,0.5
	c0.3,0.1,0.8,0.3,1.4,0.5c0.5,0.2,0.9,0.4,1.3,0.6c0.3,0.2,0.6,0.4,1,0.8c0.4,0.3,0.7,0.6,0.9,1c0.2,0.4,0.4,0.8,0.5,1.2
	c0.1,0.5,0.2,1,0.2,1.4c0.1,1.6-0.6,3.1-1.9,4.1C276.3,82.7,274.5,83.2,272.8,83.1z"/>
<path class="st0" d="M94.7,66.4h6.6c0.7,0,1.4,0.3,1.9,0.9c0.5,0.6,0.8,1.3,0.8,2.1c0,0.8-0.3,1.5-0.8,2.1c-0.5,0.6-1.2,0.9-1.9,0.9
	h-3.1l3,5.2l3,5.2h4.3l-4.5-7.6c1.1-0.5,2.1-1.4,2.8-2.4c0.7-1,1.1-2.2,1.1-3.5c0-3.7-3-6.7-6.7-6.7c0,0,0,0,0,0h-8.6L94.7,66.4z"/>
<polygon class="st0" points="185.7,62.7 181.4,71 180.1,68.6 175.9,68.6 179.4,74.9 179.4,82.8 183.3,82.8 183.3,74.9 190.2,62.7 
	"/>
<polygon class="st0" points="242.7,62.7 240.7,62.7 232.9,82.8 235.1,82.8 241.7,65.2 248.3,82.8 250.5,82.8 "/>
<polygon class="st0" points="260.1,62.7 260.1,79 248.9,62.7 247.2,62.7 247.2,67.7 249.2,72.9 249.2,66.4 260.4,82.8 262.1,82.8 
	262.1,62.7 "/>
<radialGradient id="SVGID_5_" cx="79.03" cy="59.14" r="9.83" gradientTransform="matrix(1 0 0 -1 0 134)" gradientUnits="userSpaceOnUse">
	<stop  offset="0" style="stop-color:#1B1447"/>
	<stop  offset="1" style="stop-color:#1B1464;stop-opacity:0"/>
</radialGradient>
<path class="st6" d="M82.8,76.2v6.6h-4v-3.2c0-1.9,1.5-3.5,3.5-3.5H82.8z"/>
<radialGradient id="SVGID_6_" cx="99.88" cy="62.17" r="13.53" gradientTransform="matrix(1 0 0 -1 0 134)" gradientUnits="userSpaceOnUse">
	<stop  offset="0" style="stop-color:#1B1447"/>
	<stop  offset="1" style="stop-color:#1B1464;stop-opacity:0"/>
</radialGradient>
<path class="st7" d="M104.1,75.2c0,0-4,0.5-1.9,4l2.1,3.6h4.3L104.1,75.2z"/>
<path class="st0" d="M139.8,66.4h6.6c0.7,0,1.4,0.3,1.9,0.9c0.5,0.6,0.8,1.3,0.8,2.1c0,0.8-0.3,1.5-0.8,2.1
	c-0.5,0.6-1.2,0.9-1.9,0.9h-3.1l3,5.2l3.1,5.2h4.3l-4.4-7.6c1.1-0.5,2.1-1.4,2.8-2.4c0.7-1,1.1-2.2,1.1-3.5c0-3.7-3-6.7-6.7-6.7
	h-8.7L139.8,66.4z"/>
<radialGradient id="SVGID_7_" cx="144.96" cy="62.17" r="13.53" gradientTransform="matrix(1 0 0 -1 0 134)" gradientUnits="userSpaceOnUse">
	<stop  offset="0" style="stop-color:#1B1447"/>
	<stop  offset="1" style="stop-color:#1B1464;stop-opacity:0"/>
</radialGradient>
<path class="st8" d="M149.1,75.2c0,0-4,0.5-1.9,4l2.1,3.6h4.3L149.1,75.2z"/>
<radialGradient id="SVGID_8_" cx="137.35" cy="69.21" r="18.95" gradientTransform="matrix(1 0 0 -1 0 134)" gradientUnits="userSpaceOnUse">
	<stop  offset="0" style="stop-color:#1B1447"/>
	<stop  offset="1" style="stop-color:#1B1464;stop-opacity:0"/>
</radialGradient>
<path class="st9" d="M128.6,66.1c1.7,0,3.4,0.7,4.6,1.9c2.5,2.7,2.5,6.8,0,9.5c-2.3,2.2-5.8,2.5-8.4,0.7l-0.9,4
	c1.5,0.7,3.1,1.1,4.7,1.1c4.5,0,8.5-2.8,9.9-7C137.6,64.9,128.6,66.1,128.6,66.1z"/>
<radialGradient id="SVGID_9_" cx="183.78" cy="57.18" r="13.03" gradientTransform="matrix(1 0 0 -1 0 134)" gradientUnits="userSpaceOnUse">
	<stop  offset="0" style="stop-color:#1B1447"/>
	<stop  offset="1" style="stop-color:#1B1464;stop-opacity:0"/>
</radialGradient>
<polygon class="st10" points="181.4,71 179.4,74.9 175.9,68.6 180.1,68.6 "/>
<radialGradient id="SVGID_10_" cx="170.94" cy="71.57" r="18.94" gradientTransform="matrix(1 0 0 -1 0 134)" gradientUnits="userSpaceOnUse">
	<stop  offset="0" style="stop-color:#1B1447"/>
	<stop  offset="1" style="stop-color:#1B1464;stop-opacity:0"/>
</radialGradient>
<path class="st11" d="M171.9,69.8v13h-4V66.4h0.6C170.4,66.4,171.9,67.9,171.9,69.8C171.9,69.8,171.9,69.8,171.9,69.8z"/>
<path class="st0" d="M125.8,106l-2.8-4.8h-2.1v4.8h-2.7V92.1h5.6c2.5,0,4.6,2,4.6,4.6c0,0,0,0,0,0c0,0.9-0.3,1.7-0.7,2.4
	c-0.5,0.7-1.2,1.3-2,1.7l3.1,5.3L125.8,106z M120.9,94.6v4.1h2.8c0.5,0,1-0.2,1.3-0.6c0.4-0.4,0.6-0.9,0.6-1.5
	c0-0.5-0.2-1.1-0.6-1.4c-0.3-0.4-0.8-0.6-1.3-0.6L120.9,94.6z"/>
<path class="st0" d="M145.7,106.3c-1.2,0-2.4-0.3-3.5-0.9c-0.9-0.6-1.6-1.5-2-2.5l2.4-1.4c0.5,1.4,1.8,2.2,3.2,2.1
	c0.6,0,1.2-0.1,1.7-0.4c0.3-0.2,0.5-0.6,0.5-1.1c0-0.5-0.2-0.9-0.7-1.1c-0.7-0.4-1.5-0.7-2.4-0.9c-0.5-0.2-1.1-0.3-1.6-0.6
	c-0.5-0.2-0.9-0.5-1.3-0.8c-0.4-0.3-0.8-0.7-1-1.2c-0.2-0.5-0.4-1.1-0.3-1.7c0-1.2,0.5-2.3,1.4-3c0.9-0.8,2.1-1.2,3.2-1.1
	c1.1,0,2.1,0.3,3,0.8c0.9,0.6,1.6,1.4,2,2.3l-2.3,1.3c-0.4-1.1-1.5-1.8-2.7-1.8c-0.5,0-1,0.1-1.3,0.4c-0.3,0.2-0.5,0.6-0.5,1
	c0,0.4,0.2,0.8,0.6,1.1c0.7,0.4,1.4,0.7,2.1,0.9l1,0.3l0.9,0.3c0.3,0.1,0.6,0.3,0.9,0.4c0.2,0.2,0.5,0.3,0.7,0.5
	c0.2,0.2,0.4,0.4,0.6,0.7c0.3,0.6,0.5,1.3,0.5,2c0,1.2-0.5,2.3-1.4,3.1C148.3,106,147,106.4,145.7,106.3z"/>
<path class="st0" d="M161.3,92.1v2.6h-3.8V106h-2.8V94.7H151v-2.6H161.3z"/>
<path class="st0" d="M173.7,104.2c-2.8,2.9-7.5,2.9-10.4,0.1s-2.9-7.5-0.1-10.4c2.8-2.9,7.5-2.9,10.4-0.1c1.4,1.4,2.2,3.2,2.2,5.2
	C175.9,100.9,175.1,102.8,173.7,104.2z M165.4,102.3c1.8,1.8,4.6,1.8,6.4,0c0.9-0.9,1.4-2.1,1.3-3.3c0-1.2-0.4-2.4-1.3-3.3
	c-1.8-1.7-4.6-1.7-6.4,0c-0.9,0.9-1.3,2.1-1.3,3.3C164,100.2,164.5,101.4,165.4,102.3z"/>
<path class="st0" d="M185.4,106l-2.8-4.8h-2.1v4.8h-2.7V92.1h5.6c2.5,0,4.6,2,4.6,4.6c0,0,0,0,0,0.1c0,0.9-0.3,1.7-0.7,2.4
	c-0.5,0.7-1.2,1.3-1.9,1.7l3.1,5.3L185.4,106z M180.5,94.6v4.1h2.8c0.5,0,1-0.2,1.3-0.6c0.4-0.4,0.6-0.9,0.6-1.5
	c0-0.5-0.2-1.1-0.6-1.4c-0.3-0.4-0.8-0.6-1.3-0.6L180.5,94.6z"/>
<path class="st0" d="M199.2,106l-0.9-2.5h-5.7l-0.8,2.5h-3l4.9-13.9h3.4l5,13.9H199.2z M193.4,100.9h3.9l-2-5.7L193.4,100.9z"/>
<path class="st0" d="M211.5,92.1v2.6h-3.8V106H205V94.7h-3.7v-2.6H211.5z"/>
<path class="st0" d="M213,92.1h2.7V106H213V92.1z"/>
<path class="st0" d="M237.5,92.1h2.8V106h-2.1l-6-8.5V99h-2.8v-7h2.1l6,8.5V92.1z"/>
<path class="st0" d="M230.1,93.9c-0.2-0.2-0.4-0.4-0.6-0.6V99c0.1,2.4-1.8,4.5-4.3,4.6c-0.1,0-0.2,0-0.2,0c-2.4,0-4.5-1.9-4.5-4.4
	c0-0.1,0-0.1,0-0.2c0-1.2,0.4-2.4,1.3-3.3c0.8-0.9,2-1.3,3.2-1.3c0.9,0,1.9,0.3,2.6,0.8v-0.8c0-1.5-1.2-2.7-2.6-2.7l0,0
	c-4,0-7.2,3.3-7.1,7.3c0,4,3.3,7.2,7.3,7.1c4,0,7.2-3.3,7.1-7.3C232.2,97,231.5,95.2,230.1,93.9L230.1,93.9z"/>
<polygon class="st0" points="133.1,94.7 138.4,94.7 138.9,94.7 138.9,92.1 130.4,92.1 130.4,94.7 "/>
<polygon class="st0" points="133.1,103.4 133.1,100.2 138.4,100.2 138.4,97.7 133.1,97.7 130.4,97.7 130.4,106 139,106 139,103.4 
	"/>
<path class="st0" d="M278.6,100h-21c-0.5-0.1-0.9-0.5-0.8-1c0-0.4,0.4-0.8,0.8-0.8h21c0.5,0.1,0.9,0.5,0.8,1
	C279.4,99.6,279.1,100,278.6,100z"/>
<path class="st0" d="M100.8,100h-21c-0.5,0.1-1-0.3-1-0.8c-0.1-0.5,0.3-1,0.8-1c0.1,0,0.1,0,0.2,0h21c0.5-0.1,1,0.3,1,0.8
	c0.1,0.5-0.3,1-0.8,1C100.9,100,100.8,100,100.8,100z"/>
<rect x="24.4" y="141.9" style="fill:none;" width="236.8" height="32.6"/>
<text transform="matrix(1 0 0 1 24.3999 150.4199)"><tspan x="0" y="0" style="font-family:'MyriadPro-Regular'; font-size:12px;">WARNING: THIS WEBSITE WAS STOLEN </tspan><tspan x="0" y="14.4" style="font-family:'MyriadPro-Regular'; font-size:12px;">DO NOT TRUST THIS WABSITE</tspan></text>
</svg>
