<svg id="Layer_1" data-name="Layer 1" xmlns="http://www.w3.org/2000/svg" viewBox="0 0 436 212"><defs><style>.cls-1{fill:#14fdce;}</style></defs><title>graph1</title><path class="cls-1" d="M176.12,175.17H182v1.18h-4.72v1.18h3.54v.59h.59v.59H182v3.54h-.59v.59h-.59v.59h-3.54v-.59h-.58v-.59h-.59v-1.18h1.17v.59h.59v.59h2.36v-.59h.59V179.3h-.59v-.59h-4.12Z"/><path class="cls-1" d="M184.37,175.76v-.59h3.54v.59h.59v.59h.59v5.9h-.59v.59h-.59v.59h-3.54v-.59h-.59v-.59h-.59v-5.9h.59v-.59Zm.59,4.13v-.59h.59v-.59h.59v-.59h.59v-.59h1.18v-.59h-.59v-.59H185v.59h-.59v2.95Zm-.59,1.18v.59H185v.59h2.36v-.59h.59v-2.95h-.59v.59h-.59v.59h-.59v.59h-.59v.59Z"/><path class="cls-1" d="M216.48,198.65h1.35v7.42h1.35V202.7h1.35v3.37h1.34v-7.42h1.35v8.09h-.67v.68h-.68v.67h-1.34v-.67h-1.35v.67h-1.35v-.67h-.67v-.68h-.68Z"/><path class="cls-1" d="M231.31,206.07v.67h-.67v.68H230v.67h-4v-.67h-.68v-.68h-.67V202h.67v-.67h.68v-.67h4v.67h.68V202h.67v2h-.67v.67h-4.72v1.35h.67v.67h2.7v-.67Zm-5.39-3.37v.67h4v-.67h-.67V202h-2.7v.68Z"/><path class="cls-1" d="M239.4,206.07v.67h-.68v.68h-.67v.67h-4v-.67h-.68v-.68h-.67V202h.67v-.67H234v-.67h4v.67h.67V202h.68v2h-.68v.67H234v1.35h.67v.67h2.7v-.67ZM234,202.7v.67h4v-.67h-.67V202h-2.7v.68Z"/><path class="cls-1" d="M242.09,206.74v1.35h-1.34v-9.44h1.34v6.07h.68v-.67h.67v-.68h.68v-.67h.67V202h.67v-.67h.68v-.67h1.35V202h-.68v.68h-.67v.67h-.68v.68h-.67v.67h.67v.67h.68v.68h.67v.67h.68v1.35h-1.35v-.67h-.68v-.68h-.67v-.67h-.67v-.68h-.68v.68h-.67v.67Z"/><path class="cls-1" d="M296.24,182.25h1.18v1.18h-3.54v-1.18h1.18v-4.72h-1.18v-1.18h.59v-.59h.59v-.59h1.18Z"/><path class="cls-1" d="M301,175.76v-.59h3.54v.59h.59v.59h.59v5.9h-.59v.59h-.59v.59H301v-.59h-.59v-.59h-.59v-5.9h.59v-.59Zm.59,4.13v-.59h.59v-.59h.59v-.59h.59v-.59h1.18v-.59h-.59v-.59h-2.36v.59H301v2.95Zm-.59,1.18v.59h.59v.59h2.36v-.59h.59v-2.95h-.59v.59h-.59v.59h-.59v.59h-.59v.59Z"/><path class="cls-1" d="M308,175.76v-.59h3.54v.59h.59v.59h.58v5.9h-.58v.59h-.59v.59H308v-.59h-.59v-.59h-.59v-5.9h.59v-.59Zm.59,4.13v-.59h.59v-.59h.59v-.59h.59v-.59h1.18v-.59H311v-.59h-2.36v.59H308v2.95Zm-.59,1.18v.59h.59v.59H311v-.59h.59v-2.95H311v.59h-.59v.59h-.59v.59h-.59v.59Z"/><path class="cls-1" d="M416.37,182.25h1.18v1.18H414v-1.18h1.18v-4.72H414v-1.18h.59v-.59h.59v-.59h1.18Z"/><path class="cls-1" d="M419.91,175.17h5.89v1.18h-4.71v1.18h3.54v.59h.58v.59h.59v3.54h-.59v.59h-.58v.59h-3.54v-.59h-.59v-.59h-.59v-1.18h1.18v.59h.59v.59H424v-.59h.59V179.3H424v-.59h-4.13Z"/><path class="cls-1" d="M428.16,175.76v-.59h3.54v.59h.59v.59h.59v5.9h-.59v.59h-.59v.59h-3.54v-.59h-.59v-.59H427v-5.9h.59v-.59Zm.59,4.13v-.59h.59v-.59h.59v-.59h.59v-.59h1.18v-.59h-.59v-.59h-2.36v.59h-.59v2.95Zm-.59,1.18v.59h.59v.59h2.36v-.59h.59v-2.95h-.59v.59h-.59v.59h-.59v.59h-.59v.59Z"/><path class="cls-1" d="M61.26,175.76v-.59H64.8v.59h.59v.59H66v5.9h-.59v.59H64.8v.59H61.26v-.59h-.59v-.59h-.59v-5.9h.59v-.59Zm.59,4.13v-.59h.59v-.59H63v-.59h.59v-.59H64.8v-.59h-.59v-.59H61.85v.59h-.59v2.95Zm-.59,1.18v.59h.59v.59h2.36v-.59h.59v-2.95h-.59v.59h-.59v.59H63v.59h-.59v.59Z"/><path class="cls-1" d="M43,85h5.89v1.18H44.22v1.18h3.53v.59h.59v.59h.59v3.54h-.59v.59h-.59v.59H44.22v-.59h-.59v-.59H43V90.87h1.18v.59h.58v.59h2.36v-.59h.59V89.1h-.59v-.59H43Z"/><path class="cls-1" d="M51.29,88.51v4.72H50.11V86.74h1.18v.59h.59v-.59h2.95v.59h.59v.59H56v5.31H54.83V88.51h-.59v-.59h-.59v5.31H52.47V87.92h-.59v.59Z"/><path class="cls-1" d="M11.68,163.72H2.24v-1.35h8.09V157h1.35Z"/><path class="cls-1" d="M2.92,151.59H4.26v1.35H2.92Zm7.41-.67v-.68h1.35v1.35H11v.67h-.67v.68H7v1.35H5.61v-2.7H9.66v-.67Z"/><path class="cls-1" d="M4.26,142.15H3.59v-1.34h8.09v1.34h-2v.68H9v.67h.68v2.7H9v.67H8.31v.67H4.94v-.67H4.26v-.67H3.59v-3.37h.67Zm1.35,4h2v-.68h.68v-2H7.63v-.67h-2v.67H4.94v2h.67Z"/><path class="cls-1" d="M4.26,139.46v-1.35h5.4v-.68h.67v-2.69H9.66v-.67H4.26v-1.35h6.07v.67H11v.68h.68v4H11v.67h-.67v.68Z"/><path class="cls-1" d="M2.92,127.33H4.26v1.34H2.92Zm7.41-.68V126h1.35v1.35H11V128h-.67v.67H7V130H5.61v-2.69H9.66v-.68Z"/><path class="cls-1" d="M5.61,117.89H2.24v-1.35h9.44v1.35H10.33v.67H11v.68h.68v2H11v.67h-.67v.68H9.66v.67H6.29v-.67H5.61v-.68H4.94v-.67H4.26v-2h.68v-.68h.67Zm4.05,3.37v-.68h.67v-.67H9.66v-.67H9v-.68H7v.68H6.29v.67H5.61v.67h.68v.68H7v.67H9v-.67Z"/><path class="cls-1" d="M11.68,107.11H2.24v-5.4h.68V101h.67v-.67h2.7V101H7.63v-.67h2.7V101H11v.67h.68Zm-5.39-1.35v-3.37H5.61v-.68H4.26v.68H3.59v3.37Zm4,0v-3.37H9.66v-.68H8.31v.68H7.63v3.37Z"/><path class="cls-1" d="M2.92,97.67H2.24v-4h.68V93h.67v-.67h6.74V93H11v.68h.68v4H11v.67h-.67V99H3.59v-.68H2.92Zm.67-3.37V97h.67v.67h5.4V97h.67V94.3H9.66v-.67H4.26v.67Z"/><path class="cls-1" d="M6.29,89.58h5.39v1.35H2.24V89.58h2v-.67h.68v-.68h.67v-.67h.68v-.67H7v-.68h.67v-.67H2.24V84.19h9.44v1.35h-2v.67H9v.68H8.31v.67H7.63v.67H7v.68H6.29Z"/><path class="cls-1" d="M11.68,82.84H2.24V77.45h.68v-.67h.67V76.1h6.74v.68H11v.67h.68ZM3.59,81.49h6.74V78.12H9.66v-.67H4.26v.67H3.59Z"/><path class="cls-1" d="M3.59,64v2.7H2.24V59.93H3.59v2.69h8.09V64Z"/><path class="cls-1" d="M11.68,57.23H11v.67h-.67v.68H5.61V57.9H4.94v-.67H4.26v-4h.68v-.68h.67v-.67h4.72v.67H11v.68h.68Zm-1.35-.67v-2.7H9.66v-.67H6.29v.67H5.61v2.7h.68v.67H9.66v-.67Z"/><path class="cls-1" d="M10.33,49.14h1.35v1.35H2.24V49.14H8.31v-.67H7.63v-.68H7v-.67H6.29v-.67H5.61v-.68H4.94V45.1H4.26V43.75H5.61v.67h.68v.68H7v.67h.67v.68h.68v-.68H9V45.1h.68v-.68h.67v-.67h1.35V45.1H11v.67h-.67v.68H9.66v.67H9v.67h.68v.68h.67Z"/><path class="cls-1" d="M9.66,35.66h.67v.68H11V37h.68v4H11v.68h-.67v.67H5.61v-.67H4.94v-.68H4.26V37h.68v-.67h.67v-.68h2v.68h.68v4.71H9.66v-.67h.67v-2.7H9.66ZM6.29,41.05H7V37H6.29v.67H5.61v2.7h.68Z"/><path class="cls-1" d="M6.29,33h5.39v1.34H4.26V33h.68v-.68H4.26V28.92h.68v-.67h.67v-.67h6.07v1.34H6.29v.68H5.61v2.69h.68Z"/><path class="cls-1" d="M10.33,25.55v.68H9V24.88h.68V24.2h.67V21.51H9v1.35H8.31V24.2H7.63v1.35H7v.68H5.61v-.68H4.94v-.67H4.26V20.83h.68v-.67h.67v-.67H7v1.34H6.29v.68H5.61V24.2H7v-2h.67V20.83h.68v-.67H9v-.67h1.35v.67H11v.67h.68v4.05H11v.67Z"/><path class="cls-1" d="M39.5,11.46h1.18v1.18H37.14V11.46h1.18V6.74H37.14V5.56h.59V5h.59V4.38H39.5Z"/><path class="cls-1" d="M44.22,5V4.38h3.53V5h.59v.59h.59v5.9h-.59v.59h-.59v.59H44.22v-.59h-.59v-.59H43V5.56h.59V5ZM44.8,9.1V8.51h.59V7.92H46V7.33h.59V6.74h1.18V6.15h-.59V5.56H44.8v.59h-.58V9.1Zm-.58,1.18v.59h.58v.59h2.36v-.59h.59V7.92h-.59v.59h-.59V9.1H46v.59h-.59v.59Z"/><path class="cls-1" d="M51.29,7.92v4.72H50.11V6.15h1.18v.59h.59V6.15h2.95v.59h.59v.59H56v5.31H54.83V7.92h-.59V7.33h-.59v5.31H52.47V7.33h-.59v.59Z"/><path class="cls-1" d="M45.36,162.6v-.68h4v.68h.67v.67h.68V170h-.68v.67H49.4v.68h-4v-.68h-.68V170H44v-6.74h.67v-.67Zm.67,4.71v-.67h.68V166h.67v-.68h.67v-.67H49.4v-.68h-.67v-.67H46v.67h-.67v3.37Zm-.67,1.35v.67H46V170h2.7v-.68h.67V166h-.67v.67h-.68v.67h-.67V168h-.67v.67Z"/><rect class="cls-1" x="422.67" y="11.31" width="0.38" height="155.4"/><rect class="cls-1" x="63.03" y="11.02" width="363.52" height="0.38"/><rect class="cls-1" x="63.03" y="88.51" width="363.52" height="0.38"/><rect class="cls-1" x="182.41" y="11.21" width="0.38" height="154.98"/><rect class="cls-1" x="302.51" y="11.21" width="0.38" height="154.98"/><rect class="cls-1" x="422.67" y="11.21" width="0.38" height="154.98"/><rect class="cls-1" x="422.67" y="11.21" width="0.38" height="154.98"/><polygon class="cls-1" points="64.53 166.92 62.54 166.68 64.58 149.47 102.14 130.19 122.08 117.39 303.13 41.47 303.27 41.45 338.86 37.15 426.54 37.15 426.54 39.15 338.92 39.15 303.65 43.42 122.94 119.2 103.14 131.92 66.44 150.76 64.53 166.92"/><polygon class="cls-1" points="426.54 167.36 62.46 167.36 62.46 11.21 63.59 11.21 63.59 166.23 426.54 166.23 426.54 167.36"/></svg>