<svg id="Layer_1" data-name="Layer 1" xmlns="http://www.w3.org/2000/svg" viewBox="0 0 366 64"><defs><style>.cls-1{fill:#14fdce;}.cls-2{fill:#ffa72e;}.cls-3{fill:#f47d25;}.cls-4{fill:#ffd91d;}.cls-5{fill:#ffff53;}.cls-6{fill:#ffffc9;}</style></defs><title>logo</title><path class="cls-1" d="M27.11,55V37h9V55Zm0-27V10h9V28ZM0,64V1H27.11v9H9V28H27.11v9H9V55H27.11v9Z"/><path class="cls-1" d="M55.32,64V55H73.4v9Zm-9-9V28h9V55ZM73.4,55V28h9V55ZM55.32,28V19H73.4v9Z"/><path class="cls-1" d="M119.68,64V28h9V64ZM92.56,64V19h27.12v9H101.6V64Z"/><path class="cls-1" d="M138.85,55V28h9V55Zm9,9V55H166V28H147.88V19H166V1h9V64Z"/><path class="cls-1" d="M274,54.86V27.43h9V54.86ZM247,64V0h9V18.29h18v9.14H256V54.86h18V64Z"/><path class="cls-1" d="M302,64V54.86h18V64Zm-9-9.14V27.43h9v9.14h18V27.43h9V45.71H302v9.15Zm9-27.43V18.29h18v9.14Z"/><path class="cls-1" d="M348,64V54.86h18V64Zm-9-9.14V0h9V18.29h18v9.14H348V54.86Z"/><polygon class="cls-2" points="227.66 37.27 226.32 33.65 224.98 31.92 224.98 31.92 223.64 30.15 222.3 29.24 220.97 27.91 219.63 26.57 208.93 23.89 203.57 23.89 203.57 26.57 201.94 27.91 200.9 29.24 199.56 30.34 198.22 31.92 196.88 33.04 195.55 37.27 192.87 39.94 192.87 47.97 195.55 50.65 195.55 53.32 198.22 55.99 198.22 58.67 200.9 58.67 202.24 60.56 203.57 61.35 205.58 62.83 208.93 64.02 219.63 64.02 219.63 61.34 222.3 61.35 222.3 58.67 224.98 58.67 224.98 56 227.66 56 227.66 50.65 230.33 50.65 230.33 37.27 227.66 37.27"/><polygon class="cls-3" points="216.95 23.89 214.28 23.89 211.6 23.89 208.93 23.89 208.93 26.57 211.6 26.57 214.28 26.57 216.95 26.57 219.63 26.57 219.63 23.89 216.95 23.89"/><rect class="cls-4" x="200.9" y="26.57" width="2.67" height="2.68"/><rect class="cls-4" x="203.57" y="26.57" width="2.68" height="2.68"/><path class="cls-3" d="M206.25,26.57v2.68h2.68V26.57Z"/><rect class="cls-3" x="203.57" y="29.24" width="2.68" height="2.68"/><path class="cls-5" d="M219.63,29.24v2.68h2.67V29.24Z"/><polygon class="cls-6" points="200.9 29.24 198.22 29.24 198.22 31.92 195.55 31.92 195.55 34.59 200.9 34.59 200.9 31.92 203.57 31.92 203.57 29.25 203.57 29.24 200.9 29.24"/><rect class="cls-3" x="200.9" y="31.92" width="2.67" height="5.35"/><polygon class="cls-4" points="222.3 50.65 222.3 55.99 219.63 55.99 219.63 61.34 208.93 61.34 208.93 58.67 206.25 58.67 206.25 55.99 203.57 55.99 203.57 50.64 200.9 50.64 200.9 37.27 203.57 37.27 203.57 31.92 206.25 31.92 206.25 34.6 208.93 34.6 208.93 37.27 206.25 37.27 206.25 50.65 208.93 50.65 208.93 53.32 211.6 53.32 211.6 56 216.95 56 216.95 53.32 219.63 53.32 219.63 50.65 222.3 50.65"/><rect class="cls-3" x="211.6" y="31.92" width="5.35" height="2.67"/><rect class="cls-5" x="195.55" y="34.6" width="5.35" height="2.67"/><rect class="cls-3" x="208.93" y="34.59" width="2.67" height="2.68"/><rect class="cls-3" x="216.95" y="34.59" width="2.68" height="2.68"/><polygon class="cls-4" points="219.63 31.92 219.63 26.57 208.92 26.57 208.92 29.24 206.25 29.24 206.25 34.6 211.6 34.6 211.6 31.92 216.95 31.92 216.95 34.6 219.63 34.6 219.63 37.27 222.3 37.27 222.3 34.6 222.3 34.59 222.3 31.92 219.63 31.92"/><polygon class="cls-5" points="224.98 31.92 222.31 31.92 222.31 34.59 222.3 34.59 222.3 37.27 224.98 37.27 224.98 34.6 224.98 34.6 224.98 31.92"/><polygon class="cls-3" points="224.98 29.24 224.98 31.92 222.3 31.92 222.3 29.25 219.63 29.25 219.63 26.57 222.3 26.57 222.3 29.24 224.98 29.24"/><rect class="cls-3" x="224.98" y="31.92" width="2.68" height="5.35"/><rect class="cls-6" x="192.87" y="37.27" width="5.35" height="2.67"/><rect class="cls-3" x="219.63" y="37.27" width="2.67" height="13.37"/><rect class="cls-5" x="224.98" y="37.27" width="2.68" height="13.37"/><rect class="cls-4" x="192.87" y="39.95" width="5.35" height="8.02"/><polygon class="cls-3" points="200.9 37.27 200.9 50.64 195.55 50.64 195.55 50.65 192.87 50.65 192.87 47.97 198.22 47.97 198.22 37.27 200.9 37.27"/><rect class="cls-3" x="206.25" y="37.27" width="2.68" height="13.37"/><polygon class="cls-4" points="216.95 42.62 216.95 53.32 211.6 53.32 211.6 50.64 208.93 50.64 208.93 47.97 211.6 47.97 211.6 45.3 214.28 45.3 214.28 42.62 216.95 42.62"/><rect class="cls-5" x="216.95" y="39.95" width="2.68" height="10.69"/><rect class="cls-4" x="222.3" y="37.27" width="2.68" height="13.37"/><polygon class="cls-3" points="203.57 50.65 203.57 55.99 198.22 55.99 198.22 56 195.55 56 195.55 53.32 200.9 53.32 200.9 50.65 203.57 50.65"/><rect class="cls-3" x="208.93" y="50.64" width="2.67" height="2.68"/><rect class="cls-3" x="216.95" y="50.64" width="2.68" height="2.68"/><rect class="cls-5" x="222.3" y="50.65" width="2.68" height="5.34"/><rect class="cls-3" x="211.6" y="53.32" width="5.35" height="2.67"/><rect class="cls-3" x="203.57" y="55.99" width="2.68" height="2.68"/><rect class="cls-5" x="219.63" y="55.99" width="2.67" height="2.68"/><polygon class="cls-4" points="206.25 58.67 206.25 61.34 203.57 61.34 203.57 61.35 200.9 61.35 200.9 58.67 206.25 58.67"/><polygon class="cls-3" points="208.93 58.67 208.93 64.02 203.57 64.02 203.57 61.35 206.25 61.35 206.25 58.67 208.93 58.67"/></svg>