<svg id="Layer_1" data-name="Layer 1" xmlns="http://www.w3.org/2000/svg" viewBox="0 0 124 61"><defs><style>.cls-1{fill:#14fdce;}</style></defs><title>logo2</title><path class="cls-1" d="M55.73,37.45V23.55a4.82,4.82,0,1,0,0-9.64V0a18.73,18.73,0,1,1,0,37.45Z"/><polygon class="cls-1" points="0 0 55.73 0 55.73 13.9 11.64 13.9 0 0"/><rect class="cls-1" x="15.92" y="23.55" width="39.81" height="13.9"/><path class="cls-1" d="M55.73,61V47.09a4.82,4.82,0,0,0,0-9.64V23.55a18.73,18.73,0,1,1,0,37.45Z"/><rect class="cls-1" x="15.92" y="47.1" width="39.81" height="13.9"/><rect class="cls-1" x="15.92" y="23.55" width="13.9" height="37.45"/><path class="cls-1" d="M123.64,18.73A18.75,18.75,0,0,0,104.92,0H76.08A27.7,27.7,0,0,1,83,13.9h22a4.82,4.82,0,0,1,0,9.64H83a27.87,27.87,0,0,1-2.21,7,27.87,27.87,0,0,1,2.21,7h22a4.82,4.82,0,0,1,0,9.64H83A27.7,27.7,0,0,1,76.08,61h28.84a18.71,18.71,0,0,0,14.54-30.5A18.65,18.65,0,0,0,123.64,18.73Z"/></svg>