<svg id="Layer_1" data-name="Layer 1" xmlns="http://www.w3.org/2000/svg" viewBox="0 0 118 108"><defs><style>.cls-1{fill:#14fdce;}</style></defs><title>logo3</title><polygon class="cls-1" points="54.46 27 54.46 81 81.74 81 81.74 72 63.55 72 63.55 54 81.74 54 81.74 45 63.55 45 63.55 36 81.74 36 81.74 27 54.46 27"/><rect class="cls-1" x="81.74" y="54" width="9.09" height="18"/><rect class="cls-1" x="81.74" y="36" width="9.09" height="9"/><rect class="cls-1" x="36.34" y="18" width="9.06" height="18"/><rect class="cls-1" x="27.28" y="36" width="9.06" height="36"/><polygon class="cls-1" points="108.95 36 108.95 17.99 99.91 17.99 99.91 9 90.85 9 90.85 18 99.9 18 99.92 27 99.9 36 108.94 36 108.94 72 99.9 72 99.9 90 90.85 90 90.85 99 99.91 99 99.91 90 108.95 90 108.95 72 118 72 118 36 108.95 36"/><rect class="cls-1" x="36.34" y="72" width="9.06" height="18"/><rect class="cls-1" x="18.17" y="9" width="9.06" height="9"/><rect class="cls-1" x="9.11" y="18" width="9.06" height="18"/><rect class="cls-1" x="0.06" y="36" width="9.06" height="36"/><rect class="cls-1" x="9.11" y="72" width="9.06" height="18"/><rect class="cls-1" x="18.17" y="90" width="9.06" height="9"/><polygon class="cls-1" points="54.45 99 54.45 90 45.4 90 45.4 99 27.23 99 27.23 108 90.85 108 90.85 99 54.45 99"/><polygon class="cls-1" points="27.23 0 27.23 9 45.4 9 45.4 18 54.45 18 54.45 9 90.85 9 90.85 0 27.23 0"/></svg>