<svg id="Layer_1" data-name="Layer 1" xmlns="http://www.w3.org/2000/svg" viewBox="0 0 240 80"><defs><style>.cls-1{fill:red;}.cls-2{fill:#fff;}.cls-3{fill:#282828;}</style></defs><title>brand-4</title><path class="cls-1" d="M87.2,26.62a7,7,0,0,0-4.9-4.9C78,20.53,60.54,20.53,60.54,20.53s-17.4,0-21.75,1.15a7.12,7.12,0,0,0-4.91,4.94C32.74,31,32.74,40,32.74,40s0,9.07,1.14,13.38a7,7,0,0,0,4.91,4.9c4.39,1.19,21.75,1.19,21.75,1.19s17.41,0,21.76-1.15a7,7,0,0,0,4.9-4.9c1.15-4.35,1.15-13.37,1.15-13.37S88.39,31,87.2,26.62Z"/><polygon class="cls-2" points="55 48.34 69.48 40 55 31.66 55 48.34"/><path class="cls-3" d="M113.5,56a6,6,0,0,1-2.34-3.48,22.9,22.9,0,0,1-.69-6.23V42.75a21.65,21.65,0,0,1,.78-6.32A6.54,6.54,0,0,1,113.72,33a8.06,8.06,0,0,1,4.45-1.1,7.71,7.71,0,0,1,4.35,1.1,6.31,6.31,0,0,1,2.38,3.48,20.86,20.86,0,0,1,.78,6.32v3.53a21.5,21.5,0,0,1-.73,6.27A6.41,6.41,0,0,1,122.57,56a8,8,0,0,1-4.49,1.1A8.59,8.59,0,0,1,113.5,56Zm6.18-3.85a11.45,11.45,0,0,0,.46-3.89V40.64a11.53,11.53,0,0,0-.46-3.85,1.64,1.64,0,0,0-3.16,0,11.53,11.53,0,0,0-.46,3.85v7.61a11.45,11.45,0,0,0,.46,3.89,1.64,1.64,0,0,0,3.16,0Z"/><path class="cls-3" d="M198.05,46.32v1.24a33.52,33.52,0,0,0,.14,3.53,2.93,2.93,0,0,0,.6,1.69,1.59,1.59,0,0,0,1.37.55,1.73,1.73,0,0,0,1.7-1,8.55,8.55,0,0,0,.5-3.21l4.72.28a5.38,5.38,0,0,1,0,.87,6.41,6.41,0,0,1-1.83,5A7.65,7.65,0,0,1,200.07,57c-2.7,0-4.58-.87-5.68-2.56s-1.65-4.31-1.65-7.88V42.29c0-3.66.55-6.32,1.69-8s3.07-2.52,5.78-2.52a7.72,7.72,0,0,1,4.35,1.06,5.63,5.63,0,0,1,2.11,3.2,23.67,23.67,0,0,1,.59,6.05v4.17h-9.21Zm.69-10.26a3.56,3.56,0,0,0-.55,1.7,33.73,33.73,0,0,0-.14,3.57v1.74h4V41.33a35.55,35.55,0,0,0-.13-3.57,3.08,3.08,0,0,0-.6-1.7,1.64,1.64,0,0,0-1.28-.5A1.38,1.38,0,0,0,198.74,36.06Z"/><path class="cls-3" d="M100.12,45.86,93.89,23.28h5.45l2.2,10.22c.55,2.51,1,4.67,1.24,6.45h.13c.19-1.28.6-3.39,1.24-6.41l2.29-10.26h5.45l-6.32,22.58V56.67h-5.4V45.86Z"/><path class="cls-3" d="M143.41,32.3V56.72H139.1l-.46-3h-.13a5.64,5.64,0,0,1-5.27,3.39,4.15,4.15,0,0,1-3.57-1.6c-.78-1.06-1.15-2.7-1.15-5V32.3H134V50.21a5.61,5.61,0,0,0,.36,2.34,1.23,1.23,0,0,0,1.19.69,2.37,2.37,0,0,0,1.38-.46,2.18,2.18,0,0,0,1-1.1V32.3Z"/><path class="cls-3" d="M171.58,32.3V56.72h-4.31l-.46-3h-.13a5.64,5.64,0,0,1-5.27,3.39,4.16,4.16,0,0,1-3.57-1.6c-.78-1.06-1.15-2.7-1.15-5V32.3h5.5V50.21a5.61,5.61,0,0,0,.36,2.34,1.24,1.24,0,0,0,1.19.69,2.37,2.37,0,0,0,1.38-.46,2.18,2.18,0,0,0,1-1.1V32.3Z"/><path class="cls-3" d="M158.34,27.72h-5.45v29h-5.36V27.72h-5.45V23.28h16.26Z"/><path class="cls-3" d="M189.76,36.2a6.22,6.22,0,0,0-1.6-3.35,4.41,4.41,0,0,0-3.07-1.05,5,5,0,0,0-2.84.87,5.62,5.62,0,0,0-2,2.25h0V22h-5.31V56.67h4.53l.55-2.29h.14a4.61,4.61,0,0,0,1.92,2,5.94,5.94,0,0,0,2.84.74,4.29,4.29,0,0,0,4.08-2.57c.87-1.69,1.33-4.4,1.33-8V42.66A37,37,0,0,0,189.76,36.2Zm-5,9.94a31.35,31.35,0,0,1-.23,4.17,4.6,4.6,0,0,1-.73,2.15,1.77,1.77,0,0,1-1.37.64,2.27,2.27,0,0,1-1.24-.32,2.65,2.65,0,0,1-.92-1V38a3.74,3.74,0,0,1,1-1.64,2.18,2.18,0,0,1,1.46-.65,1.49,1.49,0,0,1,1.29.65,5.24,5.24,0,0,1,.64,2.19,38.83,38.83,0,0,1,.18,4.4v3.21Z"/></svg>