<svg id="Layer_1" data-name="Layer 1" xmlns="http://www.w3.org/2000/svg" viewBox="0 0 64 64"><defs><style>.cls-1{fill:red;}.cls-2{fill:#fff;}</style></defs><title>icon-youtube</title><rect class="cls-1" width="64" height="64" rx="32"/><path class="cls-2" d="M50.65,22.64a4.85,4.85,0,0,0-3.43-3.43c-3-.83-15.22-.83-15.22-.83s-12.18,0-15.22.8a4.94,4.94,0,0,0-3.43,3.46c-.81,3.05-.81,9.36-.81,9.36s0,6.35.81,9.36a4.85,4.85,0,0,0,3.43,3.43c3.07.83,15.22.83,15.22.83s12.18,0,15.22-.8a4.85,4.85,0,0,0,3.43-3.43c.81-3,.81-9.36.81-9.36S51.49,25.69,50.65,22.64ZM27.14,39V25l12.09,7Z"/></svg>