<svg id="Layer_1" data-name="Layer 1" xmlns="http://www.w3.org/2000/svg" viewBox="0 0 64 64"><defs><style>.cls-1{fill:none;stroke:#fff;stroke-linecap:round;stroke-linejoin:round;stroke-width:2px;}</style></defs><title>icon-play</title><path class="cls-1" d="M53.59,21.44a5.52,5.52,0,0,0-3.87-3.87c-3.43-.94-17.18-.94-17.18-.94s-13.74,0-17.17.91a5.59,5.59,0,0,0-3.87,3.9C10.59,24.88,10.59,32,10.59,32s0,7.16.91,10.56a5.52,5.52,0,0,0,3.87,3.87c3.47.94,17.17.94,17.17.94s13.75,0,17.18-.91a5.49,5.49,0,0,0,3.87-3.86c.9-3.44.9-10.56.9-10.56S54.53,24.88,53.59,21.44ZM27.06,39.86V24.14L40.71,32Z"/></svg>