<svg id="Layer_1" data-name="Layer 1" xmlns="http://www.w3.org/2000/svg" xmlns:xlink="http://www.w3.org/1999/xlink" viewBox="0 0 64 64"><defs><style>.cls-1{fill:url(#radial-gradient);}.cls-2{fill:url(#radial-gradient-2);}.cls-3{fill:#fff;}</style><radialGradient id="radial-gradient" cx="2082.04" cy="2321.47" r="100.71" gradientTransform="matrix(0, -0.65, 0.6, 0, -1384.52, 1423.96)" gradientUnits="userSpaceOnUse"><stop offset="0" stop-color="#ffdb55"/><stop offset="0.1" stop-color="#ffdb55"/><stop offset="0.5" stop-color="#fc543e"/><stop offset="1" stop-color="#c637a9"/></radialGradient><radialGradient id="radial-gradient-2" cx="2049.45" cy="2216.61" r="43.16" gradientTransform="translate(7576.43 -2780.78) rotate(79.36) scale(0.65 3.6)" gradientUnits="userSpaceOnUse"><stop offset="0" stop-color="#3771c6"/><stop offset="0.13" stop-color="#3771c6"/><stop offset="1" stop-color="#6500fd" stop-opacity="0"/></radialGradient></defs><title>icon-instagram</title><rect class="cls-1" width="64" height="64" rx="32"/><rect class="cls-2" width="64" height="64" rx="32"/><path class="cls-3" d="M32,11.76c-5.5,0-6.19,0-8.35.12a14.82,14.82,0,0,0-4.91.94,10,10,0,0,0-3.59,2.34,9.83,9.83,0,0,0-2.33,3.58,14.43,14.43,0,0,0-.94,4.91c-.1,2.16-.13,2.85-.13,8.35s0,6.18.13,8.34a14.69,14.69,0,0,0,.94,4.92,9.7,9.7,0,0,0,2.33,3.58,9.86,9.86,0,0,0,3.58,2.34,14.94,14.94,0,0,0,4.92.94c2.16.1,2.85.12,8.34.12s6.19,0,8.35-.12a14.93,14.93,0,0,0,4.91-.94,10.43,10.43,0,0,0,5.92-5.92,14.94,14.94,0,0,0,.94-4.92c.1-2.15.12-2.84.12-8.34s0-6.19-.12-8.35a14.93,14.93,0,0,0-.94-4.91,10.43,10.43,0,0,0-5.92-5.92,14.94,14.94,0,0,0-4.92-.94c-2.16-.1-2.84-.12-8.34-.12Zm-1.74,4.35H32c5.17,0,5.78,0,7.83.11a10.73,10.73,0,0,1,3.6.67,6.44,6.44,0,0,1,3.67,3.68,10.67,10.67,0,0,1,.67,3.6c.09,2,.11,2.65.11,7.83s0,5.78-.11,7.82a10.67,10.67,0,0,1-.67,3.6,6.44,6.44,0,0,1-3.67,3.68,10.73,10.73,0,0,1-3.6.67c-2,.09-2.66.11-7.83.11s-5.79,0-7.84-.11a11,11,0,0,1-3.6-.67,6.44,6.44,0,0,1-3.67-3.68,10.42,10.42,0,0,1-.67-3.6c-.1-2-.11-2.65-.11-7.83s0-5.79.11-7.83a10.48,10.48,0,0,1,.67-3.6,6,6,0,0,1,1.45-2.23,6.15,6.15,0,0,1,2.22-1.45,11,11,0,0,1,3.6-.67c1.79-.08,2.48-.1,6.1-.1Zm12.32,2.66A2.66,2.66,0,0,0,40,22.12,2.62,2.62,0,0,0,41.87,24a2.65,2.65,0,1,0,.71-5.2ZM32,21.45A10.55,10.55,0,1,0,42.55,32,10.56,10.56,0,0,0,32,21.45Zm-1.43,4.49a6.23,6.23,0,0,1,7.48,7.48,6.16,6.16,0,0,1-4.63,4.64,6.23,6.23,0,0,1-2.85-12.12Z"/></svg>