<?xml version="1.0" encoding="utf-8"?>
<!-- Generator: Adobe Illustrator 23.0.0, SVG Export Plug-In . SVG Version: 6.00 Build 0)  -->
<svg version="1.1" id="Layer_1" xmlns="http://www.w3.org/2000/svg" xmlns:xlink="http://www.w3.org/1999/xlink" x="0px" y="0px"
	 viewBox="0 0 309 109" style="enable-background:new 0 0 309 109;" xml:space="preserve">
<style type="text/css">
	.st0{fill:#FFFFFF;}
	.st1{fill:#F1BF22;}
</style>
<g>
	<polygon points="1,109 19.7,0 308,0 289,109 	"/>
	<g>
		<path class="st0" d="M81.4,92.6h14.5l-35.5-76H48.6L33.8,55.4l0.8,30.2h13.8l2.5-13.1h21.6L81.4,92.6z M53.3,59.9l1.6-8.6
			l2.2-13.8l9.8,22.3H53.3z"/>
		<g>
			<path class="st1" d="M48.4,85.4l-1.5,8.8h-7.3c-4,0-7.2-0.8-9.5-2.4c-2.3-1.6-3.7-3.8-4.1-6.5c-0.5-2.7,0-5.8,1.3-9.1l3.1-7.6
				c1.1-2.6,1.4-4.8,1-6.4c-0.4-1.6-2.3-2.5-5.5-2.5h-4.7l1.5-8.8h4.7c3.3,0,5.4-0.8,6.5-2.5c1-1.6,1.5-3.8,1.3-6.4l-0.4-7.6
				c-0.3-5.5,0.9-9.9,3.7-13.1c2.8-3.3,7.1-4.9,12.9-4.9h9.1l-1.5,8.8h-7.8c-2.2,0-3.8,0.7-4.7,2.1c-1,1.4-1.4,3.2-1.3,5.4l0.4,7.6
				c0.2,4.2-0.4,7.5-2,10.1c-1.6,2.6-3.9,4.3-7,5.3c2.8,0.8,4.5,2.4,5.2,4.9c0.7,2.4,0.2,5.6-1.4,9.6L37,77.9
				c-0.9,2.2-1.1,4-0.6,5.4c0.5,1.4,1.8,2.2,4,2.2H48.4z"/>
		</g>
	</g>
	<g>
		<g>
			<path class="st0" d="M109.9,17.3l-18,35.4h7.6l3.3-6.7h10.7l1,6.7h7.3l-5.6-35.4H109.9z M112.5,39.2h-6.5l5.1-10.7l0.8,6.5
				L112.5,39.2z"/>
			<polygon class="st0" points="156.7,17.3 148.5,17.3 140.8,28.1 136.5,17.3 128.6,17.3 135.3,34.2 121.8,52.6 130,52.6 
				138.2,41.1 142.8,52.6 150.6,52.6 143.6,35.1 			"/>
			<polygon class="st0" points="154.6,52.6 175.7,52.6 176.9,45.6 163.2,45.6 164.5,38.2 176.2,38.2 177.5,31.2 165.7,31.2 
				167,24.3 180.2,24.3 181.4,17.3 160.9,17.3 			"/>
			<path class="st0" d="M204.7,30.9l-1,7.9c-0.7-1.9-1.3-3.7-2-5.4c-1-2.5-2.1-5-3.2-7.5c-1.1-2.5-2.4-5.3-3.9-8.2l-0.2-0.3H188
				l-6.2,35.4h7l2.4-13.6l1.4-9.9c1.5,3.3,2.9,6.6,4.1,10c1.5,4,3,8.4,4.5,13.1l0.1,0.4h6.5l6.2-35.4h-7L204.7,30.9z"/>
			<path class="st0" d="M240.8,18.8c-1.9-1.3-4.3-2-7.2-2c-4.3,0-7.7,1.4-10.2,4.1c-2.4,2.6-4.1,6.3-4.9,10.9l-1.1,6.2
				c-0.5,2.9-0.4,5.5,0.4,7.8c0.8,2.3,2.2,4.1,4.2,5.5c1.9,1.3,4.3,2,7.2,2c4.3,0,7.7-1.4,10.1-4c2.4-2.6,4.1-6.3,4.9-11l1.1-6.2
				c0.5-2.9,0.4-5.5-0.4-7.7C244.1,21.9,242.7,20.1,240.8,18.8z M234.3,44.1c-1.2,1.4-2.7,2.1-4.8,2.1c-2,0-3.4-0.7-4.1-2
				c-0.8-1.4-1-3.5-0.5-6.1l1.1-6.2c0.4-2.6,1.3-4.6,2.5-6.1c1.2-1.4,2.8-2.1,4.8-2.1c2.1,0,3.4,0.7,4.2,2.1c0.8,1.5,1,3.5,0.5,6
				l-1.1,6.2C236.3,40.6,235.5,42.7,234.3,44.1z"/>
			<polygon class="st0" points="271.6,17.3 263.3,34.7 260.2,41.5 259.6,35 257.4,17.3 249.9,17.3 254.9,52.6 262,52.6 279.5,17.3 
							"/>
		</g>
		<g>
			<polygon class="st0" points="105.7,92.2 112.4,92.2 117.4,64.3 110.6,64.3 			"/>
			<polygon class="st0" points="119.1,70.9 126.3,70.9 122.5,92.2 129.3,92.2 133,70.9 140.2,70.9 141.3,64.3 120.2,64.3 			"/>
			<path class="st0" d="M157.7,70.4c0.7,0,1.5,0.1,2.1,0.3c0.7,0.2,1.6,0.5,2.7,1l1,0.4l2.4-5.9l-1-0.4c-1.3-0.6-2.5-1-3.6-1.3
				c-1.2-0.3-2.4-0.4-3.6-0.4c-2.2,0-4.1,0.4-5.6,1.2c-1.5,0.8-2.7,1.9-3.4,3.3c-0.7,1.4-1.1,2.9-1.1,4.5c0,1.8,0.5,3.4,1.3,4.6
				c0.9,1.2,2.1,2.2,3.8,2.9l2.7,1.2c0.9,0.4,1.3,0.8,1.5,1c0.2,0.3,0.3,0.6,0.3,1c0,0.7-0.2,1.2-0.8,1.7c-0.6,0.5-1.6,0.7-3,0.7
				c-0.9,0-1.8-0.1-2.7-0.3c-0.9-0.2-1.9-0.6-3.2-1.2l-1.1-0.5l-2.4,5.9l0.9,0.5c1.5,0.7,2.9,1.3,4.3,1.6c1.3,0.3,2.7,0.5,4.1,0.5
				c2.5,0,4.5-0.4,6.1-1.2c1.6-0.8,2.8-2,3.6-3.4c0.7-1.4,1.1-2.9,1.1-4.5c0-1.9-0.5-3.6-1.4-4.8c-0.9-1.2-2.2-2.2-3.7-2.9l-2.7-1.2
				c-1-0.4-1.4-0.8-1.6-1c-0.2-0.2-0.3-0.5-0.3-0.9C154.6,71.8,154.6,70.4,157.7,70.4z"/>
			<path class="st0" d="M174.4,76.1c0.3-1.7,0.9-3.2,1.7-4.2c0.8-1,1.8-1.4,3.2-1.4c0.7,0,1.4,0.1,2.1,0.3c0.7,0.2,1.6,0.5,2.6,1
				l1,0.5l2.6-6l-1-0.5c-1.3-0.6-2.5-1.1-3.6-1.3c-1.1-0.3-2.3-0.4-3.4-0.4c-3.5,0-6.2,1-8.2,3.1c-1.9,2-3.2,4.9-3.8,8.7l-0.8,4.6
				c-0.4,2.2-0.2,4.3,0.3,6.1c0.6,1.9,1.7,3.4,3.2,4.5c1.5,1.1,3.5,1.7,5.8,1.7c0.9,0,2-0.1,3.2-0.3c1.2-0.2,2.6-0.5,4-1l0.9-0.3
				l-1.4-6.1l-1.1,0.3c-1.2,0.4-2.2,0.6-3,0.7c-0.8,0.1-1.5,0.2-2.1,0.2c-1.7,0-2.3-0.7-2.6-1.3c-0.5-1-0.6-2.4-0.3-4.1L174.4,76.1z
				"/>
			<polygon class="st0" points="203.5,74.8 196.2,74.8 198,64.3 191.2,64.3 186.3,92.2 193.1,92.2 195,81.4 202.3,81.4 200.4,92.2 
				207.2,92.2 212.1,64.3 205.3,64.3 			"/>
			<path class="st0" d="M231.8,65.6c-1.6-1.1-3.5-1.6-5.7-1.6c-3.4,0-6.2,1.1-8.2,3.3c-1.9,2.1-3.2,4.9-3.8,8.5l-0.8,4.6
				c-0.4,2.3-0.3,4.4,0.3,6.2c0.7,1.9,1.8,3.4,3.4,4.4c1.6,1.1,3.5,1.6,5.7,1.6c3.4,0,6.1-1.1,8.1-3.2c1.9-2.1,3.2-4.9,3.9-8.6
				l0.8-4.6c0.4-2.3,0.3-4.3-0.3-6.1C234.4,68.1,233.3,66.6,231.8,65.6z M228.6,75.7l-0.8,4.6c-0.3,1.9-0.9,3.4-1.8,4.4
				c-0.7,0.9-1.8,1.3-3.1,1.3c-1.7,0-2.3-0.7-2.6-1.2c-0.5-1-0.6-2.3-0.3-4.1l0.8-4.6c0.3-1.8,0.9-3.3,1.8-4.3
				c0.8-0.9,1.8-1.4,3.1-1.4c1.7,0,2.3,0.7,2.6,1.2C228.8,72.6,228.9,74,228.6,75.7z"/>
			<path class="st0" d="M256.1,65.6c-1.6-1.1-3.5-1.6-5.7-1.6c-3.4,0-6.2,1.1-8.2,3.3c-1.9,2.1-3.2,4.9-3.8,8.5l-0.8,4.6
				c-0.4,2.3-0.3,4.4,0.3,6.2c0.7,1.9,1.8,3.4,3.4,4.4c1.6,1.1,3.5,1.6,5.7,1.6c3.4,0,6.1-1.1,8.1-3.2c1.9-2.1,3.2-4.9,3.9-8.6
				l0.8-4.6c0.4-2.3,0.3-4.3-0.3-6.1C258.8,68.1,257.6,66.6,256.1,65.6z M252.9,75.7l-0.8,4.6c-0.3,1.9-0.9,3.4-1.8,4.4
				c-0.7,0.9-1.8,1.3-3.1,1.3c-1.7,0-2.3-0.7-2.6-1.2c-0.5-1-0.6-2.3-0.3-4.1l0.8-4.6c0.3-1.8,0.9-3.3,1.8-4.3
				c0.8-0.9,1.8-1.4,3.1-1.4c1.7,0,2.3,0.7,2.6,1.2C253.1,72.6,253.2,74,252.9,75.7z"/>
			<polygon class="st0" points="268.8,85.6 272.5,64.3 265.8,64.3 260.9,92.2 277.9,92.2 279,85.6 			"/>
		</g>
	</g>
</g>
</svg>
