<svg id="Layer_1" data-name="Layer 1" xmlns="http://www.w3.org/2000/svg" viewBox="0 0 64 64"><defs><style>.cls-1{fill:#fff;}</style></defs><title>social-instagram</title><path class="cls-1" d="M32,8.12c-6.48,0-7.3,0-9.85.14a17.61,17.61,0,0,0-5.79,1.11,12.22,12.22,0,0,0-7,7,17.42,17.42,0,0,0-1.11,5.8c-.11,2.55-.14,3.36-.14,9.85s0,7.3.14,9.85a17.61,17.61,0,0,0,1.11,5.79,12.22,12.22,0,0,0,7,7,17.68,17.68,0,0,0,5.8,1.11c2.55.12,3.36.14,9.85.14s7.3,0,9.85-.14a17.68,17.68,0,0,0,5.8-1.11,12.29,12.29,0,0,0,7-7,17.61,17.61,0,0,0,1.11-5.79c.11-2.55.14-3.36.14-9.85s0-7.3-.14-9.85a17.68,17.68,0,0,0-1.11-5.8,12.22,12.22,0,0,0-7-7,17.68,17.68,0,0,0-5.8-1.11c-2.55-.12-3.36-.14-9.85-.14Zm-2.14,4.3H32c6.38,0,7.14,0,9.65.14a13,13,0,0,1,4.44.82,7.29,7.29,0,0,1,2.74,1.79,7.29,7.29,0,0,1,1.79,2.74,13,13,0,0,1,.82,4.44c.12,2.51.14,3.27.14,9.64s0,7.13-.14,9.65a13,13,0,0,1-.82,4.44,8,8,0,0,1-4.53,4.53,13.54,13.54,0,0,1-4.44.82c-2.51.11-3.27.14-9.65.14s-7.13,0-9.65-.14a13.46,13.46,0,0,1-4.43-.82,7.93,7.93,0,0,1-4.54-4.54,13.46,13.46,0,0,1-.82-4.43c-.11-2.52-.14-3.27-.14-9.65s0-7.13.14-9.65a13.46,13.46,0,0,1,.82-4.43,7.32,7.32,0,0,1,1.79-2.75,7.45,7.45,0,0,1,2.75-1.79,13.2,13.2,0,0,1,4.43-.82c2.2-.1,3.06-.13,7.51-.14Zm14.89,4a2.87,2.87,0,1,0,2.87,2.86,2.86,2.86,0,0,0-2.87-2.86ZM32,19.73A12.27,12.27,0,1,0,44.27,32,12.27,12.27,0,0,0,32,19.73ZM32,24a8,8,0,1,1-8,8A8,8,0,0,1,32,24Z"/></svg>