<svg class="chapter-icon crown" xmlns="http://www.w3.org/2000/svg" viewBox="0 0 39.84 27.06"><g data-name="Layer 2"><g id="Layer_1-2" data-name="Layer 1"><path d="M1.14 14.45a8.83 8.83 0 000-2.47c-.26-.73-.44-1.5-.63-2.22a17.12 17.12 0 01-.09-3.52 3.7 3.7 0 00-.3-2.18 1.12 1.12 0 01.37-1.41c.26-.2.62-.39.65-.78 0-.21.09-.37.26-.37 1 0 2-.16 2.73.68.44.52.91 1 1.33 1.55C6.05 4.44 7 5 7.63 5.66c.06.06.25.12.3.08.75-.56 1.93-.21 2.45-1.3A12.59 12.59 0 0113.3.86c.2-.19.5-.31.68-.46.55-.48.88-.35 1.29.14s.74.76 1.12 1.13a.94.94 0 01.37.74c0 .39-.16.8.13 1.18C17.67 4.6 17.84 6 19 6.8c.32.21.39.3.78 0a22.86 22.86 0 002.72-2.76l2.88-2.88a6.64 6.64 0 00.74-.76 1.1 1.1 0 011.43-.26c.39.21 1 .55.88 1.19s.49 1.4.37 2.16a.58.58 0 00.29.59c.49.33.49 1 1 1.38.27.21.32 1 .63.9A3 3 0 0032 5.63a31.32 31.32 0 003.9-4.58 1.6 1.6 0 011.84 0c.6.55 1.26 1.08 1 2.07a1.38 1.38 0 00.22 1 2.4 2.4 0 010 1.65c-.28 1.2-.4 2.44-.57 3.67a.63.63 0 00.2.62c.31.28.17.68.13 1s-.71.86 0 1.32c.07 0 0 .31-.13.46a.7.7 0 000 1.07.65.65 0 01.17.63 6.76 6.76 0 00.4 2.86 8.19 8.19 0 00.65 2.74c.14.21 0 .58 0 .87 0 1.11-.18 1.37-1 1.42-1.07.06-1.85-.46-1.79-1.36.1-1.92-.63-3.78-.38-5.7.08-.64-.45-1.13-.38-1.81a2.48 2.48 0 00-.26-1.68c-.28-.49-.06-1.27-.06-1.92a2.22 2.22 0 00-.32-1.28c-.63-1-.6-1-1.43-.3-.3.27-.5.65-1 .56s-.59.34-.81.58c-1 1-1.78 1.15-2.77.3A10.32 10.32 0 0127.37 7a3.86 3.86 0 01-.37-.72c-.16-.48-.56-.39-1.21-.22a2 2 0 00-1 .67 9.85 9.85 0 01-2.62 1.82 2.89 2.89 0 00-1.43 1.15 2.14 2.14 0 01-1.22.87 1.3 1.3 0 01-1.52-.23 13.48 13.48 0 01-2.26-2.8 4.65 4.65 0 00-1.83-1.69c-.35-.2-.52-.07-.75.15a1.29 1.29 0 00-.28.59A4.11 4.11 0 0111.49 9a1.93 1.93 0 00-.45.89c-.31 1.19-.67 1.35-2 1.13h-.23c-1.49.21-2.47-.65-3.42-1.6a2.62 2.62 0 00-1.93-.89c-.34 0-.47.07-.57.45-.17.69.34 1.29.08 2a2.33 2.33 0 00.09 2c.5.67-.18 1.52.54 2.11.17.14 0 .68 0 1a9.7 9.7 0 00.63 4.52c.21.43-.79 1.9-1.28 2a.46.46 0 01-.44-.2 2.17 2.17 0 01-.69-1.49 7 7 0 00-.34-2.87 9.27 9.27 0 01-.34-3.6z"></path><path d="M10.43 22.4c1.07.32 2.33-.35 3.65-.36A19.29 19.29 0 0018 22c1.09-.23 2.16-.18 3.23-.32.85-.11 1.51.46 2.34.41s1.63-.31 2.33.33c1.23-.26 2.35.58 3.57.35.83-.16 1.49.49 2.34.39a4.68 4.68 0 012.35.26 5.1 5.1 0 002.46 0 1.71 1.71 0 011.74.91c.14.2.22.49.4.72a1.14 1.14 0 01-.93 1.95c-1.26 0-2.56.32-3.79-.23-.74.46-1.43 0-2.15-.05-1.73-.09-3.42-.7-5.16-.39-1 .18-1.89-.4-2.87-.38a7.76 7.76 0 01-2.81-.05c-1.22-.44-2.41-.13-3.59-.31-.84-.12-1.49.53-2.34.4a5.51 5.51 0 00-2.46 0 13.9 13.9 0 01-2.53.32c-1.24.19-2.34-.52-3.58-.39-.56 0-.9-.52-1.12-1s.07-.73.38-1.06c1.43-1.5 1.42-1.51 3.46-1.51zm6.68-2.84h-.17c-1.12 0-1.31-.1-1.55-.82s0-1.11.84-1.67c1.44-1 1.94-.9 3 .19.34.35.5.78.28 1.06-.35.44-.31 1.3-1.19 1.25-.39-.03-.8-.01-1.21-.01zm-9.58.3c-.2-1 .83-1.69.77-2.67.58-.17 1.09-.61 1.75-.47.2 0 .27.13.32.33s.31.48.33.74c.05.54.93.62.69 1.27s-.89.45-1.23.87a2.4 2.4 0 01-1.46.72c-1 .2-1.15.14-1.17-.79zm17.02-1.72c0-.9.45-1.22 1.59-1.05.36.05.49-.26.74-.35.62-.21 1.16.28.82.79-.46.69-.36.95.37 1.16.08 0 .56.21.23.45s-.34.91-1 .54a2.9 2.9 0 00-1.76-.13c-.25 0-.62.15-.65-.32s-.51-.63-.34-1.09zm9.92.1a1.77 1.77 0 010 .69c-.12.24-.45.63-.54.6a7.27 7.27 0 01-1.56-.88c-.23-.16.11-.95.49-1.17.13-.08.32-.06.47-.14.64-.31 1.06-.11 1.15.55a2 2 0 01-.01.35z"></path></g></g>
</svg>
