<?xml version="1.0" encoding="utf-8"?>
<!-- Generator: Adobe Illustrator 23.0.0, SVG Export Plug-In . SVG Version: 6.00 Build 0)  -->
<svg version="1.1" id="logo_footer" xmlns="http://www.w3.org/2000/svg" xmlns:xlink="http://www.w3.org/1999/xlink" x="0px"
	 y="0px" viewBox="0 0 179.1 100" style="enable-background:new 0 0 179.1 100;" xml:space="preserve">
<path d="M68,80.2c-0.1-0.3-0.3-0.4-0.5-0.4c-0.4-0.1-0.9-0.3-1.4-0.3c-1.3,0-2-0.5-2.5-1.6c-0.3-0.8-0.8-1.3-1.3-1.8
	c-0.5-0.4-0.8-0.9-1-1.5c-0.1-0.1-0.1-0.3-0.3-0.4c-0.8-0.8-1.1-1.9-2-2.5c-0.3-0.3-0.3-0.5-0.4-0.8c-0.3-0.6-0.5-1.1-0.9-1.5
	c-0.1-0.1-0.3-0.4-0.3-0.6c0-0.5-0.4-0.9-0.6-1.3c-0.3-0.1-0.4-0.3-0.5-0.5c-1-1.4-1.5-3.2-2.5-4.6c-0.3-0.5-0.5-1.1-1-1.4
	c-0.3-0.1-0.3-0.3-0.3-0.4c0-0.3-0.3-0.5-0.3-0.8c-0.3-0.8-0.9-1.1-1-1.8c-0.1-0.4-0.4-0.6-0.6-0.9c-0.8-0.8-1.3-1.6-1.9-2.5
	c-0.6-1-1.1-2.2-1.6-3.2c-0.1-0.3-0.1-0.4-0.4-0.5c-0.5-0.1-0.8-0.6-0.9-1c-0.3-0.5-0.6-1-1-1.5c-0.1-0.1-0.3-0.3-0.3-0.4
	c-0.1-0.8-0.8-1.3-1.1-1.8c-0.5-0.8-0.6-0.8-0.1-1.6c0.1-0.4,0.3-0.6,0.5-0.9c0.4-0.4,0.6-1,1-1.5c0.3-0.5,0.9-0.9,0.8-1.6v-0.1
	c0.6-0.3,0.6-0.9,1-1.3c0.8-0.5,1.4-1.4,2-2c0.5-0.5,0.8-1,1.1-1.4c0.9-0.9,1.9-1.6,2.4-2.8c0.1-0.3,0.3-0.4,0.5-0.5
	c0.3-0.3,0.5-0.5,0.6-0.8c0.5-0.8,1.1-1.1,2.2-1.1c1.6,0.1,2.3-0.4,2.7-1.9c0.1-0.6-0.3-1.1-0.9-1.1c-0.4-0.1-0.8,0-1.1,0
	c-0.9,0.1-1.9,0.5-2.8,0.1c-0.1-0.1-0.4,0-0.5,0c-0.8,0.3-1.6,0.3-2.4,0.3c-1.1,0-2.2,0.5-3.2,0.6c-0.5,0-0.6,0.4-0.6,0.9
	c0,0.5,0.3,0.8,0.8,0.8c0.9-0.1,1.6,0.3,2.4,0c0.4-0.1,0.9,0,1.3,0c0.3,0,0.4,0,0.5,0.3c0,0.1-0.1,0.4-0.3,0.5
	c-0.8,0.6-1.4,1.4-2.2,2.2c-0.8,0.8-1.4,1.5-2,2.3c-0.6,0.9-1.4,1.8-2.2,2.7c-0.5,0.6-1.1,1.3-1.6,2c-0.5,0.8-1.1,1.6-1.6,2.4
	c-0.5,0.8-1.3,1.4-1.6,2.2c-0.3,0.5-0.8,0.8-1,1.1c-0.1,0.3-0.4,0.9-0.8,0.6c-0.3-0.1-0.1-0.6-0.1-1c0-0.1,0.1-0.3,0.1-0.4
	c0-0.6,0.5-1.1,0.4-1.9c-0.1-1,0.3-2.2-0.1-3.3c-0.1-0.1,0-0.3,0-0.4c0.1-0.6-0.1-1.3-0.1-1.9c-0.1-0.5-0.4-1,0-1.5
	c0.1-0.1,0.1-0.3,0-0.4c-0.3-0.4-0.1-0.6-0.1-1c0-0.9,0.4-1.6,0.3-2.5c-0.1-0.8,0.3-1.4-0.1-2.2v-0.1c0.4-1.1,0.3-2.4,0.5-3.6
	c0.1-0.4,0.1-1,0.5-1.1c0.8-0.3,1.6-0.3,2.2-0.9h0.1c0.8-0.1,0.9-0.3,0.8-0.9c0-0.3-0.1-0.5,0-0.8c0.1-0.1,0-0.4-0.1-0.4
	c-0.6-0.1-0.9-0.5-1.4-0.8c-0.3-0.3-0.6-0.1-0.8,0.1c-0.1,0.3-0.4,0.3-0.6,0.3c-1.5-0.3-3.2-0.3-4.7,0.1h-0.4
	c-1.4,0.3-2.9,0.3-4.3,0.5c-0.8,0.1-1.4,0.3-1.8,1c-0.1,0.4-0.4,0.6-0.1,1c0.3,0.3,0.5,0.6,0.9,0.6c0.5,0,1,0.1,1.5,0.3
	c1,0.1,2,0.4,3,0c0.4-0.1,0.6,0,0.9,0.1c0.5,0.3,0.8,0.6,1,1c0.5,0.9,0.6,1.9,0.6,2.8c0,2.4,0,4.7-0.1,7.1c-0.1,1.5-0.1,3.2-0.1,4.7
	c0,1.3,0.1,2.5-0.1,3.8s-0.4,2.5-0.4,3.8v3.7c0,0.9,0.1,1.6,0.1,2.4c0.1,2.9-0.1,5.7-0.4,8.6c-0.1,2-0.3,4.1-0.3,6.1
	c0,0.4-0.1,0.5-0.4,0.6c-0.9,0.4-1.8,0.6-2.7,0.8c-1.3,0-2.5,0.1-3.7,0.9c-0.5,0.3-0.6,0.8-0.1,1c0.8,0.5,1.5,1.1,2.5,0.9
	c0.1,0,0.4,0,0.6-0.1c0.5,0.3,1.1,0.3,1.6,0.3c0.6,0.1,1.3,0,1.9,0.1c0.6,0,1.3,0,1.8-0.5c0.3-0.3,0.6-0.3,1-0.1
	c0.4,0.1,0.8,0.3,1.1,0.1c0.4-0.1,0.9-0.3,1.3-0.3c0.5,0,0.8-0.3,0.6-0.8c-0.1-0.5-0.4-1.1-0.5-1.6c-0.1-0.4-0.4-0.4-0.6-0.4
	c-0.3-0.1-0.6-0.1-0.9-0.5c-0.8-0.9-1.3-1.9-0.6-3.2c0.1-0.3,0-0.4,0-0.6c0-0.6-0.3-1.3-0.1-1.8c0.5-2.2,0.3-4.3,0.6-6.5
	c0.1-0.8,0.1-1.5-0.1-2.3c-0.4-0.8-0.3-1.5-0.1-2.3v-1.1c0-0.6,0-1.4,0.4-2c0.1-0.3,0.1-0.5,0.4-0.5c0.3,0,0.3,0.3,0.4,0.4
	c0.6,0.8,1,1.8,1.6,2.7c0.3,0.3,0.4,0.5,0.5,0.8c0.5,1.1,1.1,2.3,1.9,3.3c1.5,2,2.8,4.2,4.1,6.3c0.9,1.5,1.8,3.2,2.7,4.7
	c0.4,0.6,0.9,1,1.1,1.6c0.3,0.5,0.4,0.9,0.6,1.3c0.6,1.1,1.4,2.3,1.9,3.4c0.4,0.9,0.9,1.5,1.4,2.3c0.4,0.6,0.8,1.3,1.3,1.9
	c0.1,0.3,0.3,0.4,0,0.6c-0.3,0.1-0.4,0.3-0.6,0c-0.1-0.1-0.3,0-0.4,0c-1.1,0.4-2.2,0.8-3.3,1.3c-0.3,0.1-0.4,0.3-0.5,0.5
	c-0.1,0.5,0.4,1.6,0.9,1.8c0.9,0.1,1.8,0.5,2.8,0.3c0.9-0.1,1.8-0.3,2.7-0.1c1,0.1,2.2,0.1,3.2,0.3c1.1,0,2.3-0.1,3.3,0
	c0.5-0.1,1,0.1,1.6,0.3c0.4-0.5,0.9-0.4,1.3-0.4h0.9c0.4-0.1,0.9-1.3,0.6-1.4C68.2,81.2,68.4,80.6,68,80.2z"/>
<path d="M26.1,76.1c-0.9-0.1-1.6-0.6-2.5-0.6c-1.6,0-3.4,0.3-5.1,0.3v0c-0.3,0-0.5,0-0.6,0.3c-0.9,0-1.5-0.4-2-1
	c-0.1-0.1-0.3-0.4-0.3-0.6c0.1-0.9-0.3-1.8-0.1-2.7c0.1-0.4,0-0.8-0.3-1c-0.4-0.4-0.4-0.8-0.1-1.3c0.3-0.6,0.5-1.3,0.4-1.9
	c-0.1-1-0.3-2.2,0-3.2c0-0.1-0.1-0.3-0.1-0.4c-0.1-0.3-0.1-0.5,0-0.8c0.1-0.9,0-1.8,0.1-2.7c0.1-1.5-0.4-3,0.3-4.6
	c-0.1-1,0-1.9,0-2.9c0-1.8-0.4-3.7-0.3-5.5c0-0.1-0.1-0.3-0.1-0.3c-0.3-0.3-0.1-0.5,0-0.8c0.1-0.4,0.1-0.6,0.1-1
	c0-0.9-0.3-1.6,0-2.5c0.1-0.6,0.3-1.1,0-1.8c-0.1-0.3-0.1-0.4,0-0.6c0.6-0.8,0.8-1.8,0.9-2.7c0-0.4,0.1-0.6,0.3-1c0.5-1,1.1-2,1-3.3
	c0-0.4,0.1-0.9,0.3-1.3c0.5-1.1,0.5-2.4,1.1-3.4v-0.3c0-1.3,0.9-2.3,1-3.4c0-0.6,0.4-1.3,0.5-2c0.3-1.1,0.9-2,1-3.2
	c0-0.1,0.1-0.1,0.3-0.3c0.8-0.8,1.4-1.4,2-2.2c0.5-0.8,1.4-1.1,2.3-0.9c0.3,0.1,0.5,0.3,0.8,0.1c1-0.5,2.2-0.5,3-1.1
	c0.4-0.4,0.9-0.8,1.3-1.1c0.6-0.6,0.8-1.5,0.5-2.3c-0.3-0.8-0.9-1-1.6-1c-0.5,0-0.9-0.1-1.3-0.3c-1-0.4-1.9-1.1-2.9-1.3
	c-1.1-0.3-2.2-0.4-3-1.1c-0.4-0.4-0.8-0.4-1.3-0.5c-1.1-0.3-2.3,0.1-3.4,0.1c-1.5,0.1-2.8,0.8-3.7,1.9c-0.4,0.4-0.6,0.8-1.1,0.9
	c-0.5,0.1-0.9,0.5-1.3,0.9c-0.3,0.5-0.8,0.6-1.3,0.8c-1.6,0.3-3.2,0.9-4.8,1.1c-0.9,0.1-1.6,0.5-2.5,0.8c-0.5,0.1-0.9,0.5-1,1
	c-0.5,0.8-0.3,1.6,0.5,1.6c1,0.1,2.2,0.3,3.2,0c1.4-0.4,2.8-0.4,4.2-0.6c0.4-0.1,0.6,0,1,0c0.4-0.1,0.6,0.1,0.8,0.4
	c0.5,0.9,0.8,1.8,0.8,2.7c0,1,0,2,0.1,3c0.1,0.9,0.1,1.9,0,2.8c-0.1,0.6-0.3,1.3-0.1,1.9v0.8c0,1.4,0,2.9-0.1,4.3
	c0,0.9,0.1,1.6,0,2.5c-0.1,1.1-0.1,2.4-0.3,3.7c-0.1,0.8-0.3,1.4-0.3,2.2c0.1,1.5,0,2.9,0.1,4.3c0.1,1.6,0.1,3.4,0.4,5.1
	c0.1,0.6,0.4,1.4,0.4,2.2c0,1.5,0.4,3,0.4,4.6c0,2.3,0,4.6-0.1,6.8c-0.1,1.3,0,2.5,0,3.8c0,1-0.1,2.2,0,3.2c0.1,1.3,0.1,2.4,0.1,3.7
	c0,0.5-0.1,0.9-0.5,1c-0.8,0.3-1.4,0.8-2.3,0.5c-0.3,0-0.6,0-0.9,0.1c-0.5,0.1-1.1,0.1-1.6,0.1c-1,0-1.9,0.3-2.9,0.5
	c-0.8,0.1-1.4,0.9-1.4,1.6c0,0.6,0.8,1.5,1.4,1.6c1,0.3,1.9,0.5,2.9,0.5c0.8,0,1.5,0.1,2.3-0.1c0.4-0.1,0.6-0.3,1-0.1h0.8
	c1.4,0,2.8-0.4,4.3-0.3c0.6,0.1,1.3,0.1,1.9,0.4c0.3,0,0.4,0.1,0.6,0.1c0.6,0,1.1,0,1.8,0.3c0.5,0.3,1,0.3,1.5,0.1
	c1.1-0.3,2.2-0.4,3.3-0.5c1-0.1,1.6-1.1,1.8-2.2C27.5,77.1,26.4,76.8,26.1,76.1z"/>
<path d="M123.8,70.5c-0.1-1-0.5-1.9-0.6-2.8c-0.3-1.5-0.6-3-1.3-4.4c-0.5-1-1.1-1.9-1.9-2.8c-0.6-0.6-1-1.3-1.8-1.6
	c-0.3,0-0.1-0.3-0.3-0.4c-0.3-0.5-0.6-0.9-1.3-1c-0.3,0-0.5-0.1-0.8-0.4c-0.3-0.3-0.5-0.4-0.9-0.4c-1-0.3-1.9-0.6-2.8-1.1
	c-0.4-0.1-4.5-1.8-6.2-1.3l-3.4,0.8c-0.6,0.1-1.4,0.1-1.9-0.5c-0.1-0.3-0.4-0.3-0.5-0.4c-0.6-0.3-0.9-0.8-0.8-1.4
	c0.1-1.4-0.3-2.7-0.9-3.9c0-0.1-0.1-0.4-0.1-0.5c-0.5-1.6-0.5-3.4-0.8-5.1c0-0.3-0.1-0.6-0.3-0.9c-0.3-0.5,0.1-1,0.1-1.5
	c0-0.3,0.1-0.3,0.3-0.3c0.5-0.3,1-0.4,1.8-0.3h0.8c0.3-0.1,0.8-0.1,1,0c0.8,0.4,1.4,0.3,2.2,0.3c1.1,0.1,2.2,0.3,3.3,0.4
	c1.5,0.1,2.9,0.4,4.3,0.8c0.8,0.2,3.9,0.1,4.6,0.5c0.9-0.5,1.2,2.6,2.5,2.6c0.1,0,1.8-1.5,1.9-1.5c0.2-0.1-0.4-4.3-0.2-4.3
	c-0.8-1-4.4,0.8-5.6,0.2c-0.4-0.1-0.8-0.5-1.1-0.6c-0.8-0.3-1.6-0.4-2.4-0.5c-1.3-0.3-2.5-0.4-3.9-0.5c-1-0.1-2.2-0.5-3.3-0.4
	c-1.3,0.1-2.5-0.1-3.8,0c-1.1,0.1-2.2-0.1-3.2-0.4c-1.6-0.3-3.3-0.1-4.7-1h-0.4c-0.6,0.3-1.4,0.4-2.2,0.8c-0.6,0.4-1,0.8-0.8,1.3h0
	c-0.1,1.1,0.3,1.8,1.3,1.8c0.6,0.1,1.3,0.4,2,0.3c0.4,0,0.6,0.1,0.8,0.5s0.4,0.8,0.8,0.9c0.4,0.3,0.5,0.5,0.5,1
	c0.1,2.9,0.3,6,0.4,8.9c0,0.8,0.3,1.5,0.3,2.3c-0.1,1.9-0.1,3.9-0.1,5.8c0,0.9-0.1,1.8-0.3,2.7c-0.3,0.9-0.1,1.6-0.4,2.5
	c-0.3,0.6-0.3,1.3-0.3,1.9c0,1,0.1,1.9,0,2.9c-0.1,1.1,0,2.3,0,3.4c0,0.3,0.1,0.4,0.1,0.5l0.8,2.7c0.4,1.1,0,2-0.4,2.9
	c-0.1,0.3-0.4,0.4-0.6,0.5c-0.6,0.1-1.3,0.5-2,0.5s-0.9,0.1-1,0.9c-0.1,0.8,0,1,0.8,1.3c0.4,0.1,0.9,0.3,1.3,0.3
	c0.9,0,1.9,0.1,2.8,0.1c0.4,0,0.8,0.1,1.1,0c0.5-0.3,0.9,0,1.3,0.3c1,0.8,2.2,0.9,3.3,0.8c1.3-0.1,2.5-0.5,3.8-0.6
	c0.3-0.1,0.5-0.1,0.6-0.3c1.1-0.9,2.7-0.6,3.9-0.6c1.4,0,2.7,0.1,3.9-0.4c0.3-0.1,0.5-0.3,0.8-0.3c1.5-0.1,2.9-0.8,4.2-1.5
	c1-0.5,1.9-1.1,2.8-1.6c0.8-0.4,1.3-0.9,1.5-1.6c0-0.3,0.3-0.5,0.4-0.8C123.6,74.1,123.9,72.3,123.8,70.5z M122.1,71
	c-0.1,1.3-0.1,2.5-0.6,4.1c-0.3,0.5-0.5,0.9-1,1.1c-0.3,0.1-0.6,0.4-0.9,0.6c-1.5,1.4-3.4,1.9-5.2,2.8c-0.1,0-0.3,0.1-0.4,0.1
	c-0.9,0.3-1.8,0.3-2.7,0.8c-0.3,0.1-0.5,0.1-0.8,0.1c-0.5,0-0.8-0.1-1-0.6c-0.6-1.1-1.1-2.3-2.2-3.2c-1.1-1-1.5-2.4-2-3.7
	c-0.1-0.3-0.1-0.4-0.1-0.6c0.1-0.5,0-1.1-0.1-1.6c-0.1-1-0.4-1.8-1-2.4c-0.5-0.5-0.5-1.1-0.5-1.8c0-1,0-2.2,0.4-3.2
	c0.3-0.8,0.4-1.5,0.6-2.2c0.3-0.8,0.6-1.3,1.5-1.5c0.4-0.1,0.8-0.4,1-0.8c0.4-0.6,1-0.8,1.6-0.6c1,0.1,2.2,0.1,3.3,0.3
	c1,0.1,2.2,0.3,3,0.9c0.4,0.3,0.8,0.1,1.1,0.5c1.3,1.4,2.8,2.4,3.7,4.2c0.3,0.5,0.4,1.1,0.6,1.8c0.3,0.5,0.4,1,0.6,1.5
	C121.9,68.6,122,69.9,122.1,71L122.1,71z"/>
<path d="M153.8,49.9c-0.1-0.3-0.3-0.5-0.1-0.9c0-0.3,0-0.6-0.1-0.8c-0.6-0.9-0.6-1.8-0.8-2.8c0-0.3-0.1-0.6-0.3-0.9
	c-0.3-0.6-0.6-1.3-0.6-2c0-0.5-0.3-0.9-0.4-1.4c-0.1-0.5-0.8-0.8-0.9-1.3c-0.4-1.3-1.1-2.3-2.3-2.9c-0.6-0.3-1.1-0.6-1.8-0.9
	c-0.8-0.4-1.5-0.9-2.4-0.9c-0.5,0-1,0.1-1.4-0.1c-0.6-0.6-1.5-0.5-2.3-0.6c-0.8,0-1.4-0.3-2-0.6c-0.5-0.4-1-0.5-1.6-0.4
	c-0.3,0.1-0.5,0.1-0.8,0.1c-1.4,0-2.4,1-3.6,1.5c-0.1,0.6-0.8,0.9-1.3,1.3c-1.1,1-2.2,2.2-3.3,3.2c-0.1,0.1-0.1,0.4-0.3,0.5
	c-0.6,1.6-1.5,3.3-1.9,5.1c0,0.1,0,0.4-0.1,0.5c-0.5,1-0.8,2-0.9,3c-0.1,0.4-0.1,0.8-0.3,1.1c-0.5,1.8-0.6,3.6-0.8,5.5
	c0.1,1.6,0.3,3.4,0.8,4.8c0.3,0.8,0.8,1.5,1.1,2.4c0.9,2,2.2,3.6,3.9,4.8c1.4,1,2.8,1.8,4.6,2.3c1.5,0.5,2.9,0.1,4.4,0.3
	c0.1,0,0.4-0.1,0.5-0.1c0.9-0.3,1.9-0.3,2.7-0.9c0.3-0.1,0.4-0.3,0.6-0.3c1.1,0.1,1.6-1.1,2.7-1.1c0.1-0.1,0.3-0.3,0.3-0.4
	s0.1-0.3,0.3-0.4c1.1-0.5,2-1.5,3.3-1.8c0.5-0.1,0.9-0.6,1.1-1c0.3-0.4,0.4-0.8,0.1-1.1c0-0.1,0.1-0.3,0.1-0.4
	c0.4-1.1,1.3-2.2,2-3.2c0.6-0.9,0.9-2,1.6-2.9v-0.4c-0.1-0.5,0-1.1-0.1-1.6c-0.1-0.4-0.1-0.9,0-1.4c0.3-0.9-0.3-1.8,0.1-2.5
	C154,50.1,154,50,153.8,49.9z M146.9,39.8c-0.3,0.1-0.4,0.4-0.4,0.8c0,1.6-0.4,3.4-0.5,5.2c-0.1,1.3-0.3,2.7-0.4,3.9
	c-0.1,1.3,0,2.4,0.3,3.7c0.3,1.5,0.1,3-0.3,4.4l-0.4,1.9c-0.1,0.4-0.1,0.9-0.4,1.3c-0.1,0.1-0.3,0.3-0.1,0.5
	c0.3,0.5-0.4,0.9-0.4,1.4c0,0.6-0.8,0.5-1.1,0.8c-1.3,0.8-2.8,0.6-4.3,0.8c-1.1,0.1-2.3-0.4-3.9-0.1c-0.1,0-0.4-0.1-0.6-0.3
	c-0.5-0.3-0.9-0.5-1.4-0.5c-0.1,0-0.3,0-0.4-0.1c-0.9-0.8-2-1-2.8-2c-0.1-0.3-0.3-0.3-0.5-0.4c-0.4-0.3-0.6-0.5-0.8-0.9
	c-0.3-1-0.9-1.8-1.4-2.7c-0.1-0.1-0.3-0.1-0.3-0.3c0.1-1.1-0.6-2-0.6-3.2c0-0.1,0.1-0.4,0-0.5c-0.6-1.3-0.1-2.5,0.4-3.8
	c0.3-0.6,0.3-1.3,0.4-1.9c0.1-0.9,0.4-1.9,0.6-2.8c0.3-0.9,0.9-1.5,1-2.5c0.1-0.6,0.6-1.3,1-1.8l0.4-0.4c0.4-0.9,0.9-1.5,1.8-1.9
	c0.5-0.3,1.1-0.4,1.5-0.8c0.9-0.6,1.8-0.8,2.9-0.8c0.9,0,1.8,0,2.7-0.3c0.3-0.1,0.4-0.1,0.6,0c1,0.5,2.2,0.4,3.3,0.4
	c0.6,0,1.1,0.1,1.8,0.5c0.8,0.5,1.6,0.8,2.3,1.4C147.2,39.3,147.5,39.3,146.9,39.8z"/>
<path d="M85.7,61.4c0-0.9,0.3-1.8,0.1-2.7c0-0.3,0-0.5,0.1-0.9c0.3-0.8,0.4-1.6,0.3-2.4c-0.3-0.9-0.4-1.9-0.4-2.8
	c0-1.4-0.8-2.8-0.4-4.3c0-0.3-0.1-0.5-0.1-0.8c-0.3-1.6-0.5-3.3-0.9-4.9c-0.1-0.3-0.1-0.6-0.1-0.9c0-0.5,0-0.9-0.3-1.3
	c-0.1-0.4-0.3-0.8,0.1-1.1c0.1-0.1,0.1-0.3,0-0.5c-0.8-0.9-0.9-1.9-1-2.9v0c0.1-1.1-0.1-1.9-0.9-2.8c-0.5-0.6-1.1-1.1-1.8-1.6
	c-0.6-0.5-1.3-0.9-2-0.6h-0.6c-1.1,0-2,0.5-3,1c-0.4,0.1-0.8,0.5-1.1,0.6c-1.5,0.8-3.2,1.5-4.4,2.7c-0.1,0.1-0.5,0.3-0.6,0.4
	C68.1,36,67.3,36,67,36.5c-0.5,0.5-1.1,0.8-1.6,1.3C65.2,38,64.9,38,64.7,38c-1.5,0-2.9,0.4-3.7,1.8c-0.5,0.8-1,1.6-1,2.5
	c0,1-0.1,2-0.4,2.9c-0.1,0.1-0.1,0.3,0,0.4c0.6,0.6,1,1.4,2,1.5c0.5,0.1,1.1,0.1,1.6,0.3c1,0.4,2.2,0,2.8-0.9l0.4-0.4
	c0.5-0.9,1-1.6,0.4-2.7c-0.1-0.1-0.1-0.5-0.4-0.6c-0.4-0.1-0.4-0.5-0.1-0.8c0.6-0.4,0.9-1.1,1.4-1.6c1-1.3,2.4-1.9,3.6-2.9
	c0.6-0.5,1.4-0.9,1.9-1.5c0.4-0.3,0.8-0.5,1.3-0.4c0.3,0.1,0.6,0.1,0.9,0c0.5-0.4,1-0.1,1.4,0.3c0.5,0.6,1.1,1,1.6,1.5
	c0.1,0.1,0.3,0.1,0.3,0.3c0.5,1.1,1,2.4,0.9,3.8c-0.1,1.4-0.1,2.8-0.8,4.2c-0.1,0.1-0.1,0.4-0.1,0.5c-0.1,0.6,0.1,1.4-0.5,1.8V48
	c0,1,0,1-0.9,1.3c-1.3,0.5-2.4,0.8-3.6,1.5c-0.8,0.5-1.6,1.1-2.5,1.6c-0.3,0.1-0.6,0.4-0.9,0.6c-0.6,0.4-1,1.1-1.8,1.5
	c-1.3,0.8-2.4,1.6-3.7,2.4c-0.3,0.1-0.5,0.4-0.8,0.5c-0.8,0.4-1.3,1.1-2,1.5c-0.1,0.1-0.3,0.3-0.3,0.4c-0.4,1.3-1.1,2.3-1.4,3.7
	c-0.1,0.6-0.1,1.3,0.1,1.8c0.5,1.4,1.3,2.5,2.5,3.3c0.8,0.6,1.5,1.1,2.5,1.1c1.1,0.1,2.4-0.3,3.6-0.5c1.3-0.1,2.4-0.6,3.6-1.1
	c0.9-0.3,1.8-0.5,2.7-1c0.5-0.3,1.3-0.4,1.9-0.5c0.4,0,0.5,0,0.9,0.1l0.4,0.4c0.4,0.4,0.5,0.6,0.4,1.1c-0.3,0.8-0.3,1.6-0.4,2.4
	c-0.1,0.5,0,0.9,0.4,1.1c0.6,0.4,1.1,1,1.9,1.1c0.3,0.1,0.4,0.4,0.5,0.5c0.3,0.3,0.6,0.6,1.1,0.6c0.9,0,1.6-0.1,2.4-0.8
	c0.4-0.3,0.5-0.5,0.5-0.9v-1.6c0-1.1,0.1-2.3-0.1-3.4c-0.1-0.6-0.1-0.6,0.6-0.9c0.9-0.3,1.3-1.3,0.6-1.9
	C85.7,63.3,85.6,62.5,85.7,61.4z M77,62.8c-0.9,0.1-1.8,0.4-2.7,0.8c-0.5,0.3-1.3,0.1-1.9,0.4c-1,0.4-2,0.4-2.9,0.8
	c-0.8,0.3-1.5-0.1-2.3-0.1c-1.4,0-2.2-1-2.9-2c-0.4-0.5-0.9-1-0.9-1.8c0-0.5,0.1-1,0.6-1.1c0.3-0.1,0.5-0.4,0.6-0.6
	c0.6-0.8,1.4-1.1,2.2-1.6c0.1-0.1,0.3-0.1,0.4-0.1c0.6,0.3,0.9,0,1.1-0.5c0.3-0.3,0.5-0.3,0.8-0.3c0.6,0.1,1.1-0.1,1.4-0.8
	c0.1-0.3,0.3-0.4,0.5-0.4c0.8-0.3,1.3-0.8,1.6-1.3c0.4-0.5,0.8-0.8,1.4-0.9c0.5-0.1,1.3-0.1,1.8-0.5c0.4-0.3,0.8-0.4,0.9-0.9
	c0.1-0.1,0.3-0.3,0.4-0.3c0.1,0,0.1,0.3,0.1,0.4c0,0.6-0.1,1.3-0.1,1.9c0.1,0.8-0.1,1.6-0.1,2.3c0.3,1.1,0.3,2.3,0.4,3.4
	c0.1,0.9,0.1,1.6,0.3,2.5C77.6,62.6,77.5,62.7,77,62.8z"/>
<path d="M136.7,74.8c0,0.3,0,0.5,0.1,0.6c0.1,0.1,0.3,0.3,0.4,0.3c0.3,0.1,0.5,0.3,0.8,0.3c0.3,0,0.6-0.1,0.8-0.4
	c0.1-0.1,0.1-0.4,0.1-0.5c0.1-0.1,0.4-0.3,0.5-0.4c0.1,0.1,0.1,0,0.1-0.1C139.4,73,136.8,73.5,136.7,74.8z"/>
<path d="M124.5,96.5c-0.4,0-0.6,0.4-0.8,0.6c-0.1,0.3,0,0.9,0.5,0.9h0.5c0.1,0,0.3-0.1,0.4-0.3v-0.4C125.1,97,125,96.5,124.5,96.5z"
	/>
<path d="M124.3,81.7v-0.5c0-0.1,0.1-0.3,0.3-0.3c0.5-0.6-0.5-1.3-1-0.9c-0.3,0.1-0.4,0.5-0.6,0.6c-0.4,0.3-0.9,0.5-1.1,0.9
	c-0.1,0.3-0.3,0.6,0,0.8c0.1,0.1,0.4,0.3,0.6,0.3c0.3,0,0.4-0.1,0.6-0.1c0.3-0.1,0.4-0.1,0.6-0.3C124,82,124.2,81.9,124.3,81.7z"/>
<path d="M158.4,40.8c0,0.4,0.2,0.9,0,1.3c-0.4,2.4-0.2,4.9-0.2,7.1c0,3.1,0.4,6.2,0.2,9.3c-0.2,3.3-0.7,6.4-1.1,9.8
	c-0.2,1.3-0.4,2.9-0.7,4.2c-0.2,1.6,0.7,2.4,2,2.2c1.1-0.4,2.4-1.1,2.9-2.2c0.7-1.3,1.3-3.1,0.9-4.9c-0.7-2.2-1.1-4.3-1.6-6.5v-1.3
	c0.2-1.6-0.4-2.3-0.3-4.1l0.3-1.4c0.7-1.8,0.9-3.5,1.6-5.3c0.2-0.9,0.2-1.6-0.2-2.2c-0.2-0.4-0.4-0.9,0-1.6c1.1-1.6,1.3-3.1,1.8-4.7
	c0.7-1.6,2.4-2.9,4-2.4c0.4,0.2,0.9,0.2,1.6,0.2c1.8-0.4,4,0.2,6.2-1.3c0.4-0.4,1.3-0.4,1.3-1.3c0.2-0.9-0.2-1.6-0.9-2
	c-0.4-0.4-1.1-0.7-1.3-1.1c-0.9-1.1-1.8-1.1-3.1-0.9c-1.8,0.4-3.5,0.4-5.3,0.9c-2.9,0.7-4.8,0.4-7.9,0.9c-1.3,0.2-0.6,0.9-1.6,2
	C155.8,37,158.2,39.9,158.4,40.8z"/>
</svg>
