<?xml version="1.0" standalone="no"?>
<!DOCTYPE svg PUBLIC "-//W3C//DTD SVG 20010904//EN"
 "http://www.w3.org/TR/2001/REC-SVG-20010904/DTD/svg10.dtd">
<svg version="1.0" xmlns="http://www.w3.org/2000/svg"
 width="520.000000pt" height="520.000000pt" viewBox="0 0 520.000000 520.000000"
 preserveAspectRatio="xMidYMid meet">
<g transform="translate(0.000000,520.000000) scale(0.100000,-0.100000)"
fill="#000000" stroke="none">
<path d="M490 5120 l0 -80 -85 0 -85 0 0 -80 0 -80 -80 0 -80 0 0 -85 0 -85
-80 0 -80 0 0 -2110 0 -2110 80 0 80 0 0 -80 0 -80 80 0 80 0 0 -85 0 -85 85
0 85 0 0 -80 0 -80 2110 0 2110 0 0 80 0 80 80 0 80 0 0 85 0 85 85 0 85 0 0
80 0 80 80 0 80 0 0 2110 0 2110 -80 0 -80 0 0 85 0 85 -85 0 -85 0 0 80 0 80
-80 0 -80 0 0 80 0 80 -2110 0 -2110 0 0 -80z"/>
</g>
</svg>
